<svg width="16" height="16" viewBox="0 0 16 16" fill="inherit" xmlns="http://www.w3.org/2000/svg">
  <path fill="var(--foreground)" d="M12 7.5V8.5C12 8.70625 11.8313 8.875 11.625 8.875H8.875V11.625C8.875 11.8313 8.70625 12 8.5 12H7.5C7.29375 12 7.125 11.8313 7.125 11.625V8.875H4.375C4.16875 8.875 4 8.70625 4 8.5V7.5C4 7.29375 4.16875 7.125 4.375 7.125H7.125V4.375C7.125 4.16875 7.29375 4 7.5 4H8.5C8.70625 4 8.875 4.16875 8.875 4.375V7.125H11.625C11.8313 7.125 12 7.29375 12 7.5ZM15.75 8C15.75 12.2812 12.2812 15.75 8 15.75C3.71875 15.75 0.25 12.2812 0.25 8C0.25 3.71875 3.71875 0.25 8 0.25C12.2812 0.25 15.75 3.71875 15.75 8ZM14.25 8C14.25 4.54688 11.4531 1.75 8 1.75C4.54688 1.75 1.75 4.54688 1.75 8C1.75 11.4531 4.54688 14.25 8 14.25C11.4531 14.25 14.25 11.4531 14.25 8Z"/>
</svg>
