<svg width="12" height="10" viewBox="0 0 12 10" fill="none" xmlns="http://www.w3.org/2000/svg">
<path d="M5.40249 1.08745L9.11249 4.78745C9.22999 4.90495 9.22999 5.09495 9.11249 5.21245L5.40249 8.91245C5.28499 9.02995 5.09499 9.02995 4.97749 8.91245L4.48749 8.42245C4.36749 8.30245 4.36999 8.10995 4.49249 7.99495L6.91999 5.65245H0.699994C0.534994 5.65245 0.399994 5.51745 0.399994 5.35245V4.65245C0.399994 4.48745 0.534994 4.35245 0.699994 4.35245H6.91999L4.49249 2.00995C4.37249 1.89245 4.36999 1.69995 4.48749 1.58245L4.97749 1.09245C5.09499 0.969951 5.28499 0.969951 5.40249 1.08745ZM10.3 0.499951V9.49995C10.3 9.66495 10.435 9.79995 10.6 9.79995H11.3C11.465 9.79995 11.6 9.66495 11.6 9.49995V0.499951C11.6 0.334951 11.465 0.199951 11.3 0.199951H10.6C10.435 0.199951 10.3 0.334951 10.3 0.499951Z" fill="var(--foreground)"/>
</svg>
