<svg width="16" height="16" viewBox="0 0 16 16" fill="none" xmlns="http://www.w3.org/2000/svg">
  <g clip-path="url(#clip0_4613_68480)">
    <path d="M3.14294 8.13826L3.60697 8.6023C3.7168 8.71213 3.89488 8.71213 4.00473 8.6023L7.64057 4.96644V12.9688C7.64057 13.1241 7.7665 13.25 7.92182 13.25H8.57807C8.73339 13.25 8.85932 13.1241 8.85932 12.9688V4.96644L12.4952 8.6023C12.605 8.71213 12.7831 8.71213 12.8929 8.6023L13.357 8.13826C13.4668 8.02843 13.4668 7.85035 13.357 7.7405L8.44881 2.83239C8.33898 2.72256 8.1609 2.72256 8.05105 2.83239L3.14294 7.74053C3.03308 7.85036 3.03308 8.02843 3.14294 8.13826Z" fill="white"/>
  </g>
  <defs>
    <clipPath id="clip0_4613_68480">
      <rect width="10.5" height="12" fill="white" transform="translate(3 2)"/>
    </clipPath>
  </defs>
</svg>
