<svg width="12" height="10" viewBox="0 0 12 10" fill="none" xmlns="http://www.w3.org/2000/svg">
<path d="M6.59749 8.91245L2.88749 5.21245C2.76999 5.09495 2.76999 4.90495 2.88749 4.78745L6.59749 1.08745C6.71499 0.969951 6.90499 0.969951 7.02249 1.08745L7.51249 1.57745C7.63249 1.69745 7.62999 1.88995 7.50749 2.00495L5.07999 4.34995H11.3C11.465 4.34995 11.6 4.48495 11.6 4.64995V5.34995C11.6 5.51495 11.465 5.64995 11.3 5.64995H5.07999L7.50749 7.99245C7.62749 8.10995 7.62999 8.30245 7.51249 8.41995L7.02249 8.90995C6.90499 9.02995 6.71499 9.02995 6.59749 8.91245ZM1.69999 9.49995V0.499951C1.69999 0.334951 1.56499 0.199951 1.39999 0.199951H0.699994C0.534994 0.199951 0.399994 0.334951 0.399994 0.499951V9.49995C0.399994 9.66495 0.534994 9.79995 0.699994 9.79995H1.39999C1.56499 9.79995 1.69999 9.66495 1.69999 9.49995Z" fill="var(--foreground)"/>
</svg>
