<svg width="11" height="12" viewBox="0 0 11 12" xmlns="http://www.w3.org/2000/svg">
  <g clip-path="url(#clip0_4613_68478)">
    <path fill="inherit" d="M0.142936 6.13826L0.606975 6.6023C0.716803 6.71213 0.894881 6.71213 1.00473 6.6023L4.64057 2.96644V10.9688C4.64057 11.1241 4.7665 11.25 4.92182 11.25H5.57807C5.73339 11.25 5.85932 11.1241 5.85932 10.9688V2.96644L9.49518 6.6023C9.60501 6.71213 9.78308 6.71213 9.89294 6.6023L10.357 6.13826C10.4668 6.02843 10.4668 5.85035 10.357 5.7405L5.44881 0.832386C5.33898 0.722558 5.1609 0.722558 5.05105 0.832386L0.142936 5.74053C0.033084 5.85036 0.033084 6.02843 0.142936 6.13826Z"/>
  </g>
  <defs>
    <clipPath id="clip0_4613_68478">
      <rect width="10.5" height="12" fill="inherit"/>
    </clipPath>
  </defs>
</svg>
