<svg width="10" height="12" viewBox="0 0 10 12" fill="inherit" xmlns="http://www.w3.org/2000/svg">
  <path fill="var(--foreground)" d="M8.91245 5.40246L5.21245 9.11246C5.09495 9.22996 4.90495 9.22996 4.78745 9.11246L1.08745 5.40246C0.969951 5.28496 0.969951 5.09496 1.08745 4.97746L1.57745 4.48746C1.69745 4.36746 1.88995 4.36996 2.00495 4.49246L4.34745 6.91996V0.699963C4.34745 0.534963 4.48245 0.399963 4.64745 0.399963H5.34745C5.51245 0.399963 5.64745 0.534963 5.64745 0.699963V6.91996L7.98995 4.49246C8.10745 4.37246 8.29995 4.36996 8.41745 4.48746L8.90745 4.97746C9.02995 5.09496 9.02995 5.28496 8.91245 5.40246ZM9.49995 10.3H0.499951C0.334951 10.3 0.199951 10.435 0.199951 10.6V11.3C0.199951 11.465 0.334951 11.6 0.499951 11.6H9.49995C9.66495 11.6 9.79995 11.465 9.79995 11.3V10.6C9.79995 10.435 9.66495 10.3 9.49995 10.3Z"/>
</svg>
