<svg width="14"
     height="12"
     viewBox="0 0 14 12"
     fill="none"
     xmlns="http://www.w3.org/2000/svg">
  <path d="M6.25313 1.10938L10.8906 5.73438C11.0375 5.88125 11.0375 6.11875 10.8906 6.26562L6.25313 10.8906C6.10625 11.0375 5.86875 11.0375 5.72188 10.8906L5.10938 10.2781C4.95937 10.1281 4.9625 9.8875 5.11562 9.74375L8.15 6.81563H0.375C0.16875 6.81563 0 6.64688 0 6.44063V5.56563C0 5.35938 0.16875 5.19063 0.375 5.19063H8.15L5.11562 2.2625C4.96562 2.11562 4.9625 1.875 5.10938 1.72813L5.72188 1.11562C5.86875 0.9625 6.10625 0.9625 6.25313 1.10938ZM12.375 0.375V11.625C12.375 11.8313 12.5437 12 12.75 12H13.625C13.8313 12 14 11.8313 14 11.625V0.375C14 0.16875 13.8313 0 13.625 0H12.75C12.5437 0 12.375 0.16875 12.375 0.375Z"
        fill="white"
        fill-opacity="0.6"/>
</svg>
