<svg width="20" height="20" viewBox="0 0 20 20" xmlns="http://www.w3.org/2000/svg">
<g clip-path="url(#clip0_2_1040)">
<path opacity="0.4" fill="var(--foreground)" d="M2.38789 9.38469L4.20352 8.5625L9.25445 10.8522C9.48861 10.9587 9.74285 11.0138 10.0001 11.0138C10.2573 11.0138 10.5115 10.9587 10.7457 10.8522L15.797 8.5625L17.6123 9.38531C18.1295 9.61969 18.1295 10.4009 17.6123 10.6353L10.3326 13.9344C10.2281 13.982 10.1147 14.0066 9.99992 14.0066C9.88515 14.0066 9.77171 13.982 9.66727 13.9344L2.38789 10.6347C1.8707 10.4003 1.8707 9.61906 2.38789 9.38469Z"/>
<path fill="var(--foreground)" d="M2.38789 6.62503L9.66726 9.92816C9.77167 9.97587 9.88513 10.0006 9.99992 10.0006C10.1147 10.0006 10.2282 9.97587 10.3326 9.92816L17.612 6.62503C18.1291 6.39035 18.1291 5.60878 17.612 5.37503L10.3329 2.07253C10.2285 2.02482 10.115 2.00012 10.0002 2.00012C9.88544 2.00012 9.77199 2.02482 9.66758 2.07253L2.38789 5.37503C1.8707 5.60941 1.8707 6.39128 2.38789 6.62503ZM17.6123 13.3785L15.8038 12.5588L10.7457 14.8516C10.5115 14.9581 10.2573 15.0132 10.0001 15.0132C9.74285 15.0132 9.48861 14.9581 9.25445 14.8516L4.19664 12.5588L2.38789 13.3785C1.8707 13.6128 1.8707 14.3941 2.38789 14.6285L9.66726 17.9282C9.77171 17.9757 9.88515 18.0004 9.99992 18.0004C10.1147 18.0004 10.2281 17.9757 10.3326 17.9282L17.6138 14.6285C18.1295 14.3941 18.1295 13.6128 17.6123 13.3785V13.3785Z"/>
</g>
<defs>
<clipPath id="clip0_2_1040">
<rect width="16" height="16" fill="var(--foreground)" transform="translate(2 2)"/>
</clipPath>
</defs>
</svg>
