<svg width="21" height="20" viewBox="0 0 21 20" xmlns="http://www.w3.org/2000/svg">
<g clip-path="url(#clip0_5439_87945)">
<path fill="inherit" d="M10.5 16.8854L6.55903 18.6146C6.0625 18.8368 5.49306 18.8368 4.99653 18.6146L1.66181 17.1493C0.955903 16.8403 0.5 16.1424 0.5 15.3715V11.2326C0.5 10.4271 0.999653 9.70138 1.75521 9.41666L5.08681 8.12152C5.13194 8.13541 5.17708 8.12152 5.22222 8.10763V4.21249C5.22222 3.40451 5.72222 2.6809 6.47569 2.39444L9.80903 1.13055C10.2535 0.96218 10.7465 0.96218 11.191 1.13055L14.5243 2.39444C15.2778 2.6809 15.7778 3.40451 15.7778 4.21249V8.10763C15.8229 8.12152 15.8681 8.13541 15.9132 8.12152L19.2465 9.41666C20 9.70138 20.5 10.4271 20.5 11.2326V15.3715C20.5 16.1424 20.0451 16.8403 19.3368 17.1493L16.0035 18.6146C15.5069 18.8368 14.9375 18.8368 14.441 18.6146L10.5 16.8854ZM10.5972 2.68888C10.5347 2.66492 10.434 2.66492 10.4028 2.68888L7.68056 3.72048L10.4688 4.80208L13.3194 3.72048L10.5972 2.68888ZM9.66667 9.36458V6.26735L6.88889 5.20138V8.31249L9.66667 9.36458ZM11.3333 9.36458L14.1111 8.31249V5.20138L11.3333 6.26735V9.36458ZM2.95868 10.743L5.77778 11.8229L8.59722 10.743L5.875 9.7118C5.8125 9.68749 5.71181 9.68749 5.68056 9.7118L2.95868 10.743ZM6.61111 16.7743L9.38889 15.5521V12.2222L6.61111 13.2882V16.7743ZM4.94444 13.2882L2.16667 12.2222V15.3715C2.16667 15.4826 2.23194 15.5799 2.33264 15.625L4.94444 16.7743V13.2882ZM12.4028 10.743L15.2222 11.8229L18.0417 10.743L15.3194 9.7118C15.2569 9.68749 15.1563 9.68749 15.125 9.7118L12.4028 10.743ZM18.6667 15.625C18.7674 15.5799 18.8333 15.4826 18.8333 15.3715V12.2222L16.0556 13.2882V16.7743L18.6667 15.625ZM11.6111 12.2222V15.5521L14.3889 16.7743V13.2882L11.6111 12.2222Z"/>
<path opacity="0.4" fill="inherit" d="M9.66699 6.26736V9.36458L6.88921 8.3125V5.20139L9.66699 6.26736ZM14.1114 8.3125L11.3337 9.36458V6.26736L14.1114 5.20139V8.3125ZM9.38921 15.5521L6.61144 16.7743V13.2882L9.38921 12.2222V15.5521ZM2.16699 12.2222L4.94477 13.2882V16.7743L2.33296 15.625C2.23227 15.5799 2.16699 15.4826 2.16699 15.3715V12.2222ZM18.8337 12.2222V15.3715C18.8337 15.4826 18.7677 15.5799 18.667 15.625L16.0559 16.7743V13.2882L18.8337 12.2222ZM11.6114 15.5521V12.2222L14.3892 13.2882V16.7743L11.6114 15.5521Z"/>
</g>
<defs>
<clipPath id="clip0_5439_87945">
<rect width="20" height="17.7778" fill="inherit" transform="translate(0.5 1)"/>
</clipPath>
</defs>
</svg>
