<svg width="16" height="16" viewBox="0 0 16 16" fill="none" xmlns="http://www.w3.org/2000/svg">
<g clip-path="url(#clip0)">
<path d="M13 8.5C12.8022 8.5 12.6089 8.55865 12.4444 8.66853C12.28 8.77841 12.1518 8.93459 12.0761 9.11732C12.0004 9.30004 11.9806 9.50111 12.0192 9.69509C12.0578 9.88907 12.153 10.0673 12.2929 10.2071C12.4327 10.347 12.6109 10.4422 12.8049 10.4808C12.9989 10.5194 13.2 10.4996 13.3827 10.4239C13.5654 10.3482 13.7216 10.22 13.8315 10.0556C13.9414 9.89112 14 9.69778 14 9.5C14 9.23478 13.8946 8.98043 13.7071 8.79289C13.5196 8.60536 13.2652 8.5 13 8.5ZM13.5 1H2C1.46957 1 0.960859 1.21071 0.585786 1.58579C0.210714 1.96086 0 2.46957 0 3C0 3.26522 0.105357 3.51957 0.292893 3.70711C0.48043 3.89464 0.734784 4 1 4H2.5C2.36739 4 2.24021 3.94732 2.14645 3.85355C2.05268 3.75979 2 3.63261 2 3.5C2 3.36739 2.05268 3.24021 2.14645 3.14645C2.24021 3.05268 2.36739 3 2.5 3H14.5C14.6326 3 14.7598 2.94732 14.8536 2.85355C14.9473 2.75979 15 2.63261 15 2.5C15 2.10218 14.842 1.72064 14.5607 1.43934C14.2794 1.15804 13.8978 1 13.5 1Z" fill="var(--foreground)"/>
<path opacity="0.4" d="M14.4125 4H1C0.734784 4 0.48043 3.89464 0.292893 3.70711C0.105357 3.51957 0 3.26522 0 3V13C0 13.5304 0.210714 14.0391 0.585786 14.4142C0.960859 14.7893 1.46957 15 2 15H14.4125C15.2875 15 16 14.3272 16 13.5V5.5C16 4.67281 15.2881 4 14.4125 4ZM13 10.5C12.8022 10.5 12.6089 10.4414 12.4444 10.3315C12.28 10.2216 12.1518 10.0654 12.0761 9.88268C12.0004 9.69996 11.9806 9.49889 12.0192 9.30491C12.0578 9.11093 12.153 8.93275 12.2929 8.79289C12.4327 8.65304 12.6109 8.5578 12.8049 8.51921C12.9989 8.48063 13.2 8.50043 13.3827 8.57612C13.5654 8.65181 13.7216 8.77998 13.8315 8.94443C13.9414 9.10888 14 9.30222 14 9.5C14 9.76522 13.8946 10.0196 13.7071 10.2071C13.5196 10.3946 13.2652 10.5 13 10.5Z" fill="var(--foreground)"/>
</g>
<defs>
<clipPath id="clip0">
<rect width="16" height="16" fill="var(--foreground)"/>
</clipPath>
</defs>
</svg>
