<svg width="20" height="20" viewBox="0 0 20 20" fill="none" xmlns="http://www.w3.org/2000/svg">
<path opacity="0.4" d="M19.9507 14.0942C19.9356 14.004 19.889 13.9222 19.8191 13.8633C19.7493 13.8043 19.6608 13.7721 19.5694 13.7723H19.0538C18.9424 13.4587 18.774 13.1684 18.5569 12.916L18.8129 12.4692C18.8582 12.3901 18.8743 12.2976 18.8583 12.2079C18.8423 12.1182 18.7952 12.037 18.7254 11.9785C18.4261 11.7296 18.087 11.5331 17.7222 11.3973C17.6364 11.3647 17.5417 11.3638 17.4552 11.3947C17.3688 11.4257 17.2961 11.4864 17.2504 11.566L16.9941 12.0129C16.6666 11.9535 16.331 11.9535 16.0035 12.0129L15.7473 11.566C15.7015 11.4864 15.6289 11.4257 15.5424 11.3947C15.4559 11.3638 15.3613 11.3647 15.2754 11.3973C14.911 11.5338 14.5719 11.7303 14.2723 11.9785C14.2018 12.0366 14.1543 12.1178 14.1382 12.2077C14.1222 12.2976 14.1387 12.3903 14.1848 12.4692L14.441 12.916C14.224 13.1684 14.0555 13.4587 13.9441 13.7723H13.4285C13.3368 13.7727 13.2483 13.8056 13.1785 13.8651C13.1087 13.9246 13.0622 14.0068 13.0473 14.0973C12.9832 14.4811 12.9832 14.8729 13.0473 15.2567C13.0624 15.3468 13.109 15.4286 13.1788 15.4876C13.2486 15.5465 13.3371 15.5788 13.4285 15.5785H13.9441C14.0555 15.8922 14.224 16.1825 14.441 16.4348L14.1848 16.8817C14.1394 16.9607 14.1234 17.0532 14.1394 17.1429C14.1554 17.2326 14.2024 17.3138 14.2723 17.3723C14.5715 17.6212 14.9106 17.8177 15.2754 17.9535C15.3613 17.9861 15.4559 17.987 15.5424 17.9561C15.6289 17.9251 15.7015 17.8644 15.7473 17.7848L16.0035 17.3379C16.331 17.3973 16.6666 17.3973 16.9941 17.3379L17.2504 17.7848C17.2961 17.8644 17.3688 17.9251 17.4552 17.9561C17.5417 17.987 17.6364 17.9861 17.7222 17.9535C18.0867 17.817 18.4257 17.6205 18.7254 17.3723C18.7959 17.3142 18.8434 17.233 18.8594 17.1431C18.8754 17.0532 18.8589 16.9605 18.8129 16.8817L18.5566 16.4348C18.7736 16.1825 18.9421 15.8922 19.0535 15.5785H19.5691C19.6608 15.5781 19.7494 15.5452 19.8191 15.4857C19.8889 15.4262 19.9354 15.344 19.9504 15.2535C20.0145 14.8697 20.0146 14.478 19.9507 14.0942ZM15.6757 15.4973C14.7507 14.2942 16.1226 12.9223 17.3257 13.8473C18.2504 15.0501 16.8788 16.422 15.6757 15.497V15.4973ZM19.9507 4.75353C19.9356 4.66341 19.889 4.58158 19.8191 4.52263C19.7493 4.46368 19.6608 4.43144 19.5694 4.43166H19.0538C18.9424 4.11804 18.774 3.82773 18.5569 3.57541L18.8132 3.12853C18.8585 3.04949 18.8746 2.95702 18.8586 2.86732C18.8426 2.77762 18.7955 2.69641 18.7257 2.63791C18.4265 2.38901 18.0873 2.19249 17.7226 2.05666C17.6367 2.02398 17.542 2.02299 17.4554 2.05386C17.3689 2.08473 17.2962 2.14545 17.2504 2.2251L16.9941 2.67197C16.6666 2.6126 16.331 2.6126 16.0035 2.67197L15.7473 2.2251C15.7015 2.14546 15.6289 2.08473 15.5424 2.05381C15.4559 2.02288 15.3613 2.02378 15.2754 2.05635C14.911 2.19289 14.5719 2.38935 14.2723 2.6376C14.2018 2.69565 14.1543 2.77691 14.1382 2.86681C14.1222 2.95671 14.1387 3.04938 14.1848 3.12822L14.441 3.5751C14.224 3.82742 14.0555 4.11772 13.9441 4.43135H13.4285C13.3368 4.43181 13.2483 4.46469 13.1785 4.52417C13.1087 4.58365 13.0622 4.66589 13.0473 4.75635C12.9832 5.14015 12.9832 5.53192 13.0473 5.91572C13.0624 6.00585 13.109 6.08768 13.1788 6.14663C13.2486 6.20558 13.3371 6.23782 13.4285 6.2376H13.9441C14.0555 6.55122 14.224 6.84152 14.441 7.09385L14.1848 7.54072C14.1394 7.61976 14.1234 7.71223 14.1394 7.80193C14.1554 7.89163 14.2024 7.97285 14.2723 8.03135C14.5715 8.28025 14.9106 8.47676 15.2754 8.6126C15.3613 8.64516 15.4559 8.64606 15.5424 8.61514C15.6289 8.58421 15.7015 8.52348 15.7473 8.44385L16.0035 7.99697C16.331 8.05635 16.6666 8.05635 16.9941 7.99697L17.2504 8.44385C17.2961 8.52348 17.3688 8.58421 17.4552 8.61514C17.5417 8.64606 17.6364 8.64516 17.7222 8.6126C18.0867 8.47605 18.4257 8.2796 18.7254 8.03135C18.7959 7.97329 18.8434 7.89204 18.8594 7.80214C18.8754 7.71224 18.8589 7.61957 18.8129 7.54072L18.5566 7.09385C18.7736 6.84152 18.9421 6.55122 19.0535 6.2376H19.5691C19.6608 6.23713 19.7494 6.20425 19.8191 6.14477C19.8889 6.08529 19.9354 6.00305 19.9504 5.9126C20.0145 5.52881 20.0146 5.13704 19.9507 4.75322V4.75353ZM15.6757 6.15978C14.7507 4.95666 16.1226 3.58166 17.3257 4.50978C18.2504 5.7126 16.8788 7.08447 15.6757 6.15947V6.15978Z" fill="var(--foreground)"/>
<path d="M13.1252 11.4931L12.0723 10.9684C12.1942 10.3125 12.1942 9.63985 12.0723 8.98401L13.1255 8.45901C13.4411 8.27463 13.563 7.89026 13.438 7.54963C13.1599 6.79339 12.6286 6.09964 12.1223 5.49339C12.0092 5.35889 11.8522 5.26857 11.679 5.23828C11.5059 5.20799 11.3276 5.23967 11.1755 5.32776L10.2661 5.85276C9.75985 5.42008 9.17829 5.08428 8.55047 4.86213V3.81213C8.55 3.63524 8.48702 3.46421 8.37265 3.32925C8.25828 3.1943 8.0999 3.10412 7.92548 3.07463C7.13921 2.94283 6.33639 2.94389 5.55048 3.07776C5.37833 3.10867 5.22257 3.19921 5.11051 3.3335C4.99845 3.46778 4.93726 3.63724 4.93766 3.81213V4.86526C4.30928 5.08617 3.7275 5.4221 3.22204 5.85589L2.31266 5.33057C2.16057 5.24236 1.98225 5.21061 1.80906 5.24091C1.63587 5.2712 1.47891 5.3616 1.36579 5.4962C0.859537 6.10245 0.325162 6.7962 0.0470374 7.55245C-0.014496 7.71789 -0.0152863 7.89981 0.0448071 8.06578C0.104901 8.23175 0.221974 8.371 0.375162 8.4587L1.41579 8.98682C1.29391 9.64162 1.29391 10.3133 1.41579 10.9681L0.375162 11.4931C0.222594 11.5822 0.106165 11.7221 0.0461952 11.8883C-0.0137745 12.0545 -0.0134764 12.2364 0.0470374 12.4024C0.325162 13.1556 0.859537 13.8493 1.36579 14.4556C1.47898 14.5901 1.63593 14.6804 1.80909 14.7107C1.98225 14.741 2.16054 14.7093 2.31266 14.6212L3.22204 14.0993C3.72829 14.532 4.30985 14.8678 4.93766 15.0899V16.1399C4.93814 16.3168 5.00112 16.4879 5.11549 16.6228C5.22985 16.7578 5.38824 16.848 5.56266 16.8774C6.34758 17.0118 7.14962 17.0118 7.93454 16.8774C8.10743 16.8464 8.26387 16.7555 8.37644 16.6206C8.489 16.4858 8.55051 16.3156 8.55016 16.1399V15.0899C9.17854 14.869 9.76032 14.5331 10.2658 14.0993L11.1752 14.6243C11.3273 14.7125 11.5056 14.7443 11.6788 14.714C11.852 14.6837 12.0089 14.5933 12.122 14.4587C12.6283 13.8524 13.1752 13.1587 13.4533 12.4024C13.5146 12.2365 13.5153 12.0542 13.4553 11.8878C13.3953 11.7214 13.2783 11.5816 13.1252 11.4931ZM8.39704 11.6274C5.99079 13.4774 3.24391 10.7306 5.09391 8.32432C7.50016 6.47432 10.2473 9.2212 8.39735 11.6274H8.39704Z" fill="var(--foreground)"/>
</svg>

