<svg width="20" height="20" viewBox="0 0 20 20" xmlns="http://www.w3.org/2000/svg">
  <path fill="inherit" d="M17.75 10C17.75 14.2802 14.2802 17.75 10 17.75C5.71978 17.75 2.25 14.2802 2.25 10C2.25 5.71978 5.71978 2.25 10 2.25C14.2802 2.25 17.75 5.71978 17.75 10ZM9.10356 14.1036L14.8536 8.35356C15.0488 8.15831 15.0488 7.84172 14.8536 7.64647L14.1465 6.93937C13.9512 6.74409 13.6346 6.74409 13.4393 6.93937L8.75 11.6287L6.56066 9.43934C6.36541 9.24409 6.04881 9.24409 5.85353 9.43934L5.14644 10.1464C4.95119 10.3417 4.95119 10.6583 5.14644 10.8535L8.39644 14.1035C8.59172 14.2988 8.90828 14.2988 9.10356 14.1036Z"/>
</svg>
