<svg width="10" height="10" viewBox="0 0 10 10" fill="inherit" xmlns="http://www.w3.org/2000/svg">
<path fill="var(--foreground)" fill-opacity="0.4" d="M6.06063 5L9.26562 1.795L9.92656 1.13406C10.0241 1.03656 10.0241 0.878125 9.92656 0.780625L9.21937 0.0734376C9.12187 -0.0240624 8.96344 -0.0240624 8.86594 0.0734376L5 3.93937L1.13406 0.073125C1.03656 -0.024375 0.878125 -0.024375 0.780625 0.073125L0.073125 0.780313C-0.024375 0.877813 -0.024375 1.03625 0.073125 1.13375L3.93937 5L0.073125 8.86594C-0.024375 8.96344 -0.024375 9.12187 0.073125 9.21937L0.780312 9.92656C0.877813 10.0241 1.03625 10.0241 1.13375 9.92656L5 6.06063L8.205 9.26562L8.86594 9.92656C8.96344 10.0241 9.12187 10.0241 9.21937 9.92656L9.92656 9.21937C10.0241 9.12187 10.0241 8.96344 9.92656 8.86594L6.06063 5Z"/>
</svg>
