<svg width="16" height="16" viewBox="0 0 16 16" fill="inherit" xmlns="http://www.w3.org/2000/svg">
  <path d="M6.9998 0.800049C3.5748 0.800049 0.799805 3.57505 0.799805 7.00005C0.799805 10.425 3.5748 13.2 6.9998 13.2C10.4248 13.2 13.1998 10.425 13.1998 7.00005C13.1998 3.57505 10.4248 0.800049 6.9998 0.800049ZM6.9998 12C4.2373 12 1.9998 9.76255 1.9998 7.00005C1.9998 4.23755 4.2373 2.00005 6.9998 2.00005C9.7623 2.00005 11.9998 4.23755 11.9998 7.00005C11.9998 9.76255 9.7623 12 6.9998 12ZM9.5448 5.44505L7.9898 7.00005L9.5448 8.55505C9.6623 8.67255 9.6623 8.86255 9.5448 8.98005L8.9798 9.54505C8.8623 9.66255 8.6723 9.66255 8.5548 9.54505L6.9998 7.99005L5.4448 9.54505C5.3273 9.66255 5.1373 9.66255 5.0198 9.54505L4.4548 8.98005C4.3373 8.86255 4.3373 8.67255 4.4548 8.55505L6.0098 7.00005L4.4548 5.44505C4.3373 5.32755 4.3373 5.13755 4.4548 5.02005L5.0198 4.45505C5.1373 4.33755 5.3273 4.33755 5.4448 4.45505L6.9998 6.01005L8.5548 4.45505C8.6723 4.33755 8.8623 4.33755 8.9798 4.45505L9.5448 5.02005C9.6623 5.13755 9.6623 5.32755 9.5448 5.44505Z" fill-opacity="1" fill="var(--foreground)"/>
</svg>
