<svg width="20" height="20" viewBox="0 0 20 20" xmlns="http://www.w3.org/2000/svg">
<path fill="inherit" d="M10 2.25C5.71875 2.25 2.25 5.71875 2.25 10C2.25 14.2812 5.71875 17.75 10 17.75C14.2812 17.75 17.75 14.2812 17.75 10C17.75 5.71875 14.2812 2.25 10 2.25ZM13.8 12.0344C13.9469 12.1813 13.9469 12.4187 13.8 12.5656L12.5625 13.8C12.4156 13.9469 12.1781 13.9469 12.0312 13.8L10 11.75L7.96562 13.8C7.81875 13.9469 7.58125 13.9469 7.43437 13.8L6.2 12.5625C6.05312 12.4156 6.05312 12.1781 6.2 12.0312L8.25 10L6.2 7.96562C6.05312 7.81875 6.05312 7.58125 6.2 7.43437L7.4375 6.19688C7.58437 6.05 7.82188 6.05 7.96875 6.19688L10 8.25L12.0344 6.2C12.1813 6.05312 12.4187 6.05312 12.5656 6.2L13.8031 7.4375C13.95 7.58437 13.95 7.82188 13.8031 7.96875L11.75 10L13.8 12.0344Z"/>
</svg>
