<svg width="14" height="16" viewBox="0 0 14 16" fill="inherit" xmlns="http://www.w3.org/2000/svg">
<path fill="inherit" d="M13.5607 2.06066L11.9393 0.439344C11.658 0.158039 11.2765 2.08024e-06 10.8787 0L5.5 0C4.67156 0 4 0.671562 4 1.5V3H1.5C0.671562 3 0 3.67156 0 4.5V14.5C0 15.3284 0.671562 16 1.5 16H8.5C9.32844 16 10 15.3284 10 14.5V13H12.5C13.3284 13 14 12.3284 14 11.5V3.12131C14 2.72349 13.842 2.34196 13.5607 2.06066ZM8.3125 14.5H1.6875C1.63777 14.5 1.59008 14.4802 1.55492 14.4451C1.51975 14.4099 1.5 14.3622 1.5 14.3125V4.6875C1.5 4.63777 1.51975 4.59008 1.55492 4.55492C1.59008 4.51975 1.63777 4.5 1.6875 4.5H4V11.5C4 12.3284 4.67156 13 5.5 13H8.5V14.3125C8.5 14.3622 8.48025 14.4099 8.44508 14.4451C8.40992 14.4802 8.36223 14.5 8.3125 14.5ZM12.3125 11.5H5.6875C5.63777 11.5 5.59008 11.4802 5.55492 11.4451C5.51975 11.4099 5.5 11.3622 5.5 11.3125V1.6875C5.5 1.63777 5.51975 1.59008 5.55492 1.55492C5.59008 1.51975 5.63777 1.5 5.6875 1.5H9V4.25C9 4.66422 9.33578 5 9.75 5H12.5V11.3125C12.5 11.3622 12.4802 11.4099 12.4451 11.4451C12.4099 11.4802 12.3622 11.5 12.3125 11.5ZM12.5 3.5H10.5V1.5H10.801C10.8507 1.5 10.8984 1.51975 10.9336 1.55491L12.4451 3.06641C12.4625 3.08382 12.4763 3.10449 12.4857 3.12724C12.4952 3.14999 12.5 3.17438 12.5 3.199V3.5Z"/>
</svg>
