<svg width="16" height="14" viewBox="0 0 16 14" fill="none" xmlns="http://www.w3.org/2000/svg">
<path opacity="0.4" d="M2.375 4H3.625C3.72446 4 3.81984 3.96049 3.89017 3.89016C3.96049 3.81984 4 3.72446 4 3.625V2.375C4 2.27554 3.96049 2.18016 3.89017 2.10983C3.81984 2.03951 3.72446 2 3.625 2H2.375C2.27554 2 2.18016 2.03951 2.10983 2.10983C2.03951 2.18016 2 2.27554 2 2.375V3.625C2 3.72446 2.03951 3.81984 2.10983 3.89016C2.18016 3.96049 2.27554 4 2.375 4ZM0 6V12.5C0 12.8978 0.158035 13.2794 0.43934 13.5607C0.720644 13.842 1.10218 14 1.5 14H14.5C14.8978 14 15.2794 13.842 15.5607 13.5607C15.842 13.2794 16 12.8978 16 12.5V6H0Z" fill="var(--foreground)"/>
<path d="M14.5 0H1.5C1.10218 0 0.720644 0.158035 0.43934 0.43934C0.158035 0.720644 0 1.10218 0 1.5L0 6H16V1.5C16 1.10218 15.842 0.720644 15.5607 0.43934C15.2794 0.158035 14.8978 0 14.5 0ZM4 3.625C4 3.72446 3.96049 3.81984 3.89017 3.89016C3.81984 3.96049 3.72446 4 3.625 4H2.375C2.27554 4 2.18016 3.96049 2.10983 3.89016C2.03951 3.81984 2 3.72446 2 3.625V2.375C2 2.27554 2.03951 2.18016 2.10983 2.10983C2.18016 2.03951 2.27554 2 2.375 2H3.625C3.72446 2 3.81984 2.03951 3.89017 2.10983C3.96049 2.18016 4 2.27554 4 2.375V3.625ZM14 3.625C14 3.72446 13.9605 3.81984 13.8902 3.89016C13.8198 3.96049 13.7245 4 13.625 4H5.875C5.77554 4 5.68016 3.96049 5.60984 3.89016C5.53951 3.81984 5.5 3.72446 5.5 3.625V2.375C5.5 2.27554 5.53951 2.18016 5.60984 2.10983C5.68016 2.03951 5.77554 2 5.875 2H13.625C13.7245 2 13.8198 2.03951 13.8902 2.10983C13.9605 2.18016 14 2.27554 14 2.375V3.625Z" fill="#C4CFDC"/>
</svg>
