<svg width="16" height="16" viewBox="0 0 16 16" xmlns="http://www.w3.org/2000/svg">
<g clip-path="url(#clip0_5439_86863)">
<path fill="inherit" fill-opacity="0.7" d="M12.375 2.75H4.125C3.50367 2.75 3 3.25367 3 3.875V12.125C3 12.7463 3.50367 13.25 4.125 13.25H12.375C12.9963 13.25 13.5 12.7463 13.5 12.125V3.875C13.5 3.25367 12.9963 2.75 12.375 2.75ZM12.2344 12.125H4.26562C4.22833 12.125 4.19256 12.1102 4.16619 12.0838C4.13982 12.0574 4.125 12.0217 4.125 11.9844V4.01562C4.125 3.97833 4.13982 3.94256 4.16619 3.91619C4.19256 3.88982 4.22833 3.875 4.26562 3.875H12.2344C12.2717 3.875 12.3074 3.88982 12.3338 3.91619C12.3602 3.94256 12.375 3.97833 12.375 4.01562V11.9844C12.375 12.0217 12.3602 12.0574 12.3338 12.0838C12.3074 12.1102 12.2717 12.125 12.2344 12.125ZM10.9688 5H7.7816C7.5318 5 7.40569 5.30305 7.58273 5.48012L8.71212 6.60983L5.33238 9.98956C5.22255 10.0994 5.22255 10.2775 5.33238 10.3873L5.8627 10.9176C5.97255 11.0275 6.15063 11.0275 6.26046 10.9176L9.64017 7.53793L10.7699 8.66743C10.946 8.84352 11.25 8.71981 11.25 8.46856V5.28125C11.25 5.12593 11.1241 5 10.9688 5Z"/>
</g>
<defs>
<clipPath id="clip0_5439_86863">
<rect width="10.5" height="12" fill="inherit" transform="translate(3 2)"/>
</clipPath>
</defs>
</svg>
