<svg width="12" height="16" viewBox="0 0 12 16" fill="none" xmlns="http://www.w3.org/2000/svg">
<path d="M6.75 7.37719C6.75 7.17 6.58219 7.00219 6.375 7.00219H5.625C5.41781 7.00219 5.25 7.17 5.25 7.37719V10.0025H3.7225C3.38781 10.0025 3.22094 10.4078 3.45844 10.6438L5.71812 12.8866C5.87406 13.0413 6.12562 13.0413 6.28156 12.8866L8.54125 10.6438C8.77875 10.4081 8.61187 10.0025 8.27719 10.0025H6.75V7.37719ZM11.5572 3.06188L8.93563 0.440625C8.65438 0.159375 8.27312 0 7.87656 0H1.49969C0.671875 0.003125 0 0.675 0 1.50281V14.5003C0 15.3281 0.671875 16 1.49969 16H10.4978C11.3259 16 12 15.3281 12 14.5003V4.12406C12 3.7275 11.8384 3.34313 11.5572 3.06188ZM7.99844 1.62469L10.3763 4.00219H7.99844V1.62469ZM10.5 14.5003H1.49969V1.50281H6.49875V4.75219C6.49875 5.16781 6.83313 5.50187 7.24875 5.50187H10.5V14.5003Z" fill="white"/>
</svg>
