<svg width="16" height="16" viewBox="0 0 16 16" fill="inherit" xmlns="http://www.w3.org/2000/svg">
<path fill="inherit" d="M15.4156 3.35313L12.7094 0.646875C12.6125 0.55 12.4531 0.55 12.3562 0.646875L11.65 1.35312C11.5531 1.45 11.5531 1.60938 11.65 1.70625L13 3.05938V5C13 5.87813 13.6531 6.60313 14.5 6.725V11.75C14.5 12.1625 14.1625 12.5 13.75 12.5C13.3375 12.5 13 12.1625 13 11.75V10.75C13 9.23125 11.7688 8 10.25 8H10V1.5C10 0.671875 9.32812 0 8.5 0H2.5C1.67188 0 1 0.671875 1 1.5V14.5H0.25C0.1125 14.5 0 14.6125 0 14.75V15.75C0 15.8875 0.1125 16 0.25 16H10.75C10.8875 16 11 15.8875 11 15.75V14.75C11 14.6125 10.8875 14.5 10.75 14.5H10V9.5H10.25C10.9406 9.5 11.5 10.0594 11.5 10.75V11.6187C11.5 12.7969 12.3438 13.8688 13.5156 13.9906C14.8594 14.125 16 13.0688 16 11.75V4.76875C16 4.2375 15.7906 3.72813 15.4156 3.35313ZM8.5 14.5H2.5V7.5H8.5V14.5ZM8.5 6H2.5V1.5H8.5V6Z"/>
</svg>
