<svg width="11" height="12" viewBox="0 0 11 12" fill="none" xmlns="http://www.w3.org/2000/svg">
  <path d="M9.375 0.75H1.125C0.503906 0.75 0 1.25391 0 1.875V10.125C0 10.7461 0.503906 11.25 1.125 11.25H9.375C9.99609 11.25 10.5 10.7461 10.5 10.125V1.875C10.5 1.25391 9.99609 0.75 9.375 0.75ZM6.49922 9.74297C6.30234 9.77813 6.22969 9.65625 6.22969 9.55547C6.22969 9.42891 6.23438 8.78203 6.23438 8.25937C6.23438 7.89375 6.1125 7.66172 5.96953 7.53984C6.83672 7.44375 7.75078 7.32422 7.75078 5.82656C7.75078 5.4 7.59844 5.18672 7.35 4.9125C7.38984 4.81172 7.52344 4.39688 7.31016 3.85781C6.98438 3.75703 6.23906 4.27734 6.23906 4.27734C5.92969 4.19062 5.59453 4.14609 5.26406 4.14609C4.93359 4.14609 4.59844 4.19062 4.28906 4.27734C4.28906 4.27734 3.54375 3.75703 3.21797 3.85781C3.00469 4.39453 3.13594 4.80938 3.17813 4.9125C2.92969 5.18672 2.8125 5.4 2.8125 5.82656C2.8125 7.31719 3.68672 7.44375 4.55391 7.53984C4.44141 7.64063 4.34062 7.81406 4.30547 8.0625C4.08281 8.16328 3.51328 8.33672 3.17344 7.73672C2.96016 7.36641 2.57578 7.33594 2.57578 7.33594C2.19609 7.33125 2.55 7.575 2.55 7.575C2.80313 7.69219 2.98125 8.14219 2.98125 8.14219C3.20859 8.83828 4.29609 8.60391 4.29609 8.60391C4.29609 8.92969 4.30078 9.45938 4.30078 9.55547C4.30078 9.65625 4.23047 9.77813 4.03125 9.74297C2.48438 9.225 1.40156 7.75312 1.40156 6.03281C1.40156 3.88125 3.04688 2.24766 5.19844 2.24766C7.35 2.24766 9.09375 3.88125 9.09375 6.03281C9.09609 7.75312 8.04609 9.22734 6.49922 9.74297ZM4.2 8.31094C4.15547 8.32031 4.11328 8.30156 4.10859 8.27109C4.10391 8.23594 4.13438 8.20547 4.17891 8.19609C4.22344 8.19141 4.26562 8.21016 4.27031 8.24063C4.27734 8.27109 4.24687 8.30156 4.2 8.31094ZM3.97734 8.28984C3.97734 8.32031 3.94219 8.34609 3.89531 8.34609C3.84375 8.35078 3.80859 8.325 3.80859 8.28984C3.80859 8.25938 3.84375 8.23359 3.89062 8.23359C3.93516 8.22891 3.97734 8.25469 3.97734 8.28984ZM3.65625 8.26406C3.64687 8.29453 3.6 8.30859 3.56016 8.29453C3.51562 8.28516 3.48516 8.25 3.49453 8.21953C3.50391 8.18906 3.55078 8.175 3.59062 8.18438C3.6375 8.19844 3.66797 8.23359 3.65625 8.26406ZM3.36797 8.1375C3.34687 8.16328 3.30234 8.15859 3.26719 8.12344C3.23203 8.09297 3.22266 8.04844 3.24609 8.02734C3.26719 8.00156 3.31172 8.00625 3.34688 8.04141C3.37734 8.07188 3.38906 8.11875 3.36797 8.1375ZM3.15469 7.92422C3.13359 7.93828 3.09375 7.92422 3.06797 7.88906C3.04219 7.85391 3.04219 7.81406 3.06797 7.79766C3.09375 7.77656 3.13359 7.79297 3.15469 7.82812C3.18047 7.86328 3.18047 7.90547 3.15469 7.92422ZM3.00234 7.69687C2.98125 7.71797 2.94609 7.70625 2.92031 7.68281C2.89453 7.65234 2.88984 7.61719 2.91094 7.60078C2.93203 7.57969 2.96719 7.59141 2.99297 7.61484C3.01875 7.64531 3.02344 7.68047 3.00234 7.69687ZM2.84531 7.52344C2.83594 7.54453 2.80547 7.54922 2.77969 7.53281C2.74922 7.51875 2.73516 7.49297 2.74453 7.47187C2.75391 7.45781 2.77969 7.45078 2.81016 7.4625C2.84063 7.47891 2.85469 7.50469 2.84531 7.52344Z" fill="var(--foreground)"/>
</svg>
