<svg width="20" height="13" viewBox="0 0 20 13" xmlns="http://www.w3.org/2000/svg">
<path opacity="0.4" fill="inherit" d="M0 10H2C2.26522 10 2.51957 9.89464 2.70711 9.70711C2.89464 9.51957 3 9.26522 3 9V2.00625H0V10ZM1.5 8.00313C1.59889 8.00313 1.69556 8.03245 1.77779 8.08739C1.86001 8.14233 1.9241 8.22042 1.96194 8.31178C1.99978 8.40315 2.00969 8.50368 1.99039 8.60067C1.9711 8.69766 1.92348 8.78675 1.85355 8.85668C1.78363 8.92661 1.69454 8.97423 1.59755 8.99352C1.50055 9.01281 1.40002 9.00291 1.30866 8.96507C1.2173 8.92722 1.13921 8.86314 1.08427 8.78091C1.02932 8.69869 1 8.60202 1 8.50313C1 8.37052 1.05268 8.24334 1.14645 8.14957C1.24021 8.0558 1.36739 8.00313 1.5 8.00313ZM14.2906 0.293751C14.1982 0.20052 14.0882 0.126553 13.9669 0.0761303C13.8457 0.0257079 13.7157 -0.000167826 13.5844 8.19072e-07H10.9C10.6501 8.75824e-05 10.4093 0.0937348 10.225 0.262501L7.15312 3.075C7.15 3.07813 7.14688 3.08438 7.14375 3.0875C6.90413 3.31153 6.76277 3.62118 6.75048 3.94898C6.73819 4.27678 6.85596 4.59616 7.07812 4.8375C7.475 5.27188 8.30937 5.3875 8.83125 4.92188C8.83438 4.91875 8.84062 4.91875 8.84375 4.91563L11.3406 2.62813C11.439 2.54197 11.5671 2.49775 11.6976 2.50494C11.8282 2.51213 11.9507 2.57017 12.039 2.66661C12.1272 2.76304 12.1742 2.89022 12.1699 3.02088C12.1655 3.15154 12.1101 3.27529 12.0156 3.36563L11.2 4.1125L15.75 7.80625C15.8383 7.88003 15.9209 7.96047 15.9969 8.04688V2L14.2906 0.293751Z"/>
<path fill="inherit" d="M17 2.00625V9.00313C17 9.26834 17.1054 9.5227 17.2929 9.71023C17.4804 9.89777 17.7348 10.0031 18 10.0031H20V2.00625H17ZM18.5 9.00313C18.4011 9.00313 18.3044 8.9738 18.2222 8.91886C18.14 8.86392 18.0759 8.78583 18.0381 8.69447C18.0002 8.6031 17.9903 8.50257 18.0096 8.40558C18.0289 8.30859 18.0765 8.2195 18.1464 8.14957C18.2164 8.07965 18.3055 8.03203 18.4025 8.01273C18.4994 7.99344 18.6 8.00334 18.6913 8.04119C18.7827 8.07903 18.8608 8.14312 18.9157 8.22534C18.9707 8.30756 19 8.40423 19 8.50313C19 8.63573 18.9473 8.76291 18.8536 8.85668C18.7598 8.95045 18.6326 9.00313 18.5 9.00313ZM15.1219 8.58438L10.4563 4.79688L9.51875 5.65625C9.07648 6.04306 8.50044 6.24153 7.91377 6.20922C7.3271 6.17691 6.77634 5.9164 6.37922 5.48336C5.9821 5.05032 5.77012 4.47912 5.7886 3.89185C5.80709 3.30458 6.05456 2.74783 6.47813 2.34062L9.03438 0H6.41563C6.28437 0.000122893 6.15443 0.0261317 6.03324 0.0765374C5.91206 0.126943 5.802 0.200756 5.70937 0.29375L4 2V8.99687H4.57188L7.4 11.5562C7.81157 11.8905 8.33902 12.0476 8.86641 11.9931C9.3938 11.9387 9.87797 11.677 10.2125 11.2656L10.2188 11.2594L10.7781 11.7437C10.8965 11.8401 11.0327 11.9121 11.1789 11.9557C11.3251 11.9994 11.4785 12.0138 11.6303 11.9981C11.7821 11.9824 11.9293 11.937 12.0635 11.8644C12.1977 11.7918 12.3163 11.6935 12.4125 11.575L13.3938 10.3687L13.5625 10.5063C13.7685 10.6732 14.0323 10.7515 14.296 10.724C14.5597 10.6964 14.8017 10.5653 14.9688 10.3594L15.2656 9.99375C15.4334 9.78778 15.5125 9.52359 15.4856 9.2593C15.4586 8.995 15.3278 8.75223 15.1219 8.58438Z"/>
</svg>
