<svg width="16" height="16" viewBox="0 0 16 16" fill="none" xmlns="http://www.w3.org/2000/svg">
<path fill="#5e6369" d="M4.31225 12.6526C5.20341 13.3586 6.2786 13.7938 7.40996 13.9065C8.54131 14.0192 9.68122 13.8045 10.6941 13.2881C11.707 12.7717 12.5503 11.9752 13.1236 10.9934C13.697 10.0116 13.9763 8.88581 13.9283 7.74987C13.8804 6.61393 13.5072 5.51566 12.8531 4.58569C12.199 3.65571 11.2916 2.93316 10.2388 2.50395C9.18598 2.07475 8.03204 1.95695 6.91421 2.16458C5.79638 2.37221 4.7617 2.89652 3.93322 3.67516L5.57064 5.31258C5.8958 5.63774 5.66547 6.19355 5.20548 6.19355H0.516128C0.379242 6.19355 0.247963 6.13917 0.15117 6.04238C0.0543776 5.94558 0 5.8143 0 5.67742V0.98807C0 0.528071 0.555806 0.297749 0.880966 0.622909L2.47387 2.21581C3.96064 0.791281 5.94092 -0.00274968 7.99999 7.15474e-06C12.4132 7.15474e-06 15.9919 3.57355 16 7.98483C16.008 12.3961 12.4135 15.9968 8.00579 16C6.17667 16.004 4.40185 15.3786 2.97935 14.2287C2.89516 14.1604 2.82626 14.0751 2.77712 13.9784C2.72798 13.8818 2.69969 13.7758 2.6941 13.6675C2.6885 13.5592 2.70572 13.451 2.74463 13.3498C2.78355 13.2486 2.84329 13.1566 2.92 13.08L3.28354 12.7164C3.41727 12.5814 3.59602 12.5002 3.78572 12.4884C3.97543 12.4767 4.16284 12.5351 4.31225 12.6526Z"/>
<path fill="#C4CFDC" d="M9.03229 4.64529V8.01141L10.3452 9.03238C10.4254 9.09479 10.4926 9.17241 10.5429 9.26079C10.5931 9.34917 10.6255 9.44659 10.6381 9.54747C10.6507 9.64836 10.6433 9.75074 10.6164 9.84878C10.5894 9.94681 10.5434 10.0386 10.481 10.1188L10.1642 10.5259C10.1018 10.6062 10.0242 10.6734 9.9358 10.7236C9.84742 10.7739 9.75001 10.8062 9.64912 10.8188C9.54824 10.8315 9.44585 10.8241 9.34782 10.7971C9.24979 10.7702 9.15802 10.7242 9.07777 10.6617L6.96777 9.02109V4.64529C6.96777 4.43996 7.04934 4.24304 7.19453 4.09785C7.33972 3.95266 7.53664 3.87109 7.74197 3.87109H8.25809C8.46342 3.87109 8.66034 3.95266 8.80553 4.09785C8.95072 4.24304 9.03229 4.43996 9.03229 4.64529Z"/>
</svg>
