<svg width="12" height="16" viewBox="0 0 12 16" fill="none" xmlns="http://www.w3.org/2000/svg">
<path d="M11.5 1.5H11.625C11.8321 1.5 12 1.33209 12 1.125V0.375C12 0.167906 11.8321 0 11.625 0H0.375C0.167906 0 0 0.167906 0 0.375V1.125C0 1.33209 0.167906 1.5 0.375 1.5H0.5C0.5 4.01762 1.50588 6.68147 3.53688 8C1.49684 9.32441 0.5 11.9969 0.5 14.5H0.375C0.167906 14.5 0 14.6679 0 14.875V15.625C0 15.8321 0.167906 16 0.375 16H11.625C11.8321 16 12 15.8321 12 15.625V14.875C12 14.6679 11.8321 14.5 11.625 14.5H11.5C11.5 11.9824 10.4941 9.31853 8.46313 8C10.5032 6.67559 11.5 4.00313 11.5 1.5ZM2 1.5H10C10 4.67562 8.20916 7.25 6 7.25C3.79084 7.25 2 4.67566 2 1.5ZM10 14.5H2C2 11.3244 3.79087 8.75 6 8.75C8.20913 8.75 10 11.3244 10 14.5Z" fill="var(--foreground)"/>
</svg>
