<svg width="393" height="46" viewBox="0 0 393 46" xmlns="http://www.w3.org/2000/svg">
  <path fill-rule="evenodd" clip-rule="evenodd"
        d="M119.151 17.5938H136.041V28.8538H119.151V17.5938ZM0 22H119V25H0V22ZM140.968 19.7051H136.042V26.7426H140.968V19.7051Z"
        fill="inherit" fill-opacity="0.4"/>
  <g clip-path="url(#clip0_5402_83435)">
    <path
      d="M353.495 32.4511V33.7802H361.837V27.7857H360.622V32.4511H353.495ZM353.495 12.668V13.9971H360.622V18.6628H361.837V12.668H353.495ZM349.192 22.9506V19.862H351.099C352.029 19.862 352.363 20.2008 352.363 21.1262V21.6735C352.363 22.6248 352.041 22.9506 351.099 22.9506H349.192ZM352.219 23.4979C353.089 23.2503 353.697 22.364 353.697 21.3086C353.697 20.644 353.459 20.0444 353.006 19.5621C352.434 18.9625 351.671 18.6628 350.682 18.6628H348V27.7854H349.192V24.1495H350.98C351.898 24.1495 352.267 24.5665 352.267 25.6093V27.7857H353.483V25.8178C353.483 24.3842 353.173 23.837 352.219 23.6805V23.4979ZM342.185 23.7975H345.855V22.5986H342.185V19.8617H346.213V18.6628H340.969V27.7854H346.392V26.5865H342.185V23.7975ZM338.192 24.2798V24.9053C338.192 26.2215 337.751 26.6518 336.642 26.6518H336.38C335.272 26.6518 334.736 26.2606 334.736 24.4492V21.999C334.736 20.1746 335.296 19.7964 336.404 19.7964H336.642C337.727 19.7964 338.072 20.2396 338.084 21.4647H339.395C339.276 19.6662 338.18 18.5326 336.535 18.5326C335.736 18.5326 335.069 18.8063 334.569 19.3274C333.818 20.0964 333.401 21.3997 333.401 23.2241C333.401 24.9835 333.758 26.2868 334.497 27.0946C334.997 27.6289 335.689 27.9156 336.368 27.9156C337.083 27.9156 337.739 27.6027 338.072 26.9252H338.239V27.7854H339.336V23.0809H336.106V24.2798H338.192ZM327.68 19.8617H328.979C330.207 19.8617 330.875 20.2005 330.875 22.0252V24.423C330.875 26.2474 330.207 26.5865 328.979 26.5865H327.68V19.8617ZM329.086 27.7857C331.363 27.7857 332.209 25.896 332.209 23.2244C332.209 20.5137 331.303 18.6631 329.062 18.6631H326.488V27.7857H329.086ZM320.732 23.7975H324.403V22.5986H320.732V19.8617H324.76V18.6628H319.516V27.7854H324.939V26.5865H320.732V23.7975ZM313.7 18.6628H312.485V27.7854H317.967V26.5865H313.7V18.6628ZM304.13 27.7857V33.7805H312.473V32.4511H305.345V27.7857H304.13ZM304.13 12.668V18.6628H305.345V13.9971H312.473V12.668H304.13Z"
      fill="inherit"/>
  </g>
  <rect x="135.729" y="0.5" width="256.104" height="44.0402" rx="1.5" fill="var(--background-surface)" stroke="var(--foreground)"/>
  <mask id="path-4-inside-1_5402_83435" fill="inherit">
    <path fill-rule="evenodd" clip-rule="evenodd"
          d="M265.997 44.9056C266.221 44.9925 266.465 45.0402 266.72 45.0402H268.473H390.333C391.438 45.0402 392.333 44.1447 392.333 43.0402V2C392.333 0.895431 391.438 0 390.333 0H268.473H266.72C266.465 0 266.221 0.0476706 265.997 0.134584C254.724 1.36746 245.953 10.9194 245.953 22.5201C245.953 34.1207 254.724 43.6727 265.997 44.9056Z"/>
  </mask>
  <path fill-rule="evenodd" clip-rule="evenodd"
        d="M265.997 44.9056C266.221 44.9925 266.465 45.0402 266.72 45.0402H268.473H390.333C391.438 45.0402 392.333 44.1447 392.333 43.0402V2C392.333 0.895431 391.438 0 390.333 0H268.473H266.72C266.465 0 266.221 0.0476706 265.997 0.134584C254.724 1.36746 245.953 10.9194 245.953 22.5201C245.953 34.1207 254.724 43.6727 265.997 44.9056Z"
        fill="inherit" fill-opacity="0.1"/>
  <path
    d="M265.997 44.9056L266.358 43.9732L266.236 43.9258L266.106 43.9115L265.997 44.9056ZM265.997 0.134584L266.106 1.12866L266.236 1.11439L266.358 1.06696L265.997 0.134584ZM266.72 44.0402C266.59 44.0402 266.469 44.0161 266.358 43.9732L265.635 45.838C265.973 45.9688 266.339 46.0402 266.72 46.0402V44.0402ZM268.473 44.0402H266.72V46.0402H268.473V44.0402ZM390.333 44.0402H268.473V46.0402H390.333V44.0402ZM391.333 43.0402C391.333 43.5924 390.886 44.0402 390.333 44.0402V46.0402C391.99 46.0402 393.333 44.697 393.333 43.0402H391.333ZM391.333 2V43.0402H393.333V2H391.333ZM390.333 1C390.886 1 391.333 1.44772 391.333 2H393.333C393.333 0.343146 391.99 -1 390.333 -1V1ZM268.473 1H390.333V-1H268.473V1ZM266.72 1H268.473V-1H266.72V1ZM266.358 1.06696C266.469 1.02403 266.59 1 266.72 1V-1C266.339 -1 265.973 -0.928685 265.635 -0.797789L266.358 1.06696ZM265.888 -0.859489C254.114 0.428253 244.953 10.4036 244.953 22.5201H246.953C246.953 11.4352 255.335 2.30667 266.106 1.12866L265.888 -0.859489ZM244.953 22.5201C244.953 34.6365 254.114 44.6119 265.888 45.8997L266.106 43.9115C255.335 42.7335 246.953 33.6049 246.953 22.5201H244.953Z"
    fill="inherit" mask="url(#path-4-inside-1_5402_83435)"/>
  <circle cx="268.473" cy="22.5198" r="10.76" fill="var(--table-hovered-row-background)" stroke="var(--foreground)"/>
  <rect x="152.619" y="11.7598" width="74.0669" height="21.5201" rx="1.5" fill="inherit" stroke="var(--foreground)"/>
  <path
    d="M179.696 26.0007H178.298L181.439 17.2734H182.96L186.101 26.0007H184.703L182.236 18.8587H182.168L179.696 26.0007ZM179.93 22.5831H184.465V23.6911H179.93V22.5831ZM189.911 26.1328C189.277 26.1328 188.732 25.9894 188.274 25.7024C187.82 25.4126 187.47 25.0135 187.226 24.505C186.982 23.9965 186.859 23.4141 186.859 22.7578C186.859 22.093 186.984 21.5064 187.234 20.9979C187.484 20.4865 187.837 20.0874 188.291 19.8004C188.746 19.5135 189.281 19.37 189.898 19.37C190.395 19.37 190.838 19.4624 191.227 19.647C191.617 19.8288 191.93 20.0845 192.169 20.4141C192.411 20.7436 192.554 21.1286 192.599 21.5689H191.359C191.291 21.2621 191.135 20.9979 190.891 20.7763C190.649 20.5547 190.325 20.4439 189.919 20.4439C189.564 20.4439 189.253 20.5376 188.986 20.7251C188.722 20.9098 188.516 21.174 188.368 21.5178C188.22 21.8587 188.146 22.2621 188.146 22.728C188.146 23.2053 188.219 23.6172 188.364 23.9638C188.509 24.3104 188.713 24.5788 188.977 24.7692C189.244 24.9595 189.558 25.0547 189.919 25.0547C190.161 25.0547 190.379 25.0107 190.575 24.9226C190.774 24.8317 190.94 24.7024 191.074 24.5348C191.21 24.3672 191.305 24.1655 191.359 23.9297H192.599C192.554 24.353 192.416 24.7308 192.186 25.0632C191.956 25.3956 191.648 25.657 191.261 25.8473C190.878 26.0376 190.428 26.1328 189.911 26.1328ZM196.719 26.1328C196.086 26.1328 195.54 25.9894 195.083 25.7024C194.628 25.4126 194.279 25.0135 194.034 24.505C193.79 23.9965 193.668 23.4141 193.668 22.7578C193.668 22.093 193.793 21.5064 194.043 20.9979C194.293 20.4865 194.645 20.0874 195.1 19.8004C195.554 19.5135 196.09 19.37 196.706 19.37C197.204 19.37 197.647 19.4624 198.036 19.647C198.425 19.8288 198.739 20.0845 198.978 20.4141C199.219 20.7436 199.363 21.1286 199.408 21.5689H198.168C198.1 21.2621 197.944 20.9979 197.699 20.7763C197.458 20.5547 197.134 20.4439 196.728 20.4439C196.373 20.4439 196.061 20.5376 195.794 20.7251C195.53 20.9098 195.324 21.174 195.177 21.5178C195.029 21.8587 194.955 22.2621 194.955 22.728C194.955 23.2053 195.027 23.6172 195.172 23.9638C195.317 24.3104 195.522 24.5788 195.786 24.7692C196.053 24.9595 196.367 25.0547 196.728 25.0547C196.969 25.0547 197.188 25.0107 197.384 24.9226C197.583 24.8317 197.749 24.7024 197.883 24.5348C198.019 24.3672 198.114 24.1655 198.168 23.9297H199.408C199.363 24.353 199.225 24.7308 198.995 25.0632C198.765 25.3956 198.456 25.657 198.07 25.8473C197.686 26.0376 197.236 26.1328 196.719 26.1328ZM203.592 26.1328C202.947 26.1328 202.391 25.995 201.925 25.7195C201.462 25.4411 201.104 25.0504 200.852 24.5476C200.602 24.0419 200.477 23.4496 200.477 22.7706C200.477 22.1001 200.602 21.5092 200.852 20.9979C201.104 20.4865 201.457 20.0874 201.908 19.8004C202.363 19.5135 202.894 19.37 203.502 19.37C203.871 19.37 204.229 19.4311 204.576 19.5533C204.923 19.6754 205.234 19.8672 205.509 20.1286C205.785 20.3899 206.002 20.7294 206.161 21.147C206.32 21.5618 206.4 22.0661 206.4 22.6598V23.1115H201.197V22.157H205.151C205.151 21.8217 205.083 21.5249 204.947 21.2663C204.81 21.005 204.619 20.799 204.371 20.6484C204.127 20.4979 203.84 20.4226 203.511 20.4226C203.153 20.4226 202.84 20.5107 202.573 20.6868C202.309 20.8601 202.104 21.0874 201.96 21.3686C201.818 21.647 201.746 21.9496 201.746 22.2763V23.022C201.746 23.4595 201.823 23.8317 201.977 24.1385C202.133 24.4453 202.35 24.6797 202.629 24.8416C202.907 25.0007 203.232 25.0803 203.604 25.0803C203.846 25.0803 204.066 25.0462 204.265 24.978C204.464 24.907 204.636 24.8019 204.781 24.6626C204.925 24.5234 205.036 24.3516 205.113 24.147L206.319 24.3644C206.222 24.7195 206.049 25.0305 205.799 25.2976C205.552 25.5618 205.241 25.7678 204.866 25.9155C204.494 26.0604 204.069 26.1328 203.592 26.1328ZM207.814 28.4552V19.4553H209.058V20.5163H209.164C209.238 20.38 209.345 20.2223 209.484 20.0433C209.623 19.8644 209.816 19.7081 210.064 19.5746C210.311 19.4382 210.637 19.37 211.044 19.37C211.572 19.37 212.044 19.5036 212.459 19.7706C212.873 20.0376 213.199 20.4226 213.434 20.9254C213.673 21.4283 213.792 22.0334 213.792 22.7408C213.792 23.4482 213.674 24.0547 213.439 24.5604C213.203 25.0632 212.879 25.451 212.467 25.7237C212.055 25.9936 211.585 26.1286 211.057 26.1286C210.659 26.1286 210.334 26.0618 210.081 25.9283C209.831 25.7947 209.635 25.6385 209.493 25.4595C209.351 25.2805 209.241 25.1215 209.164 24.9822H209.088V28.4552H207.814ZM209.062 22.728C209.062 23.1882 209.129 23.5916 209.262 23.9382C209.396 24.2848 209.589 24.5561 209.842 24.7521C210.095 24.9453 210.405 25.0419 210.771 25.0419C211.152 25.0419 211.47 24.9411 211.726 24.7394C211.981 24.5348 212.174 24.2578 212.305 23.9084C212.439 23.559 212.505 23.1655 212.505 22.728C212.505 22.2962 212.44 21.9084 212.309 21.5646C212.182 21.2209 211.988 20.9496 211.73 20.7507C211.474 20.5519 211.155 20.4524 210.771 20.4524C210.402 20.4524 210.089 20.5476 209.834 20.7379C209.581 20.9283 209.389 21.1939 209.258 21.5348C209.128 21.8757 209.062 22.2734 209.062 22.728ZM218.275 19.4553V20.478H214.7V19.4553H218.275ZM215.659 17.8871H216.933V24.0788C216.933 24.326 216.97 24.5121 217.044 24.6371C217.118 24.7592 217.213 24.843 217.329 24.8885C217.449 24.9311 217.578 24.9524 217.717 24.9524C217.819 24.9524 217.909 24.9453 217.985 24.9311C218.062 24.9169 218.122 24.9055 218.164 24.897L218.395 25.9496C218.321 25.978 218.216 26.0064 218.079 26.0348C217.943 26.0661 217.772 26.0831 217.568 26.0859C217.233 26.0916 216.92 26.032 216.63 25.907C216.341 25.782 216.106 25.5888 215.927 25.3274C215.748 25.0661 215.659 24.7379 215.659 24.343V17.8871Z"
    fill="var(--background-base)"/>
  <path
    fill="var(--background-base)"
    d="M169.215 17.9554L163.05 24.1205L160.785 21.8552C160.675 21.7454 160.497 21.7454 160.387 21.8552L159.724 22.5181C159.614 22.628 159.614 22.806 159.724 22.9159L162.851 26.0429C162.961 26.1528 163.139 26.1528 163.249 26.0429L170.276 19.0161C170.386 18.9063 170.386 18.7282 170.276 18.6183L169.613 17.9554C169.503 17.8456 169.325 17.8456 169.215 17.9554Z"/>
  <defs>
    <clipPath id="clip0_5402_83435">
      <rect width="57.7077" height="21.1126" fill="inherit" transform="translate(304.13 12.668)"/>
    </clipPath>
  </defs>
</svg>
