<svg width="393" height="46" viewBox="0 0 393 46" xmlns="http://www.w3.org/2000/svg"
     class="overflow-visible">
  <path fill-rule="evenodd" clip-rule="evenodd"
        d="M119.151 17.5938H136.041V28.8538H119.151V17.5938ZM0 22H119V25H0V22ZM140.968 19.7051H136.042V26.7426H140.968V19.7051Z"
        fill="inherit" fill-opacity="0.4"/>
  <g fill-rule="evenodd" clip-rule="evenodd" fill="inherit" fill-opacity="1">
    <g clip-path="url(#clip0_5338_85011)">
      <path
        d="M353.494 32.4511V33.7802H361.837V27.7857H360.622V32.4511H353.494ZM353.494 12.668V13.9971H360.622V18.6628H361.837V12.668H353.494ZM349.192 22.9506V19.862H351.099C352.029 19.862 352.363 20.2008 352.363 21.1262V21.6735C352.363 22.6248 352.041 22.9506 351.099 22.9506H349.192ZM352.219 23.4979C353.089 23.2503 353.697 22.364 353.697 21.3086C353.697 20.644 353.459 20.0444 353.006 19.5621C352.434 18.9625 351.671 18.6628 350.682 18.6628H348V27.7854H349.192V24.1495H350.98C351.898 24.1495 352.267 24.5665 352.267 25.6093V27.7857H353.483V25.8178C353.483 24.3842 353.173 23.837 352.219 23.6805V23.4979ZM342.184 23.7975H345.855V22.5986H342.184V19.8617H346.213V18.6628H340.969V27.7854H346.392V26.5865H342.184V23.7975ZM338.192 24.2798V24.9053C338.192 26.2215 337.751 26.6518 336.642 26.6518H336.38C335.272 26.6518 334.735 26.2606 334.735 24.4492V21.999C334.735 20.1746 335.296 19.7964 336.404 19.7964H336.642C337.727 19.7964 338.072 20.2396 338.084 21.4647H339.395C339.276 19.6662 338.18 18.5326 336.535 18.5326C335.736 18.5326 335.069 18.8063 334.568 19.3274C333.818 20.0964 333.4 21.3997 333.4 23.2241C333.4 24.9835 333.758 26.2868 334.497 27.0946C334.997 27.6289 335.689 27.9156 336.368 27.9156C337.083 27.9156 337.739 27.6027 338.072 26.9252H338.239V27.7854H339.335V23.0809H336.106V24.2798H338.192ZM327.68 19.8617H328.979C330.207 19.8617 330.874 20.2005 330.874 22.0252V24.423C330.874 26.2474 330.207 26.5865 328.979 26.5865H327.68V19.8617ZM329.086 27.7857C331.363 27.7857 332.209 25.896 332.209 23.2244C332.209 20.5137 331.303 18.6631 329.062 18.6631H326.488V27.7857H329.086ZM320.732 23.7975H324.403V22.5986H320.732V19.8617H324.76V18.6628H319.516V27.7854H324.939V26.5865H320.732V23.7975ZM313.7 18.6628H312.485V27.7854H317.967V26.5865H313.7V18.6628ZM304.13 27.7857V33.7805H312.472V32.4511H305.345V27.7857H304.13ZM304.13 12.668V18.6628H305.345V13.9971H312.472V12.668H304.13Z"
        fill="inherit"/>
    </g>
    <rect x="135.729" y="0.5" width="256.104" height="44.0402" rx="1.5" fill="var(--background-base)"
          stroke="var(--foreground)"/>
    <mask id="path-4-inside-1_5338_85011" fill="inherit">
      <path fill-rule="evenodd" clip-rule="evenodd"
            d="M265.997 44.9056C266.221 44.9925 266.465 45.0402 266.719 45.0402H268.473H390.333C391.438 45.0402 392.333 44.1447 392.333 43.0402V2C392.333 0.895431 391.438 0 390.333 0H268.473H266.719C266.465 0 266.221 0.0476706 265.997 0.134584C254.724 1.36746 245.953 10.9194 245.953 22.5201C245.953 34.1207 254.724 43.6727 265.997 44.9056Z"/>
    </mask>
    <path fill-rule="evenodd" clip-rule="evenodd"
          d="M265.997 44.9056C266.221 44.9925 266.465 45.0402 266.719 45.0402H268.473H390.333C391.438 45.0402 392.333 44.1447 392.333 43.0402V2C392.333 0.895431 391.438 0 390.333 0H268.473H266.719C266.465 0 266.221 0.0476706 265.997 0.134584C254.724 1.36746 245.953 10.9194 245.953 22.5201C245.953 34.1207 254.724 43.6727 265.997 44.9056Z"
          fill="inherit" fill-opacity="0.1"/>
    <path
      d="M265.997 44.9056L266.358 43.9732L266.236 43.9258L266.105 43.9115L265.997 44.9056ZM265.997 0.134584L266.105 1.12866L266.236 1.11439L266.358 1.06696L265.997 0.134584ZM266.719 44.0402C266.59 44.0402 266.469 44.0161 266.358 43.9732L265.635 45.838C265.973 45.9688 266.339 46.0402 266.719 46.0402V44.0402ZM268.473 44.0402H266.719V46.0402H268.473V44.0402ZM390.333 44.0402H268.473V46.0402H390.333V44.0402ZM391.333 43.0402C391.333 43.5924 390.886 44.0402 390.333 44.0402V46.0402C391.99 46.0402 393.333 44.697 393.333 43.0402H391.333ZM391.333 2V43.0402H393.333V2H391.333ZM390.333 1C390.886 1 391.333 1.44772 391.333 2H393.333C393.333 0.343146 391.99 -1 390.333 -1V1ZM268.473 1H390.333V-1H268.473V1ZM266.719 1H268.473V-1H266.719V1ZM266.358 1.06696C266.469 1.02403 266.59 1 266.719 1V-1C266.339 -1 265.973 -0.928685 265.635 -0.797789L266.358 1.06696ZM265.888 -0.859489C254.114 0.428253 244.953 10.4036 244.953 22.5201H246.953C246.953 11.4352 255.335 2.30667 266.105 1.12866L265.888 -0.859489ZM244.953 22.5201C244.953 34.6365 254.114 44.6119 265.888 45.8997L266.105 43.9115C255.335 42.7335 246.953 33.6049 246.953 22.5201H244.953Z"
      fill="inherit" mask="url(#path-4-inside-1_5338_85011)"/>
    <circle cx="268.473" cy="22.5198" r="10.76" fill="var(--table-hovered-row-background)"
            stroke="var(--foreground)"/>
    <rect x="152.619" y="11.7598" width="74.0669" height="21.5201" rx="1.5" fill="inherit" fill-opacity="0.1"
          stroke="var(--foreground)"/>
  </g>
  <defs>
    <clipPath id="clip0_5338_85011">
      <rect width="57.7077" height="21.1126" fill="inherit" transform="translate(304.13 12.668)"/>
    </clipPath>
  </defs>
</svg>
