<svg width="10" height="16" viewBox="0 0 10 16" fill="none" xmlns="http://www.w3.org/2000/svg">
<path d="M9.89016 3.75049L6.26516 0.110332C6.11872 -0.0361058 5.88128 -0.0361058 5.73481 0.110332L2.10985 3.75049C1.96341 3.89693 1.96341 4.13436 2.10985 4.28083L2.8071 4.97808C2.95735 5.12833 3.20228 5.12386 3.34694 4.96824L5.125 3.03186V14.2505H1.37575C1.32651 14.2505 1.27774 14.2602 1.23225 14.279C1.18675 14.2979 1.14541 14.3255 1.1106 14.3603L0.110596 15.3603C-0.125654 15.5966 0.0416582 16.0005 0.375752 16.0005H6.125C6.53922 16.0005 6.875 15.6647 6.875 15.2505V3.03186L8.6531 4.96821C8.79775 5.12383 9.04269 5.1283 9.19294 4.97805L9.89019 4.2808C10.0366 4.13436 10.0366 3.89693 9.89016 3.75049Z" fill="var(--foreground)"/>
</svg>
