<svg width="20" height="16" viewBox="0 0 20 16" xmlns="http://www.w3.org/2000/svg">
<g clip-path="url(#clip0)">
<path fill="inherit" d="M20 13.1669V14.1669C20 14.3658 19.921 14.5566 19.7803 14.6972C19.6397 14.8379 19.4489 14.9169 19.25 14.9169H9.75C9.55109 14.9169 9.36032 14.8379 9.21967 14.6972C9.07902 14.5566 9 14.3658 9 14.1669V13.1669C9 12.968 9.07902 12.7772 9.21967 12.6366C9.36032 12.4959 9.55109 12.4169 9.75 12.4169H19.25C19.4489 12.4169 19.6397 12.4959 19.7803 12.6366C19.921 12.7772 20 12.968 20 13.1669Z"/>
<path opacity="0.4" fill="inherit" d="M0.928403 14.5207L0.219028 13.8125C0.0787685 13.6719 0 13.4814 0 13.2829C0 13.0843 0.0787685 12.8938 0.219028 12.7532L5.03153 7.91691L0.219028 3.08129C0.0787685 2.94069 0 2.7502 0 2.5516C0 2.353 0.0787685 2.16251 0.219028 2.02192L0.928403 1.31254C1.06905 1.1719 1.25981 1.09289 1.45872 1.09289C1.65762 1.09289 1.84838 1.1719 1.98903 1.31254L8.06278 7.3866C8.20342 7.52725 8.28243 7.71801 8.28243 7.91691C8.28243 8.11582 8.20342 8.30658 8.06278 8.44723L1.98903 14.5207C1.84838 14.6613 1.65762 14.7403 1.45872 14.7403C1.25981 14.7403 1.06905 14.6613 0.928403 14.5207Z"/>
</g>
<defs>
<clipPath id="clip0">
<rect width="20" height="16" fill="inherit"/>
</clipPath>
</defs>
</svg>
