<svg width="14" height="14" viewBox="0 0 14 14" fill="inherit" xmlns="http://www.w3.org/2000/svg">
<path d="M13.3121 12.3226L10.2771 9.2876C10.2196 9.2301 10.1446 9.2001 10.0646 9.2001H9.73461C10.5221 8.2876 10.9996 7.1001 10.9996 5.8001C10.9996 2.9276 8.67211 0.600098 5.79961 0.600098C2.92711 0.600098 0.599609 2.9276 0.599609 5.8001C0.599609 8.6726 2.92711 11.0001 5.79961 11.0001C7.09961 11.0001 8.28711 10.5226 9.19961 9.7351V10.0651C9.19961 10.1451 9.23211 10.2201 9.28711 10.2776L12.3221 13.3126C12.4396 13.4301 12.6296 13.4301 12.7471 13.3126L13.3121 12.7476C13.4296 12.6301 13.4296 12.4401 13.3121 12.3226ZM5.79961 9.8001C3.58961 9.8001 1.79961 8.0101 1.79961 5.8001C1.79961 3.5901 3.58961 1.8001 5.79961 1.8001C8.00961 1.8001 9.79961 3.5901 9.79961 5.8001C9.79961 8.0101 8.00961 9.8001 5.79961 9.8001Z" fill="inherit"/>
</svg>
