<svg width="14" height="16" viewBox="0 0 14 16" fill="none" xmlns="http://www.w3.org/2000/svg">
<path d="M13.625 3.875H0.375C0.167906 3.875 0 3.70709 0 3.5V2.5C0 2.29291 0.167906 2.125 0.375 2.125H13.625C13.8321 2.125 14 2.29291 14 2.5V3.5C14 3.70709 13.8321 3.875 13.625 3.875ZM13.625 8.875H0.375C0.167906 8.875 0 8.70709 0 8.5V7.5C0 7.29291 0.167906 7.125 0.375 7.125H13.625C13.8321 7.125 14 7.29291 14 7.5V8.5C14 8.70709 13.8321 8.875 13.625 8.875ZM13.625 13.875H0.375C0.167906 13.875 0 13.7071 0 13.5V12.5C0 12.2929 0.167906 12.125 0.375 12.125H13.625C13.8321 12.125 14 12.2929 14 12.5V13.5C14 13.7071 13.8321 13.875 13.625 13.875Z" fill="white"/>
</svg>
