<svg width="16" height="16" viewBox="0 0 16 16" fill="none" xmlns="http://www.w3.org/2000/svg">
<path fill="gray" opacity="1" d="M10 1L9.5 0L9 1L8 1.5L9 2L9.5 3L10 2L11 1.5L10 1ZM14.3344 5.66563L13.5 4L12.6656 5.66563L11 6.5L12.6656 7.33437L13.5 9L14.3344 7.33437L16 6.5L14.3344 5.66563Z"/>
<path d="M10.3813 13.325C10.6344 13.275 10.8156 13.575 10.65 13.7781C10.0892 14.4729 9.37986 15.0331 8.57407 15.4176C7.76829 15.8021 6.88657 16.0011 5.99375 16C2.68125 16 0 13.3125 0 10C0 6.25001 3.39687 3.41876 7.09375 4.10001C7.35 4.15001 7.40938 4.49376 7.18125 4.62189C6.45878 5.03202 5.85802 5.62644 5.44024 6.34451C5.02246 7.06259 4.80261 7.87863 4.80312 8.70939C4.80312 11.6469 7.47188 13.8781 10.3813 13.325Z" fill="black"/>
</svg>
