<svg width="13" height="14" viewBox="0 0 13 14" fill="none" xmlns="http://www.w3.org/2000/svg">
  <path d="M6.30156 0.800049C2.87656 0.800049 0.101562 3.57505 0.101562 7.00005C0.101562 10.425 2.87656 13.2 6.30156 13.2C9.72656 13.2 12.5016 10.425 12.5016 7.00005C12.5016 3.57505 9.72656 0.800049 6.30156 0.800049ZM6.30156 12C3.53906 12 1.30156 9.76255 1.30156 7.00005C1.30156 4.23755 3.53906 2.00005 6.30156 2.00005C9.06406 2.00005 11.3016 4.23755 11.3016 7.00005C11.3016 9.76255 9.06406 12 6.30156 12ZM8.70156 5.00005V9.00005C8.70156 9.22005 8.52156 9.40005 8.30156 9.40005H7.10156C6.88156 9.40005 6.70156 9.22005 6.70156 9.00005V5.00005C6.70156 4.78005 6.88156 4.60005 7.10156 4.60005H8.30156C8.52156 4.60005 8.70156 4.78005 8.70156 5.00005ZM5.90156 5.00005V9.00005C5.90156 9.22005 5.72156 9.40005 5.50156 9.40005H4.30156C4.08156 9.40005 3.90156 9.22005 3.90156 9.00005V5.00005C3.90156 4.78005 4.08156 4.60005 4.30156 4.60005H5.50156C5.72156 4.60005 5.90156 4.78005 5.90156 5.00005Z" fill="white"/>
</svg>
