<svg width="21" height="16" viewBox="0 0 21 16" xmlns="http://www.w3.org/2000/svg">
<path opacity="0.4" fill="inherit" d="M2.00227 7.49843C1.60626 7.49843 1.21914 7.61586 0.889869 7.83587C0.560597 8.05588 0.303962 8.36859 0.152415 8.73446C0.000867545 9.10033 -0.0387841 9.50292 0.0384739 9.89132C0.115732 10.2797 0.30643 10.6365 0.586452 10.9165C0.866474 11.1965 1.22324 11.3872 1.61165 11.4645C2.00005 11.5418 2.40264 11.5021 2.76851 11.3506C3.13437 11.199 3.44708 10.9424 3.6671 10.6131C3.88711 10.2838 4.00454 9.89671 4.00454 9.5007C4.00404 8.96981 3.79293 8.46082 3.41754 8.08543C3.04215 7.71004 2.53315 7.49892 2.00227 7.49843ZM4.75539 10.0013H6.25709V9.00013H4.75539V10.0013ZM13.9658 6.65998L14.5665 7.46089L16.0682 6.33461L15.4675 5.5337L13.9658 6.65998ZM18.0204 1.99219C17.6244 1.99219 17.2373 2.10962 16.908 2.32963C16.5788 2.54964 16.3221 2.86235 16.1706 3.22822C16.019 3.59409 15.9794 3.99668 16.0566 4.38508C16.1339 4.77348 16.3246 5.13025 16.6046 5.41027C16.8846 5.6903 17.2414 5.88099 17.6298 5.95825C18.0182 6.03551 18.4208 5.99586 18.7867 5.84431C19.1525 5.69276 19.4652 5.43613 19.6852 5.10686C19.9053 4.77759 20.0227 4.39047 20.0227 3.99446C20.0222 3.46357 19.8111 2.95458 19.4357 2.57919C19.0603 2.2038 18.5513 1.99268 18.0204 1.99219Z"/>
<path fill="inherit" d="M18.0203 12.0036C17.5874 12.0057 17.1669 12.1485 16.8221 12.4103L13.8187 10.6083C13.9451 10.2514 14.0117 9.87617 14.0158 9.49763C14.016 9.03742 13.9256 8.58166 13.7496 8.15643C13.5736 7.7312 13.3155 7.34482 12.9901 7.0194C12.6646 6.69398 12.2783 6.43589 11.853 6.25988C11.4278 6.08388 10.972 5.99341 10.5118 5.99366C10.2548 5.99494 9.99866 6.02538 9.74846 6.08439L8.47201 3.35004C8.78274 3.01253 8.9678 2.57834 8.9961 2.12045C9.02439 1.66257 8.8942 1.20889 8.62739 0.835696C8.36058 0.462498 7.97343 0.192526 7.53102 0.0711601C7.0886 -0.0502059 6.61789 -0.0155669 6.198 0.169254C5.77811 0.354076 5.43465 0.677812 5.22535 1.08605C5.01605 1.49428 4.95366 1.96212 5.04868 2.41094C5.1437 2.85975 5.39033 3.26217 5.74712 3.55056C6.1039 3.83895 6.54909 3.99572 7.00785 3.99452C7.04227 3.99452 7.07355 3.98514 7.10796 3.98514L8.39067 6.732C7.55535 7.37022 7.00785 8.36823 7.00785 9.50076C7.00603 10.2023 7.2154 10.8882 7.60872 11.4692C8.00204 12.0501 8.56111 12.4993 9.21318 12.7581C9.86525 13.017 10.5801 13.0736 11.2648 12.9206C11.9495 12.7677 12.5723 12.4121 13.0522 11.9004L16.0493 13.6993C15.9875 14.1029 16.0508 14.5158 16.2308 14.8823C16.4107 15.2489 16.6986 15.5515 17.0557 15.7494C17.4129 15.9474 17.8221 16.0312 18.2283 15.9896C18.6345 15.9479 19.0182 15.7829 19.3277 15.5166C19.6372 15.2503 19.8578 14.8955 19.9596 14.5001C20.0614 14.1047 20.0397 13.6875 19.8972 13.3049C19.7548 12.9222 19.4986 12.5923 19.163 12.3597C18.8274 12.127 18.4287 12.0027 18.0203 12.0036ZM10.5118 11.0025C10.2148 11.0025 9.92448 10.9144 9.67752 10.7494C9.43057 10.5844 9.23809 10.3498 9.12443 10.0754C9.01077 9.80104 8.98103 9.49909 9.03898 9.20779C9.09692 8.91649 9.23994 8.64891 9.44996 8.4389C9.65998 8.22888 9.92755 8.08586 10.2189 8.02791C10.5102 7.96997 10.8121 7.99971 11.0865 8.11337C11.3609 8.22703 11.5954 8.41951 11.7604 8.66646C11.9255 8.91341 12.0135 9.20375 12.0135 9.50076C12.0135 9.89904 11.8553 10.281 11.5737 10.5626C11.2921 10.8442 10.9101 11.0025 10.5118 11.0025Z"/>
</svg>
