<svg width="14" height="14" viewBox="0 0 14 14" fill="none" xmlns="http://www.w3.org/2000/svg">
  <path d="M9.89255 6.54999L5.49255 3.875C5.09755 3.655 4.60005 3.9375 4.60005 4.4V9.59999C4.60005 10.06 5.09505 10.345 5.49255 10.125L9.89255 7.6C10.3025 7.3725 10.3025 6.77999 9.89255 6.54999ZM13.2 7C13.2 3.575 10.425 0.799995 7.00005 0.799995C3.57505 0.799995 0.800049 3.575 0.800049 7C0.800049 10.425 3.57505 13.2 7.00005 13.2C10.425 13.2 13.2 10.425 13.2 7ZM2.00005 7C2.00005 4.2375 4.23755 2 7.00005 2C9.76255 2 12 4.2375 12 7C12 9.7625 9.76255 12 7.00005 12C4.23755 12 2.00005 9.7625 2.00005 7Z" fill="white"/>
</svg>
