<svg width="14" height="14" viewBox="0 0 14 14" fill="none" xmlns="http://www.w3.org/2000/svg">
<g clip-path="url(#clip0)">
<path d="M7.00005 0.800003C3.57612 0.800003 0.800049 3.57708 0.800049 7C0.800049 10.4249 3.57612 13.2 7.00005 13.2C10.424 13.2 13.2 10.4249 13.2 7C13.2 3.57708 10.424 0.800003 7.00005 0.800003ZM7.00005 12C4.23675 12 2.00005 9.76423 2.00005 7C2.00005 4.23763 4.23685 2 7.00005 2C9.76232 2 12 4.23678 12 7C12 9.76325 9.76427 12 7.00005 12ZM9.68115 5.62C9.68115 7.2963 7.87062 7.3221 7.87062 7.94158V8.1C7.87062 8.26568 7.7363 8.4 7.57062 8.4H6.42945C6.26377 8.4 6.12945 8.26568 6.12945 8.1V7.88353C6.12945 6.9899 6.80695 6.63268 7.31892 6.34563C7.75795 6.0995 8.02702 5.9321 8.02702 5.60615C8.02702 5.175 7.47705 4.88883 7.03242 4.88883C6.4527 4.88883 6.18507 5.16325 5.80887 5.63805C5.70745 5.76605 5.52237 5.78983 5.39222 5.69115L4.69662 5.1637C4.56895 5.0669 4.54035 4.88705 4.63052 4.75463C5.2212 3.88728 5.97355 3.4 7.1449 3.4C8.37167 3.4 9.68115 4.3576 9.68115 5.62V5.62ZM8.05005 9.8C8.05005 10.379 7.57902 10.85 7.00005 10.85C6.42107 10.85 5.95005 10.379 5.95005 9.8C5.95005 9.22103 6.42107 8.75 7.00005 8.75C7.57902 8.75 8.05005 9.22103 8.05005 9.8Z" fill="var(--foreground)"/>
</g>
<defs>
<clipPath id="clip0">
<rect width="12.8" height="12.8" fill="var(--foreground)" transform="translate(0.600098 0.600006)"/>
</clipPath>
</defs>
</svg>
