<svg width="16" height="16" viewBox="0 0 16 16" fill="inherit" xmlns="http://www.w3.org/2000/svg">
  <path opacity="0.4" fill="var(--foreground)" d="M13.2081 13.2081C13.2431 13.2429 13.2708 13.2843 13.2898 13.3299C13.3087 13.3755 13.3184 13.4244 13.3184 13.4737C13.3184 13.5231 13.3087 13.572 13.2898 13.6175C13.2708 13.6631 13.2431 13.7045 13.2081 13.7394L13.1928 13.7537C11.77 15.0412 9.91884 15.7528 8 15.75C3.71875 15.75 0.25 12.2812 0.25 7.99998C0.25 3.72467 3.73906 0.242482 8.01437 0.249982C10.0041 0.250955 11.9167 1.01992 13.3534 2.39654L11.5841 4.16404C10.6257 3.26304 9.36195 2.75789 8.04656 2.74998C5.15906 2.72529 2.72531 5.06248 2.75 8.04529C2.77375 10.875 5.06813 13.25 8 13.25C9.27229 13.2536 10.502 12.7916 11.4572 11.9512C11.5288 11.8888 11.6215 11.8559 11.7164 11.8591C11.8114 11.8624 11.9016 11.9016 11.9688 11.9687L13.2081 13.2081Z"/>
  <path fill="var(--foreground)" d="M15.7497 1.81062V5.99999C15.7497 6.19891 15.6707 6.38967 15.5301 6.53032C15.3894 6.67098 15.1987 6.74999 14.9997 6.74999H10.8104C10.1423 6.74999 9.80756 5.94218 10.2791 5.46874L14.4685 1.28124C14.9419 0.807806 15.7497 1.14249 15.7497 1.81062Z"/>
</svg>
