<svg width="20"
     height="21"
     viewBox="0 0 20 21"
     xmlns="http://www.w3.org/2000/svg">
  <g clip-path="url(#clip0)">
    <path opacity="0.4"
          d="M19.5312 15.7188C19.6556 15.7188 19.7748 15.7681 19.8627 15.856C19.9506 15.944 20 16.0632 20 16.1875V17.75C20 17.8743 19.9506 17.9935 19.8627 18.0815C19.7748 18.1694 19.6556 18.2188 19.5312 18.2188H0.46875C0.34443 18.2188 0.225201 18.1694 0.137294 18.0815C0.049386 17.9935 0 17.8743 0 17.75L0 3.6875C0 3.56318 0.049386 3.44395 0.137294 3.35604C0.225201 3.26814 0.34443 3.21875 0.46875 3.21875H2.03125C2.15557 3.21875 2.2748 3.26814 2.36271 3.35604C2.45061 3.44395 2.5 3.56318 2.5 3.6875V15.7188H19.5312Z"
          fill="inherit"/>
    <path d="M15.2383 7.13258L18.75 14.4685H3.75V10.406L7.14062 4.75367C7.18024 4.68775 7.23546 4.63259 7.30143 4.59306C7.36739 4.55352 7.44208 4.53082 7.51889 4.52696C7.5957 4.5231 7.67228 4.5382 7.74187 4.57092C7.81147 4.60365 7.87195 4.653 7.91797 4.71461L11.25 9.15602L14.5586 6.94899C14.6141 6.91216 14.6768 6.88759 14.7426 6.87691C14.8084 6.86623 14.8756 6.8697 14.94 6.88707C15.0043 6.90444 15.0641 6.93532 15.1156 6.97766C15.167 7.01999 15.2089 7.07281 15.2383 7.13258Z"
          fill="inherit"/>
  </g>
  <defs>
    <clipPath id="clip0">
      <rect width="20"
            height="20"
            fill="inherit"
            transform="translate(0 0.71875)"/>
    </clipPath>
  </defs>
</svg>
