<svg width="20" height="20" viewBox="0 0 20 20" xmlns="http://www.w3.org/2000/svg">
<g clip-path="url(#clip0)">
<path opacity="0.4" fill="inherit" d="M13 12C12.8022 12 12.6089 12.0586 12.4444 12.1685C12.28 12.2784 12.1518 12.4346 12.0761 12.6173C12.0004 12.8 11.9806 13.0011 12.0192 13.1951C12.0578 13.3891 12.153 13.5673 12.2929 13.7071C12.4327 13.847 12.6109 13.9422 12.8049 13.9808C12.9989 14.0194 13.2 13.9996 13.3827 13.9239C13.5654 13.8482 13.7216 13.72 13.8315 13.5556C13.9414 13.3911 14 13.1978 14 13C14 12.7348 13.8946 12.4804 13.7071 12.2929C13.5196 12.1054 13.2652 12 13 12ZM18.4963 9.24438L15.4453 4.66781C15.3083 4.46236 15.1227 4.29391 14.905 4.17742C14.6873 4.06092 14.4441 3.99998 14.1972 4H5.80281C5.55587 3.99998 5.31275 4.06092 5.09502 4.17742C4.87729 4.29391 4.69169 4.46236 4.55469 4.66781L1.50375 9.24438C1.17526 9.73718 0.999978 10.3162 1 10.9084L1 11.5C1 11.1022 1.15804 10.7206 1.43934 10.4393C1.72064 10.158 2.10218 10 2.5 10H17.5C17.8978 10 18.2794 10.158 18.5607 10.4393C18.842 10.7206 19 11.1022 19 11.5V10.9084C19 10.3162 18.8247 9.73718 18.4963 9.24438Z"/>
<path fill="inherit" d="M17.5 10H2.5C2.10218 10 1.72064 10.158 1.43934 10.4393C1.15804 10.7206 1 11.1022 1 11.5L1 14.5C1 14.8978 1.15804 15.2794 1.43934 15.5607C1.72064 15.842 2.10218 16 2.5 16H17.5C17.8978 16 18.2794 15.842 18.5607 15.5607C18.842 15.2794 19 14.8978 19 14.5V11.5C19 11.1022 18.842 10.7206 18.5607 10.4393C18.2794 10.158 17.8978 10 17.5 10ZM13 14C12.8022 14 12.6089 13.9414 12.4444 13.8315C12.28 13.7216 12.1518 13.5654 12.0761 13.3827C12.0004 13.2 11.9806 12.9989 12.0192 12.8049C12.0578 12.6109 12.153 12.4327 12.2929 12.2929C12.4327 12.153 12.6109 12.0578 12.8049 12.0192C12.9989 11.9806 13.2 12.0004 13.3827 12.0761C13.5654 12.1518 13.7216 12.28 13.8315 12.4444C13.9414 12.6089 14 12.8022 14 13C14 13.2652 13.8946 13.5196 13.7071 13.7071C13.5196 13.8946 13.2652 14 13 14ZM16 14C15.8022 14 15.6089 13.9414 15.4444 13.8315C15.28 13.7216 15.1518 13.5654 15.0761 13.3827C15.0004 13.2 14.9806 12.9989 15.0192 12.8049C15.0578 12.6109 15.153 12.4327 15.2929 12.2929C15.4327 12.153 15.6109 12.0578 15.8049 12.0192C15.9989 11.9806 16.2 12.0004 16.3827 12.0761C16.5654 12.1518 16.7216 12.28 16.8315 12.4444C16.9414 12.6089 17 12.8022 17 13C17 13.2652 16.8946 13.5196 16.7071 13.7071C16.5196 13.8946 16.2652 14 16 14Z"/>
</g>
<defs>
<clipPath id="clip0">
<rect width="18" height="16" fill="inherit" transform="translate(1 2)"/>
</clipPath>
</defs>
</svg>
