<svg width="16" height="16" viewBox="0 0 16 16" fill="none" xmlns="http://www.w3.org/2000/svg">
<path opacity="0.4" d="M15.7007 7.51563L12.7414 6.0375L13.7882 2.9C13.9289 2.475 13.5257 2.07187 13.1039 2.21562L9.96637 3.2625L8.48481 0.299996C8.43999 0.209855 8.37091 0.134009 8.28534 0.0809884C8.19977 0.0279681 8.1011 -0.00012207 8.00043 -0.00012207C7.89976 -0.00012207 7.8011 0.0279681 7.71552 0.0809884C7.62995 0.134009 7.56087 0.209855 7.51606 0.299996L6.03793 3.25937L2.89699 2.2125C2.47199 2.07187 2.06887 2.475 2.21262 2.89687L3.25949 6.03438L0.300118 7.51563C0.209977 7.56045 0.134131 7.62953 0.0811104 7.7151C0.0280902 7.80067 0 7.89934 0 8.00001C0 8.10067 0.0280902 8.19934 0.0811104 8.28491C0.134131 8.37049 0.209977 8.43957 0.300118 8.48438L3.25949 9.96251L2.21262 13.1031C2.07199 13.5281 2.47512 13.9313 2.89699 13.7875L6.03481 12.7406L7.51293 15.7C7.55775 15.7902 7.62683 15.866 7.7124 15.919C7.79797 15.972 7.89664 16.0001 7.99731 16.0001C8.09797 16.0001 8.19664 15.972 8.28221 15.919C8.36778 15.866 8.43686 15.7902 8.48168 15.7L9.96012 12.7406L13.0976 13.7875C13.5226 13.9281 13.9257 13.525 13.782 13.1031L12.7351 9.96563L15.6945 8.48751C15.7856 8.44343 15.8625 8.37473 15.9165 8.28919C15.9705 8.20365 15.9995 8.10468 16.0001 8.00351C16.0008 7.90234 15.9731 7.80302 15.9202 7.71679C15.8672 7.63056 15.7912 7.56087 15.7007 7.51563ZM10.8289 10.8281C9.26918 12.3875 6.73168 12.3875 5.17262 10.8281C4.42365 10.0775 4.00303 9.0604 4.00303 8.00001C4.00303 6.93962 4.42365 5.92253 5.17262 5.17188C6.73199 3.6125 9.26949 3.6125 10.8289 5.17188C11.5778 5.92253 11.9985 6.93962 11.9985 8.00001C11.9985 9.0604 11.5778 10.0775 10.8289 10.8281Z" fill="white"/>
<path d="M11 7.99999C11 8.59334 10.8241 9.17335 10.4944 9.6667C10.1648 10.16 9.69623 10.5446 9.14805 10.7716C8.59987 10.9987 7.99667 11.0581 7.41473 10.9423C6.83279 10.8266 6.29824 10.5409 5.87868 10.1213C5.45912 9.70175 5.1734 9.1672 5.05765 8.58526C4.94189 8.00332 5.0013 7.40012 5.22836 6.85195C5.45543 6.30377 5.83994 5.83523 6.33329 5.50559C6.82664 5.17595 7.40666 5 8 5C8.79527 5.00124 9.55761 5.31771 10.12 5.88005C10.6823 6.44239 10.9988 7.20473 11 7.99999Z" fill="white"/>
</svg>
