<svg width="23" height="20" viewBox="0 0 23 20" xmlns="http://www.w3.org/2000/svg">
<g clip-path="url(#clip0)">
<path opacity="0.4" fill="inherit" d="M22.1335 9.11602C22.3678 9.35043 22.4995 9.66833 22.4995 9.9998C22.4995 10.3313 22.3678 10.6492 22.1335 10.8836L20.3659 12.6512C20.2496 12.7672 20.1574 12.9051 20.0944 13.0568C20.0315 13.2086 19.9991 13.3713 19.9991 13.5355V15C19.9991 15.9946 19.604 16.9484 18.9007 17.6517C18.1974 18.3549 17.2436 18.75 16.249 18.75H14.374C14.2083 18.75 14.0493 18.6842 13.9321 18.5669C13.8149 18.4497 13.749 18.2908 13.749 18.125V16.875C13.749 16.7092 13.8149 16.5503 13.9321 16.4331C14.0493 16.3158 14.2083 16.25 14.374 16.25H16.249C16.5806 16.25 16.8985 16.1183 17.1329 15.8839C17.3674 15.6495 17.499 15.3315 17.499 15V13.5359C17.4991 13.0434 17.5961 12.5557 17.7847 12.1007C17.9732 11.6456 18.2495 11.2322 18.5979 10.884L19.4819 10L18.5983 9.11641C18.2498 8.76813 17.9733 8.35459 17.7847 7.89942C17.5961 7.44425 17.499 6.95637 17.499 6.46367V5C17.499 4.66848 17.3674 4.35054 17.1329 4.11612C16.8985 3.8817 16.5806 3.75 16.249 3.75H14.374C14.2083 3.75 14.0493 3.68415 13.9321 3.56694C13.8149 3.44973 13.749 3.29076 13.749 3.125V1.875C13.749 1.70924 13.8149 1.55027 13.9321 1.43306C14.0493 1.31585 14.2083 1.25 14.374 1.25H16.249C17.2436 1.25 18.1974 1.64509 18.9007 2.34835C19.604 3.05161 19.9991 4.00544 19.9991 5V6.46406C19.999 6.62838 20.0313 6.79111 20.0942 6.94292C20.1571 7.09474 20.2492 7.23267 20.3655 7.34883L22.1331 9.11602H22.1335Z"/>
<path fill="inherit" d="M8.12461 1.25H6.24962C5.25505 1.25 4.30123 1.64509 3.59796 2.34835C2.8947 3.05161 2.49962 4.00544 2.49962 5V6.46406C2.49926 6.79583 2.36752 7.11395 2.13321 7.34883L0.366022 9.11602C0.131659 9.35043 0 9.66833 0 9.9998C0 10.3313 0.131659 10.6492 0.366022 10.8836L2.1336 12.6512C2.36792 12.8859 2.49956 13.2039 2.49962 13.5355V15C2.49962 15.9946 2.8947 16.9484 3.59796 17.6517C4.30123 18.3549 5.25505 18.75 6.24962 18.75H8.12461C8.29037 18.75 8.44935 18.6842 8.56656 18.5669C8.68377 18.4497 8.74961 18.2908 8.74961 18.125V16.875C8.74961 16.7092 8.68377 16.5503 8.56656 16.4331C8.44935 16.3158 8.29037 16.25 8.12461 16.25H6.24962C5.91809 16.25 5.60015 16.1183 5.36573 15.8839C5.13131 15.6495 4.99961 15.3315 4.99961 15V13.5359C4.99959 13.0434 4.90254 12.5557 4.714 12.1007C4.52546 11.6456 4.24913 11.2322 3.90079 10.884L3.01758 10L3.90157 9.11602C4.24977 8.76774 4.52596 8.35428 4.71436 7.89925C4.90276 7.44423 4.99969 6.95655 4.99961 6.46406V5C4.99961 4.66848 5.13131 4.35054 5.36573 4.11612C5.60015 3.8817 5.91809 3.75 6.24962 3.75H8.12461C8.29037 3.75 8.44935 3.68415 8.56656 3.56694C8.68377 3.44973 8.74961 3.29076 8.74961 3.125V1.875C8.74961 1.70924 8.68377 1.55027 8.56656 1.43306C8.44935 1.31585 8.29037 1.25 8.12461 1.25Z"/>
</g>
<defs>
<clipPath id="clip0">
<rect width="22.5" height="20" fill="inherit"/>
</clipPath>
</defs>
</svg>
