<svg width="8" height="8" viewBox="0 0 8 8" fill="none" xmlns="http://www.w3.org/2000/svg">
<path d="M4.8485 4L7.4125 1.436L7.94125 0.90725C8.01925 0.82925 8.01925 0.7025 7.94125 0.6245L7.3755 0.05875C7.2975 -0.0192499 7.17075 -0.0192499 7.09275 0.05875L4 3.1515L0.90725 0.0585C0.82925 -0.0195 0.7025 -0.0195 0.6245 0.0585L0.0585 0.62425C-0.0195 0.70225 -0.0195 0.829 0.0585 0.907L3.1515 4L0.0585 7.09275C-0.0195 7.17075 -0.0195 7.2975 0.0585 7.3755L0.62425 7.94125C0.70225 8.01925 0.829 8.01925 0.907 7.94125L4 4.8485L6.564 7.4125L7.09275 7.94125C7.17075 8.01925 7.2975 8.01925 7.3755 7.94125L7.94125 7.3755C8.01925 7.2975 8.01925 7.17075 7.94125 7.09275L4.8485 4Z" fill="var(--foreground)"/>
</svg>
