<svg width="14" height="12" viewBox="0 0 14 12" fill="none" xmlns="http://www.w3.org/2000/svg">
<g clip-path="url(#clip0)">
<path d="M5.83001 4.79777L5.98442 7.42277C5.99316 7.57144 6.11628 7.6875 6.26518 7.6875H7.23478C7.30652 7.6875 7.37554 7.66009 7.42772 7.61088C7.47991 7.56167 7.51133 7.49438 7.51554 7.42277L7.66995 4.79777C7.67944 4.63622 7.551 4.5 7.38919 4.5H6.11075C5.94896 4.5 5.82052 4.63622 5.83001 4.79777ZM7.73438 9C7.73438 9.54366 7.29366 9.98438 6.75 9.98438C6.20635 9.98438 5.76563 9.54366 5.76563 9C5.76563 8.45634 6.20635 8.01562 6.75 8.01562C7.29366 8.01562 7.73438 8.45634 7.73438 9ZM7.72446 0.562149C7.29244 -0.186703 6.20836 -0.188062 5.77554 0.562149L0.151808 10.3128C-0.279957 11.0612 0.260582 12 1.12627 12H12.3736C13.2376 12 13.7807 11.0627 13.3481 10.3128L7.72446 0.562149ZM1.24667 10.6641L6.6282 1.33613C6.68232 1.24233 6.81769 1.24233 6.87181 1.33613L12.2533 10.6641C12.3074 10.7578 12.2398 10.875 12.1315 10.875H1.36847C1.26026 10.875 1.1926 10.7579 1.24667 10.6641Z" fill="var(--foreground)"/>
</g>
<defs>
<clipPath id="clip0">
<rect width="13.5" height="12" fill="var(--foreground)"/>
</clipPath>
</defs>
</svg>
