<svg width="16" height="16" viewBox="0 0 16 16" fill="none" xmlns="http://www.w3.org/2000/svg">
<g opacity="1">
<g clip-path="url(#clip0)">
<path d="M8.38778 13.1071L8.85182 12.643C8.96165 12.5332 8.96165 12.3551 8.85182 12.2453L5.21596 8.60942H13.2183C13.3736 8.60942 13.4995 8.48349 13.4995 8.32817V7.67192C13.4995 7.5166 13.3736 7.39067 13.2183 7.39067H5.21596L8.85182 3.75481C8.96165 3.64499 8.96165 3.46691 8.85182 3.35706L8.38778 2.89304C8.27795 2.78321 8.09987 2.78321 7.99002 2.89304L3.08188 7.80118C2.97205 7.91101 2.97205 8.08909 3.08188 8.19894L7.99002 13.1071C8.09985 13.2169 8.27793 13.2169 8.38778 13.1071Z" fill="gray"/>
</g>
</g>
<defs>
<clipPath id="clip0">
<rect width="10.5" height="12" fill="white" transform="translate(3 2)"/>
</clipPath>
</defs>
</svg>
