<svg width="16" height="16" viewBox="0 0 16 16" fill="none" xmlns="http://www.w3.org/2000/svg">
<path d="M15.0365 5.13507C15.6452 5.93751 16.0052 6.93847 16.0002 8.02219C15.988 10.6448 13.824 12.7499 11.2014 12.7499H5.50023V14.7499C5.5002 15.0837 5.09558 15.2505 4.86008 15.015L2.11008 12.2652C1.96364 12.1188 1.96361 11.8813 2.11008 11.7348L4.86008 8.98469C5.09695 8.74782 5.50023 8.91782 5.50023 9.24985V11.2498H11.2086C12.9981 11.2499 14.5021 9.78594 14.5002 7.99641C14.4995 7.29729 14.2768 6.64919 13.8991 6.11885C13.7919 5.96832 13.8065 5.76301 13.9373 5.63248C14.1957 5.37451 14.362 5.2092 14.4728 5.09798C14.6332 4.93698 14.8992 4.95407 15.0365 5.13507ZM1.50023 8.00335C1.49836 6.21382 3.00233 4.74988 4.79186 4.74988H10.5002V6.74988C10.5002 7.08191 10.9035 7.25194 11.1404 7.01504L13.8904 4.26488C14.0369 4.11845 14.0368 3.88098 13.8904 3.73454L11.1404 0.9847C10.9049 0.749231 10.5003 0.916043 10.5002 1.24989V3.24988H4.79911C2.17645 3.24988 0.0123893 5.35494 0.000295557 7.97757C-0.00470444 9.06129 0.355233 10.0623 0.96392 10.8647C1.10123 11.0457 1.3673 11.0628 1.52764 10.9018C1.63842 10.7906 1.80473 10.6253 2.06317 10.3673C2.19395 10.2367 2.20858 10.0314 2.10139 9.88091C1.72364 9.35057 1.50098 8.70247 1.50023 8.00335Z" fill="white"/>
</svg>
