<svg width="16" height="16" viewBox="0 0 16 16" fill="none" xmlns="http://www.w3.org/2000/svg">
<path d="M0.25 8C0.25 12.2812 3.71875 15.75 8 15.75C12.2812 15.75 15.75 12.2812 15.75 8C15.75 3.71875 12.2812 0.25 8 0.25C3.71875 0.25 0.25 3.71875 0.25 8ZM14.25 8C14.25 11.4531 11.4531 14.25 8 14.25C4.54688 14.25 1.75 11.4531 1.75 8C1.75 4.54688 4.54688 1.75 8 1.75C11.4531 1.75 14.25 4.54688 14.25 8ZM8.34062 3.94062L12.1344 7.73438C12.2812 7.88125 12.2812 8.11875 12.1344 8.26562L8.34062 12.0594C8.19375 12.2063 7.95625 12.2063 7.80937 12.0594L7.19688 11.4469C7.04688 11.2969 7.05 11.0563 7.20312 10.9094L9.4 8.8125H4.375C4.16875 8.8125 4 8.64375 4 8.4375V7.5625C4 7.35625 4.16875 7.1875 4.375 7.1875H9.4L7.20312 5.09062C7.05 4.94375 7.04688 4.70312 7.19688 4.55312L7.80937 3.94062C7.95625 3.79375 8.19375 3.79375 8.34062 3.94062Z" fill="white"/>
</svg>
