<svg width="16" height="16" viewBox="0 0 16 16" fill="none" xmlns="http://www.w3.org/2000/svg">
<g opacity="1">
<g clip-path="url(#clip0)">
<path d="M8.11174 2.89306L7.6477 3.3571C7.53788 3.46692 7.53788 3.645 7.6477 3.75485L11.2836 7.39069H3.28125C3.12593 7.39069 3 7.51662 3 7.67194V8.32819C3 8.48351 3.12593 8.60944 3.28125 8.60944H11.2836L7.6477 12.2453C7.53788 12.3551 7.53788 12.5332 7.6477 12.6431L8.11174 13.1071C8.22157 13.2169 8.39965 13.2169 8.5095 13.1071L13.4176 8.19896C13.5275 8.08913 13.5275 7.91105 13.4176 7.8012L8.50948 2.89306C8.39965 2.78321 8.22157 2.78321 8.11174 2.89306Z" fill="gray"/>
</g>
</g>
<defs>
<clipPath id="clip0">
<rect width="10.5" height="12" fill="white" transform="translate(3 2)"/>
</clipPath>
</defs>
</svg>
