<svg width="16" height="14" viewBox="0 0 16 14" fill="none" xmlns="http://www.w3.org/2000/svg">
<path opacity="0.4" d="M13 7.5C12.8022 7.5 12.6089 7.55865 12.4444 7.66853C12.28 7.77841 12.1518 7.93459 12.0761 8.11732C12.0004 8.30004 11.9806 8.50111 12.0192 8.69509C12.0578 8.88907 12.153 9.06725 12.2929 9.20711C12.4327 9.34696 12.6109 9.4422 12.8049 9.48079C12.9989 9.51937 13.2 9.49957 13.3827 9.42388C13.5654 9.34819 13.7216 9.22002 13.8315 9.05557C13.9414 8.89112 14 8.69778 14 8.5C14 8.23478 13.8946 7.98043 13.7071 7.79289C13.5196 7.60536 13.2652 7.5 13 7.5ZM13.5 0H2C1.46957 0 0.960859 0.210714 0.585786 0.585786C0.210714 0.960859 0 1.46957 0 2C0 2.26522 0.105357 2.51957 0.292893 2.70711C0.48043 2.89464 0.734784 3 1 3H2.5C2.36739 3 2.24021 2.94732 2.14645 2.85355C2.05268 2.75979 2 2.63261 2 2.5C2 2.36739 2.05268 2.24021 2.14645 2.14645C2.24021 2.05268 2.36739 2 2.5 2H14.5C14.6326 2 14.7598 1.94732 14.8536 1.85355C14.9473 1.75979 15 1.63261 15 1.5C15 1.10218 14.842 0.720644 14.5607 0.43934C14.2794 0.158035 13.8978 0 13.5 0Z" fill="white"/>
<path d="M14.4125 3H1C0.734784 3 0.48043 2.89464 0.292893 2.70711C0.105357 2.51957 0 2.26522 0 2V12C0 12.5304 0.210714 13.0391 0.585786 13.4142C0.960859 13.7893 1.46957 14 2 14H14.4125C15.2875 14 16 13.3272 16 12.5V4.5C16 3.67281 15.2881 3 14.4125 3ZM13 9.5C12.8022 9.5 12.6089 9.44135 12.4444 9.33147C12.28 9.22159 12.1518 9.06541 12.0761 8.88268C12.0004 8.69996 11.9806 8.49889 12.0192 8.30491C12.0578 8.11093 12.153 7.93275 12.2929 7.79289C12.4327 7.65304 12.6109 7.5578 12.8049 7.51921C12.9989 7.48063 13.2 7.50043 13.3827 7.57612C13.5654 7.65181 13.7216 7.77998 13.8315 7.94443C13.9414 8.10888 14 8.30222 14 8.5C14 8.76522 13.8946 9.01957 13.7071 9.20711C13.5196 9.39464 13.2652 9.5 13 9.5Z" fill="white"/>
</svg>
