<svg width="16" height="16" viewBox="0 0 16 16" fill="none" xmlns="http://www.w3.org/2000/svg">
  <path d="M8 0.25C3.71875 0.25 0.25 3.71875 0.25 8C0.25 12.2812 3.71875 15.75 8 15.75C12.2812 15.75 15.75 12.2812 15.75 8C15.75 3.71875 12.2812 0.25 8 0.25ZM8 14.25C4.54688 14.25 1.75 11.4531 1.75 8C1.75 4.54688 4.54688 1.75 8 1.75C11.4531 1.75 14.25 4.54688 14.25 8C14.25 11.4531 11.4531 14.25 8 14.25ZM11.1812 6.05625L9.2375 8L11.1812 9.94375C11.3281 10.0906 11.3281 10.3281 11.1812 10.475L10.475 11.1812C10.3281 11.3281 10.0906 11.3281 9.94375 11.1812L8 9.2375L6.05625 11.1812C5.90938 11.3281 5.67188 11.3281 5.525 11.1812L4.81875 10.475C4.67188 10.3281 4.67188 10.0906 4.81875 9.94375L6.7625 8L4.81875 6.05625C4.67188 5.90938 4.67188 5.67188 4.81875 5.525L5.525 4.81875C5.67188 4.67188 5.90938 4.67188 6.05625 4.81875L8 6.7625L9.94375 4.81875C10.0906 4.67188 10.3281 4.67188 10.475 4.81875L11.1812 5.525C11.3281 5.67188 11.3281 5.90938 11.1812 6.05625Z" fill="white"/>
</svg>
