<svg fill="none" height="16" viewBox="0 0 15 16" width="15" xmlns="http://www.w3.org/2000/svg"
     xmlns:xlink="http://www.w3.org/1999/xlink">
  <clipPath id="a">
    <path d="m0 0h14.2181v16h-14.2181z"/>
  </clipPath>
  <g clip-path="url(#a)" fill="#fff">
    <path clip-rule="evenodd"
          d="m13.6024 3.54012c.1693.09776.3232.26656.4349.45986l-6.92825 4.00002-6.928164 4c-.1116077-.1933-.180886-.411-.180886-.6065v-6.78702c0-.391.27702-.87089.615653-1.06636l5.877737-3.393478c.33859-.1955225.89272-.1955225 1.23131 0zm-13.420759 8.45988 6.927969-3.99989-.00023-.00014 6.92822-3.99997c.1116.19324.1808.41093.1808.60645v6.78695c0 .1955-.0693.4132-.1808.6064l.0004.0002c-.1116.1933-.2655.3621-.4348.4598l-5.87775 3.3935c-.33858.1955-.89272.1955-1.2313 0l-5.877742-3.3935c-.16927-.0977-.323206-.2665-.434767-.4598z"
          fill-opacity=".2" fill-rule="evenodd"/>
    <path
      d="m7.10948 12.7393c-2.61329 0-4.73936-2.126-4.73936-4.73932 0-2.61329 2.12607-4.73936 4.73936-4.73936 1.68629 0 3.25892.90745 4.10422 2.36819l-2.05105 1.18688c-.42306-.73116-1.20984-1.18539-2.05317-1.18539-1.30667 0-2.36968 1.06301-2.36968 2.36968 0 1.30662 1.06301 2.36972 2.36968 2.36972.84342 0 1.6302-.45428 2.05331-1.18558l2.05111 1.18688c-.8453 1.4608-2.41804 2.3683-4.10442 2.3683z"/>
    <path d="m11.8483 7.73666h-.5266v-.52658h-.5265v.52658h-.5266v.52658h.5266v.52663h.5265v-.52663h.5266z"/>
    <path d="m13.823 7.73666h-.5267v-.52658h-.5265v.52658h-.5266v.52658h.5266v.52663h.5265v-.52663h.5267z"/>
  </g>
</svg>
