<svg width="16" height="14" viewBox="0 0 16 14" fill="none" xmlns="http://www.w3.org/2000/svg">
<path opacity="0.4" d="M16 1.74306V11.1275C16 11.5783 15.6353 11.9544 15.1667 11.9792C13.7925 12.0514 11.0133 12.3153 9.09163 13.2825C8.79579 13.4314 8.44496 13.2286 8.44496 12.9078V2.80028C8.44445 2.72711 8.46275 2.65503 8.49811 2.59097C8.53348 2.52691 8.58471 2.47301 8.6469 2.43445C10.5147 1.29111 13.5403 0.976669 15.0636 0.89028C15.5733 0.861114 16 1.25 16 1.74306Z" fill="#C4CFDC"/>
<path d="M7.35361 2.43445C5.48611 1.29111 2.46056 0.976947 0.938333 0.89028C0.426667 0.861114 0 1.25 0 1.74306V11.1278C0 11.5789 0.364722 11.955 0.833333 11.9794C2.20806 12.0517 4.98861 12.3158 6.91028 13.2836C7.20528 13.4322 7.555 13.2297 7.555 12.9097V2.79528C7.55557 2.72284 7.53731 2.6515 7.50201 2.58824C7.4667 2.52499 7.41557 2.47199 7.35361 2.43445Z" fill="#C4CFDC"/>
</svg>
