<svg width="16" height="14" viewBox="0 0 16 14" fill="none" xmlns="http://www.w3.org/2000/svg">
<path d="M3.99993 7.49998V8.99997H15.2499C15.4488 8.99997 15.6396 9.07899 15.7803 9.21964C15.9209 9.3603 15.9999 9.55106 15.9999 9.74997V10.25C15.9999 10.4489 15.9209 10.6396 15.7803 10.7803C15.6396 10.921 15.4488 11 15.2499 11H3.99993V12.5C3.99993 13.17 3.1893 13.5 2.71868 13.0312L0.218676 10.5312C0.0780342 10.3906 -0.000976563 10.1998 -0.000976562 10.0009C-0.000976563 9.80201 0.0780342 9.61125 0.218676 9.4706L2.71868 6.9706C3.1918 6.4981 3.99993 6.83466 3.99993 7.49998Z" fill="#C4CFDC"/>
<path opacity="0.4" d="M15.7812 3.47032C15.8509 3.53997 15.9062 3.62267 15.9439 3.71369C15.9816 3.80471 16.0011 3.90226 16.0011 4.00079C16.0011 4.09931 15.9816 4.19687 15.9439 4.28789C15.9062 4.37891 15.8509 4.46161 15.7812 4.53126L13.2812 7.03126C12.8125 7.50001 12 7.17157 12 6.50001V5.00001H0.75C0.551088 5.00001 0.360322 4.92099 0.21967 4.78034C0.0790176 4.63969 0 4.44892 0 4.25001L0 3.75001C0 3.55109 0.0790176 3.36033 0.21967 3.21968C0.360322 3.07902 0.551088 3.00001 0.75 3.00001H12V1.5C12 0.832503 12.8094 0.500003 13.2812 0.968753L15.7812 3.47032Z" fill="#C4CFDC"/>
</svg>
