<svg width="12" height="12" viewBox="0 0 12 12" fill="none" xmlns="http://www.w3.org/2000/svg">
<path d="M6 0.1875C2.79007 0.1875 0.1875 2.79101 0.1875 6C0.1875 9.21087 2.79007 11.8125 6 11.8125C9.20993 11.8125 11.8125 9.21087 11.8125 6C11.8125 2.79101 9.20993 0.1875 6 0.1875ZM6 10.6875C3.40941 10.6875 1.3125 8.59146 1.3125 6C1.3125 3.41027 3.4095 1.3125 6 1.3125C8.58963 1.3125 10.6875 3.40948 10.6875 6C10.6875 8.59055 8.59146 10.6875 6 10.6875ZM8.51353 4.70625C8.51353 6.27778 6.81616 6.30197 6.81616 6.88273V7.03125C6.81616 7.18657 6.69023 7.3125 6.53491 7.3125H5.46506C5.30974 7.3125 5.18381 7.18657 5.18381 7.03125V6.8283C5.18381 5.99053 5.81897 5.65563 6.29895 5.38652C6.71053 5.15578 6.96279 4.99884 6.96279 4.69327C6.96279 4.28906 6.44719 4.02077 6.03035 4.02077C5.48686 4.02077 5.23596 4.27805 4.88327 4.72317C4.78819 4.84317 4.61468 4.86546 4.49266 4.77295L3.84054 4.27847C3.72084 4.18772 3.69403 4.01911 3.77857 3.89496C4.33233 3.08182 5.03766 2.625 6.1358 2.625C7.2859 2.625 8.51353 3.52275 8.51353 4.70625ZM6.98438 8.625C6.98438 9.16779 6.54279 9.60938 6 9.60938C5.45721 9.60938 5.01562 9.16779 5.01562 8.625C5.01562 8.08221 5.45721 7.64062 6 7.64062C6.54279 7.64062 6.98438 8.08221 6.98438 8.625Z" fill="white"/>
</svg>
