<svg width="21" height="20" viewBox="0 0 21 20" fill="none" xmlns="http://www.w3.org/2000/svg">
<g clip-path="url(#clip0)">
<path opacity="0.4" d="M20.2266 14.0234L17.1016 10.8984C16.5156 10.3125 15.5 10.7238 15.5 11.5625V13.125H14.25L12.1883 10.916L10.1051 13.148L12.8609 16.1012C12.9048 16.1481 12.9578 16.1856 13.0168 16.2112C13.0757 16.2368 13.1393 16.25 13.2035 16.25H15.5V17.8125C15.5 18.6508 16.5156 19.0625 17.1016 18.4766L20.2266 15.3516C20.314 15.2645 20.3833 15.161 20.4306 15.047C20.4779 14.9331 20.5023 14.8109 20.5023 14.6875C20.5023 14.5641 20.4779 14.4419 20.4306 14.328C20.3833 14.214 20.314 14.1105 20.2266 14.0234ZM5.29648 3.75H0.96875C0.84443 3.75 0.725201 3.79939 0.637294 3.88729C0.549386 3.9752 0.5 4.09443 0.5 4.21875L0.5 6.40625C0.5 6.53057 0.549386 6.6498 0.637294 6.73771C0.725201 6.82561 0.84443 6.875 0.96875 6.875H4.25L6.31172 9.08398L8.39492 6.85195L5.63906 3.89883C5.59521 3.85187 5.54217 3.81442 5.48324 3.78882C5.4243 3.76322 5.36074 3.75 5.29648 3.75Z" fill="white"/>
<path d="M20.2266 4.64844C20.314 4.73554 20.3833 4.83903 20.4306 4.95299C20.4779 5.06694 20.5023 5.18911 20.5023 5.3125C20.5023 5.43589 20.4779 5.55806 20.4306 5.67202C20.3833 5.78597 20.314 5.88947 20.2266 5.97656L17.1016 9.10156C16.5156 9.6875 15.5 9.27656 15.5 8.4375V6.875H14.25L5.63906 16.1012C5.59521 16.1481 5.54217 16.1856 5.48324 16.2112C5.4243 16.2368 5.36074 16.25 5.29648 16.25H0.96875C0.84443 16.25 0.725201 16.2006 0.637294 16.1127C0.549386 16.0248 0.5 15.9056 0.5 15.7813V13.5938C0.5 13.4694 0.549386 13.3502 0.637294 13.2623C0.725201 13.1744 0.84443 13.125 0.96875 13.125H4.25L12.8609 3.89883C12.9048 3.85182 12.9579 3.81435 13.0169 3.78874C13.0759 3.76314 13.1396 3.74995 13.2039 3.75H15.5V2.1875C15.5 1.35 16.5133 0.937503 17.1016 1.52344L20.2266 4.64844Z" fill="white"/>
</g>
<defs>
<clipPath id="clip0">
<rect width="20" height="20" fill="white" transform="translate(0.5)"/>
</clipPath>
</defs>
</svg>
