<svg width="11" height="11" viewBox="0 0 11 11" fill="none" xmlns="http://www.w3.org/2000/svg">
  <path d="M9.375 0.46875H1.125C0.503906 0.46875 0 0.972656 0 1.59375V9.84375C0 10.4648 0.503906 10.9688 1.125 10.9688H9.375C9.99609 10.9688 10.5 10.4648 10.5 9.84375V1.59375C10.5 0.972656 9.99609 0.46875 9.375 0.46875ZM6.49922 9.46172C6.30234 9.49688 6.22969 9.375 6.22969 9.27422C6.22969 9.14766 6.23438 8.50078 6.23438 7.97812C6.23438 7.6125 6.1125 7.38047 5.96953 7.25859C6.83672 7.1625 7.75078 7.04297 7.75078 5.54531C7.75078 5.11875 7.59844 4.90547 7.35 4.63125C7.38984 4.53047 7.52344 4.11563 7.31016 3.57656C6.98438 3.47578 6.23906 3.99609 6.23906 3.99609C5.92969 3.90937 5.59453 3.86484 5.26406 3.86484C4.93359 3.86484 4.59844 3.90937 4.28906 3.99609C4.28906 3.99609 3.54375 3.47578 3.21797 3.57656C3.00469 4.11328 3.13594 4.52813 3.17813 4.63125C2.92969 4.90547 2.8125 5.11875 2.8125 5.54531C2.8125 7.03594 3.68672 7.1625 4.55391 7.25859C4.44141 7.35938 4.34062 7.53281 4.30547 7.78125C4.08281 7.88203 3.51328 8.05547 3.17344 7.45547C2.96016 7.08516 2.57578 7.05469 2.57578 7.05469C2.19609 7.05 2.55 7.29375 2.55 7.29375C2.80313 7.41094 2.98125 7.86094 2.98125 7.86094C3.20859 8.55703 4.29609 8.32266 4.29609 8.32266C4.29609 8.64844 4.30078 9.17813 4.30078 9.27422C4.30078 9.375 4.23047 9.49688 4.03125 9.46172C2.48438 8.94375 1.40156 7.47187 1.40156 5.75156C1.40156 3.6 3.04688 1.96641 5.19844 1.96641C7.35 1.96641 9.09375 3.6 9.09375 5.75156C9.09609 7.47187 8.04609 8.94609 6.49922 9.46172ZM4.2 8.02969C4.15547 8.03906 4.11328 8.02031 4.10859 7.98984C4.10391 7.95469 4.13438 7.92422 4.17891 7.91484C4.22344 7.91016 4.26562 7.92891 4.27031 7.95938C4.27734 7.98984 4.24687 8.02031 4.2 8.02969ZM3.97734 8.00859C3.97734 8.03906 3.94219 8.06484 3.89531 8.06484C3.84375 8.06953 3.80859 8.04375 3.80859 8.00859C3.80859 7.97813 3.84375 7.95234 3.89062 7.95234C3.93516 7.94766 3.97734 7.97344 3.97734 8.00859ZM3.65625 7.98281C3.64687 8.01328 3.6 8.02734 3.56016 8.01328C3.51562 8.00391 3.48516 7.96875 3.49453 7.93828C3.50391 7.90781 3.55078 7.89375 3.59062 7.90313C3.6375 7.91719 3.66797 7.95234 3.65625 7.98281ZM3.36797 7.85625C3.34687 7.88203 3.30234 7.87734 3.26719 7.84219C3.23203 7.81172 3.22266 7.76719 3.24609 7.74609C3.26719 7.72031 3.31172 7.725 3.34688 7.76016C3.37734 7.79063 3.38906 7.8375 3.36797 7.85625ZM3.15469 7.64297C3.13359 7.65703 3.09375 7.64297 3.06797 7.60781C3.04219 7.57266 3.04219 7.53281 3.06797 7.51641C3.09375 7.49531 3.13359 7.51172 3.15469 7.54688C3.18047 7.58203 3.18047 7.62422 3.15469 7.64297ZM3.00234 7.41562C2.98125 7.43672 2.94609 7.425 2.92031 7.40156C2.89453 7.37109 2.88984 7.33594 2.91094 7.31953C2.93203 7.29844 2.96719 7.31016 2.99297 7.33359C3.01875 7.36406 3.02344 7.39922 3.00234 7.41562ZM2.84531 7.24219C2.83594 7.26328 2.80547 7.26797 2.77969 7.25156C2.74922 7.2375 2.73516 7.21172 2.74453 7.19062C2.75391 7.17656 2.77969 7.16953 2.81016 7.18125C2.84063 7.19766 2.85469 7.22344 2.84531 7.24219Z" fill="white" fill-opacity="0.4"/>
</svg>
