<svg width="16" height="16" viewBox="0 0 16 16" fill="none" xmlns="http://www.w3.org/2000/svg">
<g clip-path="url(#clip0)">
<path d="M14.3648 7.79864L8.59051 3.05466C8.35445 2.85811 8.05699 2.75049 7.74981 2.75049C7.44264 2.75049 7.14517 2.85811 6.90911 3.05466L1.13481 7.79864C1.09704 7.83025 1.06587 7.86899 1.04308 7.91264C1.02028 7.9563 1.00631 8.00402 1.00196 8.05307C0.997603 8.10213 1.00296 8.15156 1.01771 8.19855C1.03246 8.24554 1.05632 8.28916 1.08794 8.32692L1.32794 8.6152C1.39177 8.69141 1.48324 8.73915 1.58226 8.74794C1.68127 8.75673 1.77973 8.72585 1.85598 8.66208L2.49981 8.13333V12.5C2.50037 12.6987 2.57956 12.8892 2.7201 13.0297C2.86063 13.1702 3.05107 13.2494 3.24981 13.25H6.24981C6.44855 13.2494 6.639 13.1702 6.77953 13.0297C6.92006 12.8892 6.99926 12.6987 6.99981 12.5V10.0625H8.49981V12.5C8.50037 12.6987 8.57956 12.8892 8.7201 13.0297C8.86063 13.1702 9.05107 13.2494 9.24981 13.25H12.2498C12.4476 13.2495 12.6373 13.1712 12.7777 13.0318C12.9181 12.8925 12.9979 12.7034 12.9998 12.5056V8.13286L13.645 8.66302C13.7213 8.72679 13.8198 8.75767 13.9188 8.74888C14.0178 8.74009 14.1093 8.69235 14.1731 8.61614L14.4129 8.3281C14.4446 8.29023 14.4685 8.24646 14.4833 8.19932C14.498 8.15218 14.5033 8.10258 14.4989 8.05338C14.4944 8.00419 14.4803 7.95635 14.4573 7.91264C14.4343 7.86892 14.4028 7.83018 14.3648 7.79864ZM11.8713 12.125H9.62481V9.68747C9.62426 9.48873 9.54506 9.29829 9.40453 9.15775C9.264 9.01722 9.07355 8.93803 8.87481 8.93747H6.62481C6.42607 8.93803 6.23563 9.01722 6.0951 9.15775C5.95456 9.29829 5.87537 9.48873 5.87481 9.68747V12.125H3.62481V7.20942L7.74981 3.81989L11.8748 7.20802L11.8713 12.125Z" fill="gray" fill-opacity="1"/>
</g>
<defs>
<clipPath id="clip0">
<rect width="13.5" height="12" fill="white" transform="translate(1 2)"/>
</clipPath>
</defs>
</svg>
