<svg width="29" height="28" viewBox="0 0 29 28" fill="none" xmlns="http://www.w3.org/2000/svg">
<path d="M23.04 22.9091H28.5867V22.0606H25.6V16.9697H28.16V11.0303H25.6V5.93939H28.16V0H22.1867V2.54545H17.0667V0H11.0933V2.54545H5.97333V0H0V5.93939H2.56V11.0303H0V16.9697H2.56V22.0606H0V28H5.97333V25.4545H11.0933V28H17.0667V25.4545H22.1867V28H26.4533V27.1515H23.04V22.9091ZM24.7467 22.0606H22.7883L17.0667 16.3715V14.4242H22.1867V16.9697H24.7467V22.0606ZM27.3067 16.1212H23.04V11.8788H27.3067V16.1212ZM24.7467 11.0303H22.1867V13.5758H17.0667V11.6285L22.7883 5.93939H24.7467V11.0303ZM23.04 0.848485H27.3067V5.09091H23.04V0.848485ZM22.1867 3.39394V5.34121L16.4651 11.0303H14.5067V5.93939H17.0667V3.39394H22.1867ZM11.9467 16.1212V11.8788H16.2133V16.1212H11.9467ZM11.9467 0.848485H16.2133V5.09091H11.9467V0.848485ZM11.0933 3.39394V5.93939H13.6533V11.0303H11.6949L5.97333 5.34121V3.39394H11.0933ZM0.853333 0.848485H5.12V5.09091H0.853333V0.848485ZM3.41333 5.93939H5.37173L11.0933 11.6285V13.5758H5.97333V11.0303H3.41333V5.93939ZM0.853333 11.8788H5.12V16.1212H0.853333V11.8788ZM3.41333 16.9697H5.97333V14.4242H11.0933V16.3715L5.37173 22.0606H3.41333V16.9697ZM5.12 27.1515H0.853333V22.9091H5.12V27.1515ZM5.97333 24.6061V22.6588L11.6949 16.9697H13.6533V22.0606H11.0933V24.6061H5.97333ZM16.2133 27.1515H11.9467V22.9091H16.2133V27.1515ZM17.0667 24.6061V22.0606H14.5067V16.9697H16.4651L22.1867 22.6588V24.6061H17.0667Z" fill="#C4CFDC"/>
</svg>
