<svg width="20" height="20" viewBox="0 0 20 20" fill="none" xmlns="http://www.w3.org/2000/svg">
<path opacity="0.4" d="M15.5099 15.1154C14.1589 15.1154 13.0791 16.6778 13.0791 18.4965H17.9406C17.9406 16.6773 16.8606 15.1154 15.5099 15.1154ZM15.5099 12.8613C16.8608 12.8613 17.9406 11.2989 17.9406 9.48013H13.0791C13.0791 11.2994 14.1592 12.8613 15.5099 12.8613Z" fill="white"/>
<path d="M19.4391 9.48088C19.5878 9.48088 19.7305 9.42151 19.8357 9.31583C19.9409 9.21015 20 9.06681 20 8.91735V8.54167C20 8.39221 19.9409 8.24888 19.8357 8.1432C19.7305 8.03752 19.5878 7.97815 19.4391 7.97815H11.5858C11.4371 7.97815 11.2944 8.03752 11.1892 8.1432C11.084 8.24888 11.0249 8.39221 11.0249 8.54167V8.91735C11.0249 9.06681 11.084 9.21015 11.1892 9.31583C11.2944 9.42151 11.4371 9.48088 11.5858 9.48088C11.5858 11.6176 12.7779 13.4192 14.4102 13.9891C12.7779 14.5589 11.5858 16.3606 11.5858 18.4973C11.4371 18.4973 11.2944 18.5566 11.1892 18.6623C11.084 18.768 11.0249 18.9113 11.0249 19.0608V19.4365C11.0249 19.5859 11.084 19.7293 11.1892 19.8349C11.2944 19.9406 11.4371 20 11.5858 20H19.4391C19.5878 20 19.7305 19.9406 19.8357 19.8349C19.9409 19.7293 20 19.5859 20 19.4365V19.0608C20 18.9113 19.9409 18.768 19.8357 18.6623C19.7305 18.5566 19.5878 18.4973 19.4391 18.4973C19.4391 16.3606 18.2471 14.5589 16.6147 13.9891C18.2471 13.4192 19.4391 11.6176 19.4391 9.48088ZM17.9432 18.4973H13.0817C13.0817 16.6785 14.1615 15.1161 15.5125 15.1161C16.8634 15.1161 17.9432 16.678 17.9432 18.4973ZM15.5125 12.862C14.1618 12.862 13.0817 11.3001 13.0817 9.48088H17.9432C17.9432 11.2997 16.8634 12.862 15.5125 12.862Z" fill="white"/>
<path d="M1.49586 10.0182C1.20001 10.0182 0.910797 10.1064 0.664804 10.2715C0.418812 10.4366 0.227084 10.6713 0.113866 10.9459C0.000648134 11.2205 -0.0289748 11.5226 0.0287432 11.8141C0.0864612 12.1056 0.228928 12.3734 0.438127 12.5835C0.647327 12.7937 0.913863 12.9368 1.20403 12.9948C1.4942 13.0528 1.79497 13.023 2.0683 12.9093C2.34163 12.7956 2.57525 12.603 2.73962 12.3558C2.90399 12.1087 2.99172 11.8182 2.99172 11.521C2.99172 11.1224 2.83412 10.7402 2.55359 10.4584C2.27306 10.1765 1.89258 10.0182 1.49586 10.0182ZM1.49586 5.00911C1.20001 5.00911 0.910797 5.09724 0.664804 5.26237C0.418812 5.42749 0.227084 5.66218 0.113866 5.93677C0.000648134 6.21136 -0.0289748 6.51351 0.0287432 6.80501C0.0864612 7.09651 0.228928 7.36428 0.438127 7.57444C0.647327 7.7846 0.913863 7.92772 1.20403 7.9857C1.4942 8.04368 1.79497 8.01393 2.0683 7.90019C2.34163 7.78645 2.57525 7.59384 2.73962 7.34672C2.90399 7.09959 2.99172 6.80906 2.99172 6.51184C2.99172 6.11329 2.83412 5.73107 2.55359 5.44925C2.27306 5.16743 1.89258 5.00911 1.49586 5.00911ZM1.49586 0C1.20001 0 0.910797 0.0881337 0.664804 0.253256C0.418812 0.418379 0.227084 0.653073 0.113866 0.927662C0.000648134 1.20225 -0.0289748 1.5044 0.0287432 1.7959C0.0864612 2.0874 0.228928 2.35517 0.438127 2.56533C0.647327 2.77549 0.913863 2.91861 1.20403 2.97659C1.4942 3.03458 1.79497 3.00482 2.0683 2.89108C2.34163 2.77734 2.57525 2.58473 2.73962 2.33761C2.90399 2.09048 2.99172 1.79995 2.99172 1.50273C2.99172 1.10418 2.83412 0.721957 2.55359 0.44014C2.27306 0.158323 1.89258 0 1.49586 0Z" fill="white"/>
<g opacity="0.4">
<path d="M4.36128 0.514648H13.9469C14.0791 0.514648 14.2059 0.567423 14.2995 0.661362C14.393 0.755301 14.4455 0.88271 14.4455 1.01556V1.51647C14.4455 1.64932 14.393 1.77673 14.2995 1.87067C14.2059 1.96461 14.0791 2.01738 13.9469 2.01738H4.36128C4.22903 2.01738 4.10221 1.96461 4.0087 1.87067C3.91519 1.77673 3.86266 1.64932 3.86266 1.51647V1.01556C3.86266 0.88271 3.91519 0.755301 4.0087 0.661362C4.10221 0.567423 4.22903 0.514648 4.36128 0.514648Z" fill="white"/>
<path d="M4.32381 5.75941H13.9469C14.0791 5.75941 14.2059 5.81218 14.2995 5.90612C14.393 6.00006 14.4455 6.12747 14.4455 6.26032V6.76123C14.4455 6.89408 14.393 7.02149 14.2995 7.11543C14.2059 7.20937 14.0791 7.26214 13.9469 7.26214H4.32381C4.19157 7.26214 4.06475 7.20937 3.97124 7.11543C3.87773 7.02149 3.8252 6.89408 3.8252 6.76123V6.26032C3.8252 6.12747 3.87773 6.00006 3.97124 5.90612C4.06475 5.81218 4.19157 5.75941 4.32381 5.75941Z" fill="white"/>
<path d="M4.36128 11.0316H10.3994C10.5317 11.0316 10.6585 11.0844 10.752 11.1783C10.8455 11.2722 10.898 11.3996 10.898 11.5325V12.0334C10.898 12.1663 10.8455 12.2937 10.752 12.3876C10.6585 12.4815 10.5317 12.5343 10.3994 12.5343H4.36128C4.22903 12.5343 4.10221 12.4815 4.0087 12.3876C3.91519 12.2937 3.86266 12.1663 3.86266 12.0334V11.5325C3.86266 11.3996 3.91519 11.2722 4.0087 11.1783C4.10221 11.0844 4.22903 11.0316 4.36128 11.0316Z" fill="white"/>
</g>
</svg>
