<svg width="12" height="12" viewBox="0 0 12 12" fill="none" xmlns="http://www.w3.org/2000/svg">
<path d="M4.00039 11.575H1.60039C0.937891 11.575 0.400391 11.0375 0.400391 10.375V1.575C0.400391 0.9125 0.937891 0.375 1.60039 0.375H4.00039C4.66289 0.375 5.20039 0.9125 5.20039 1.575V10.375C5.20039 11.0375 4.66289 11.575 4.00039 11.575ZM11.6004 10.375V1.575C11.6004 0.9125 11.0629 0.375 10.4004 0.375H8.00039C7.33789 0.375 6.80039 0.9125 6.80039 1.575V10.375C6.80039 11.0375 7.33789 11.575 8.00039 11.575H10.4004C11.0629 11.575 11.6004 11.0375 11.6004 10.375Z" fill="white"/>
</svg>
