<svg width="13" height="14" viewBox="0 0 13 14" fill="none" xmlns="http://www.w3.org/2000/svg">
  <path d="M6.30205 0.799995C2.87705 0.799995 0.102051 3.575 0.102051 7C0.102051 10.425 2.87705 13.2 6.30205 13.2C9.72705 13.2 12.5021 10.425 12.5021 7C12.5021 3.575 9.72705 0.799995 6.30205 0.799995ZM6.30205 12C3.53955 12 1.30205 9.7625 1.30205 7C1.30205 4.2375 3.53955 2 6.30205 2C9.06455 2 11.302 4.2375 11.302 7C11.302 9.7625 9.06455 12 6.30205 12ZM8.70205 5V9C8.70205 9.21999 8.52205 9.39999 8.30205 9.39999H7.10205C6.88205 9.39999 6.70205 9.21999 6.70205 9V5C6.70205 4.78 6.88205 4.6 7.10205 4.6H8.30205C8.52205 4.6 8.70205 4.78 8.70205 5ZM5.90205 5V9C5.90205 9.21999 5.72205 9.39999 5.50205 9.39999H4.30205C4.08205 9.39999 3.90205 9.21999 3.90205 9V5C3.90205 4.78 4.08205 4.6 4.30205 4.6H5.50205C5.72205 4.6 5.90205 4.78 5.90205 5Z" fill="white" fill-opacity="0.6"/>
</svg>
