<svg width="16" height="16" viewBox="0 0 16 16" fill="none" xmlns="http://www.w3.org/2000/svg">
<path d="M13.0203 12.0036C12.5874 12.0057 12.1669 12.1485 11.8221 12.4103L8.8187 10.6083C8.94508 10.2514 9.01168 9.87617 9.01579 9.49763C9.01604 9.03742 8.92558 8.58166 8.74957 8.15643C8.57357 7.7312 8.31548 7.34482 7.99006 7.0194C7.66463 6.69398 7.27826 6.43589 6.85303 6.25988C6.42779 6.08388 5.97204 5.99341 5.51182 5.99366C5.25476 5.99494 4.99866 6.02538 4.74846 6.08439L3.47201 3.35004C3.78274 3.01253 3.9678 2.57834 3.9961 2.12045C4.02439 1.66257 3.8942 1.20889 3.62739 0.835696C3.36058 0.462498 2.97343 0.192526 2.53102 0.0711601C2.0886 -0.0502059 1.61789 -0.0155669 1.198 0.169254C0.778115 0.354076 0.434655 0.677812 0.225352 1.08605C0.0160493 1.49428 -0.0463354 1.96212 0.0486835 2.41094C0.143702 2.85975 0.390332 3.26217 0.747117 3.55056C1.1039 3.83895 1.54909 3.99572 2.00785 3.99452C2.04227 3.99452 2.07355 3.98514 2.10796 3.98514L3.39067 6.732C2.55535 7.37022 2.00785 8.36823 2.00785 9.50076C2.00603 10.2023 2.2154 10.8882 2.60872 11.4692C3.00204 12.0501 3.56111 12.4993 4.21318 12.7581C4.86525 13.017 5.58013 13.0736 6.26483 12.9206C6.94952 12.7677 7.57232 12.4121 8.0522 11.9004L11.0493 13.6993C10.9875 14.1029 11.0508 14.5158 11.2308 14.8823C11.4107 15.2489 11.6986 15.5515 12.0557 15.7494C12.4129 15.9474 12.8221 16.0312 13.2283 15.9896C13.6345 15.9479 14.0182 15.7829 14.3277 15.5166C14.6372 15.2503 14.8578 14.8955 14.9596 14.5001C15.0614 14.1047 15.0397 13.6875 14.8972 13.3049C14.7548 12.9222 14.4986 12.5923 14.163 12.3597C13.8274 12.127 13.4287 12.0027 13.0203 12.0036ZM5.51182 11.0025C5.21481 11.0025 4.92448 10.9144 4.67752 10.7494C4.43057 10.5844 4.23809 10.3498 4.12443 10.0754C4.01077 9.80104 3.98103 9.49909 4.03898 9.20779C4.09692 8.91649 4.23994 8.64891 4.44996 8.4389C4.65998 8.22888 4.92755 8.08586 5.21885 8.02791C5.51016 7.96997 5.8121 7.99971 6.0865 8.11337C6.3609 8.22703 6.59543 8.41951 6.76044 8.66646C6.92545 8.91341 7.01352 9.20375 7.01352 9.50076C7.01352 9.89904 6.85531 10.281 6.57369 10.5626C6.29206 10.8442 5.9101 11.0025 5.51182 11.0025Z" fill="#C4CFDC"/>
</svg>
