<svg width="16" height="16" viewBox="0 0 16 16" fill="none" xmlns="http://www.w3.org/2000/svg">
<g opacity="1">
<g clip-path="url(#clip0)">
<path d="M7.8125 2.1875C4.60156 2.1875 2 4.78906 2 8C2 11.2109 4.60156 13.8125 7.8125 13.8125C11.0234 13.8125 13.625 11.2109 13.625 8C13.625 4.78906 11.0234 2.1875 7.8125 2.1875ZM12.0148 5.9375H10.4398C10.2828 5.08203 10.0297 4.325 9.70859 3.71797C10.7141 4.16328 11.5297 4.95312 12.0148 5.9375ZM7.8125 3.3125C8.24844 3.3125 8.95156 4.27812 9.29375 5.9375H6.33125C6.67344 4.27812 7.37656 3.3125 7.8125 3.3125ZM3.125 8C3.125 7.67891 3.15781 7.36484 3.21875 7.0625H5.03984C5.01641 7.36953 5 7.67891 5 8C5 8.32109 5.01641 8.63047 5.03984 8.9375H3.21875C3.15781 8.63516 3.125 8.32109 3.125 8ZM3.61016 10.0625H5.18516C5.34219 10.918 5.59531 11.675 5.91641 12.282C4.91094 11.8367 4.09531 11.0469 3.61016 10.0625ZM5.18516 5.9375H3.61016C4.09531 4.95312 4.91094 4.16328 5.91641 3.71797C5.59531 4.325 5.34219 5.08203 5.18516 5.9375ZM7.8125 12.6875C7.37656 12.6875 6.67344 11.7219 6.33125 10.0625H9.29609C8.95156 11.7219 8.24844 12.6875 7.8125 12.6875ZM9.45547 8.9375H6.16953C6.14375 8.6375 6.125 8.32812 6.125 8C6.125 7.67188 6.14375 7.3625 6.16953 7.0625H9.45781C9.48359 7.3625 9.50234 7.67188 9.50234 8C9.50234 8.32812 9.48125 8.6375 9.45547 8.9375ZM9.70859 12.282C10.0297 11.675 10.2805 10.918 10.4398 10.0625H12.0148C11.5297 11.0469 10.7141 11.8367 9.70859 12.282ZM10.5852 8.9375C10.6086 8.63047 10.625 8.32109 10.625 8C10.625 7.67891 10.6086 7.36953 10.5852 7.0625H12.4062C12.4672 7.36484 12.5 7.67891 12.5 8C12.5 8.32109 12.4672 8.63516 12.4062 8.9375H10.5852Z" fill="gray"/>
</g>
</g>
<defs>
<clipPath id="clip0">
<rect width="11.625" height="12" fill="white" transform="translate(2 2)"/>
</clipPath>
</defs>
</svg>
