<svg width="16" height="16" viewBox="0 0 16 16" fill="none" xmlns="http://www.w3.org/2000/svg">
<path d="M15.8493 7.80378L15.1866 7.39322C15.181 7.32861 15.1747 7.26416 15.1677 7.20001L15.7383 6.66869C15.7963 6.61465 15.8222 6.53465 15.8065 6.45737C15.7913 6.37963 15.7368 6.31563 15.6627 6.28831L14.9336 6.01661C14.9154 5.95352 14.8962 5.89088 14.8766 5.82793L15.3309 5.19699C15.3773 5.13284 15.3868 5.04937 15.3566 4.97661C15.3264 4.90371 15.2604 4.85148 15.183 4.83865L14.4147 4.71367C14.3848 4.65541 14.3537 4.59805 14.3223 4.54159L14.6453 3.83216C14.6784 3.76001 14.6716 3.67669 14.6275 3.61027C14.5836 3.54446 14.5092 3.50597 14.4298 3.50899L13.6494 3.53616C13.6091 3.48574 13.568 3.43578 13.5262 3.38673L13.7059 2.62748C13.724 2.55035 13.7012 2.46899 13.645 2.41314C13.5893 2.35729 13.5084 2.3342 13.4307 2.35231L12.6714 2.53193C12.6222 2.49027 12.5723 2.44907 12.5217 2.40876L12.549 1.62839C12.552 1.54944 12.5136 1.47442 12.4477 1.43065C12.3818 1.38658 12.2983 1.37993 12.2259 1.41269L11.5179 1.73571C11.4607 1.70431 11.4034 1.67322 11.3459 1.64318L11.2206 0.874877C11.2079 0.79699 11.1557 0.730877 11.0826 0.701292C11.0097 0.670952 10.9256 0.680764 10.8622 0.726952L10.2313 1.18129C10.1691 1.16152 10.1066 1.1425 10.0441 1.12439L9.77243 0.39533C9.7448 0.321065 9.6808 0.266575 9.60337 0.251179C9.52579 0.235933 9.44639 0.261745 9.39205 0.319405L8.86073 0.889971C8.79658 0.882877 8.73197 0.876386 8.66752 0.871103L8.25695 0.206952C8.21544 0.139783 8.14194 0.098877 8.06224 0.098877C7.98254 0.098877 7.90978 0.139783 7.86903 0.206952L7.45846 0.871103C7.39386 0.876386 7.32926 0.882877 7.26526 0.889971L6.73394 0.319405C6.68005 0.261745 6.60005 0.235933 6.52261 0.251179C6.44488 0.266726 6.38088 0.321065 6.35356 0.39533L6.08186 1.12439C6.01877 1.1425 5.95627 1.16167 5.89469 1.18129L5.26375 0.726952C5.1996 0.680613 5.11597 0.670801 5.04337 0.701292C4.97046 0.731481 4.91809 0.797594 4.90541 0.874877L4.78012 1.64318C4.72216 1.67322 4.6648 1.70416 4.60805 1.73571L3.90012 1.41269C3.82812 1.37978 3.74465 1.38658 3.67824 1.43065C3.61243 1.47442 3.57394 1.54944 3.57695 1.62839L3.60412 2.40876C3.55371 2.44907 3.50375 2.49027 3.45439 2.53193L2.69514 2.35231C2.61801 2.33435 2.53665 2.35729 2.4808 2.41314C2.42465 2.46914 2.40186 2.5499 2.41997 2.62748L2.59809 3.38673C2.55658 3.43593 2.51552 3.48574 2.47522 3.53616L1.69484 3.50899C1.6162 3.50673 1.54088 3.54446 1.49711 3.61027C1.45303 3.67578 1.44639 3.75971 1.47914 3.83216L1.80216 4.54159C1.77077 4.5985 1.73967 4.65586 1.70963 4.71367L0.941332 4.83865C0.863294 4.85133 0.797483 4.90356 0.767747 4.97661C0.737558 5.04982 0.747369 5.13359 0.793407 5.19699L1.24775 5.82793C1.22797 5.89027 1.2088 5.95292 1.19069 6.01661L0.461634 6.28831C0.387671 6.31593 0.333181 6.37993 0.317785 6.45737C0.302389 6.53495 0.3282 6.61435 0.386011 6.66869L0.956577 7.20001C0.949483 7.26416 0.943143 7.32877 0.937709 7.39322L0.275068 7.80378C0.207898 7.84529 0.166992 7.91865 0.166992 7.9985C0.166992 8.07835 0.207898 8.15095 0.275068 8.19171L0.937709 8.60227C0.943143 8.66688 0.949483 8.73133 0.956577 8.79548L0.386011 9.3268C0.3282 9.38069 0.302389 9.46069 0.317785 9.53812C0.333181 9.61586 0.387671 9.67971 0.461634 9.70718L1.19069 9.97888C1.2088 10.042 1.22797 10.1046 1.24775 10.1676L0.793407 10.7985C0.747219 10.8628 0.737407 10.9463 0.767747 11.0189C0.798086 11.0921 0.864049 11.1443 0.942841 11.1568L1.71114 11.2818C1.74118 11.3401 1.77197 11.3974 1.80367 11.4539L1.48065 12.1618C1.44775 12.2338 1.45454 12.3173 1.49861 12.3837C1.54269 12.4497 1.61771 12.4882 1.69635 12.485L2.47522 12.4577C2.51582 12.5084 2.55673 12.558 2.59839 12.6074L2.42028 13.3667C2.40216 13.4436 2.42495 13.5236 2.48111 13.5795C2.5368 13.6358 2.61786 13.6583 2.69545 13.6402L3.45469 13.462C3.50405 13.504 3.55401 13.5448 3.60443 13.5849L3.57726 14.3653C3.57424 14.4442 3.61273 14.5193 3.67854 14.563C3.74405 14.607 3.82797 14.6136 3.90043 14.5807L4.60835 14.2577C4.66541 14.2894 4.72277 14.3202 4.78043 14.3502L4.90571 15.1185C4.91839 15.1967 4.97061 15.2628 5.04367 15.2936C5.11658 15.3239 5.20065 15.3141 5.26405 15.2681L5.89499 14.8137C5.95733 14.8335 6.01997 14.8528 6.08367 14.871L6.35537 15.6C6.38299 15.674 6.44699 15.7288 6.52443 15.7439C6.60201 15.7596 6.68141 15.7336 6.73575 15.6756L7.26707 15.1051C7.33122 15.1125 7.39582 15.1187 7.46027 15.1244L7.87084 15.787C7.9122 15.8539 7.98571 15.8951 8.06405 15.8951C8.14239 15.8951 8.2165 15.854 8.25877 15.787L8.66933 15.1244C8.73394 15.1187 8.79839 15.1125 8.86254 15.1051L9.39386 15.6756C9.44775 15.7336 9.52775 15.7596 9.60518 15.7439C9.68292 15.7286 9.74692 15.674 9.77424 15.6L10.0459 14.871C10.109 14.8528 10.1717 14.8335 10.2346 14.8137L10.8656 15.2681C10.9297 15.3141 11.0133 15.3239 11.0859 15.2936C11.159 15.2636 11.2112 15.1973 11.2239 15.1185L11.3492 14.3502C11.4071 14.3202 11.4645 14.2889 11.5213 14.2577L12.2292 14.5807C12.3012 14.6136 12.3847 14.607 12.4511 14.563C12.5169 14.519 12.5552 14.4442 12.5524 14.3653L12.5252 13.5849C12.5756 13.5446 12.6256 13.504 12.6748 13.462L13.434 13.6402C13.5111 13.6583 13.5925 13.6358 13.6483 13.5795C13.7045 13.5235 13.7273 13.443 13.7092 13.3667L13.5311 12.6074C13.5727 12.558 13.6138 12.5084 13.6539 12.4577L14.4343 12.485C14.513 12.4882 14.5883 12.4497 14.632 12.3837C14.6761 12.3179 14.6829 12.2341 14.6499 12.1618L14.3268 11.4539C14.3584 11.3967 14.3893 11.3393 14.4192 11.2818L15.1875 11.1568C15.2657 11.1443 15.3315 11.0921 15.3611 11.0189C15.3913 10.946 15.3818 10.8619 15.3354 10.7985L14.8811 10.1676C14.9007 10.1052 14.9199 10.0426 14.9382 9.97888L15.6672 9.70718C15.7413 9.67941 15.796 9.61556 15.8111 9.53812C15.8268 9.46054 15.8008 9.38114 15.7428 9.3268L15.1723 8.79548C15.1792 8.73133 15.1856 8.66673 15.1911 8.60227L15.8538 8.19171C15.921 8.15035 15.9619 8.07684 15.9619 7.9985C15.9619 7.92016 15.9211 7.84605 15.8539 7.80378H15.8493ZM11.4115 13.3132C11.1579 13.2586 10.9979 13.0083 11.0523 12.7547C11.1065 12.5011 11.3557 12.3396 11.6093 12.394C11.8628 12.4482 12.0244 12.6989 11.97 12.9525C11.9157 13.206 11.6666 13.3676 11.413 13.3132H11.4115ZM11.1866 11.7887C10.9557 11.7392 10.7277 11.8862 10.6794 12.1177L10.444 13.2166C9.71794 13.5457 8.90435 13.7298 8.05907 13.7298C7.18963 13.7298 6.3685 13.5381 5.62888 13.194L5.39341 12.0951C5.3439 11.8642 5.11718 11.7162 4.88624 11.766L3.91567 11.9744C3.73605 11.7887 3.5685 11.591 3.41454 11.3827H8.13907C8.1925 11.3827 8.22812 11.373 8.22812 11.3244V9.64892C8.22812 9.60031 8.1925 9.59065 8.13907 9.59065H6.75794V8.53254H8.25077C8.38707 8.53254 8.97982 8.57148 9.1685 9.32952C9.22782 9.56197 9.35869 10.3197 9.44775 10.5627C9.5365 10.8344 9.89756 11.3778 10.2825 11.3778H12.6372C12.6639 11.3778 12.6924 11.3748 12.7225 11.3694C12.5594 11.5913 12.3798 11.8011 12.1881 11.9973L11.1949 11.7845L11.1866 11.7887ZM4.65077 13.2906C4.39718 13.3452 4.14812 13.1837 4.09378 12.9298C4.0396 12.6762 4.20065 12.4257 4.45454 12.3713C4.70812 12.3171 4.95718 12.4787 5.01152 12.7321C5.06571 12.9857 4.9045 13.2362 4.65077 13.2906ZM2.85454 6.0302C2.9596 6.26718 2.85273 6.54492 2.61605 6.65058C2.37907 6.75578 2.10284 6.64876 1.99718 6.41208C1.89152 6.17541 1.99899 5.89737 2.23567 5.79171C2.47265 5.68665 2.74888 5.79352 2.85454 6.0302ZM2.3036 7.33435L3.31492 6.88454C3.53077 6.78869 3.62888 6.53586 3.53228 6.32001L3.32397 5.84907H4.14209V9.53209H2.4968C2.35356 9.02794 2.27643 8.49661 2.27643 7.94718C2.27643 7.73737 2.28775 7.53058 2.30948 7.3268L2.3036 7.33435ZM6.74133 6.97661V5.88982H8.6885C8.78918 5.88982 9.39944 6.0062 9.39944 6.4619C9.39944 6.84076 8.93152 6.97661 8.54662 6.97661H6.73529H6.74133ZM13.8206 7.95473C13.8206 8.09903 13.8153 8.24152 13.8047 8.38341H13.2115C13.1522 8.38341 13.1284 8.42235 13.1284 8.48046V8.75216C13.1284 9.39216 12.7676 9.53254 12.4506 9.56726C12.1487 9.60122 11.8151 9.44107 11.7744 9.25631C11.5963 8.25556 11.3004 8.04273 10.8325 7.67141C11.4136 7.3031 12.0174 6.7582 12.0174 6.02612C12.0174 5.23971 11.4785 4.74461 11.1117 4.50159C10.5955 4.16197 10.025 4.09405 9.87099 4.09405H3.74269C4.57439 3.16725 5.70495 2.50914 6.97288 2.26763L7.6959 3.02537C7.85892 3.19593 8.12911 3.20348 8.30118 3.03925L9.11024 2.26642C10.8008 2.5819 12.2348 3.63548 13.065 5.08907L12.511 6.33888C12.4154 6.55473 12.513 6.80831 12.7283 6.90341L13.794 7.37737C13.8124 7.56605 13.8221 7.75775 13.8221 7.95095L13.8206 7.95473ZM7.69228 1.6302C7.87945 1.45057 8.1768 1.45812 8.35492 1.64544C8.53303 1.83261 8.52699 2.12997 8.33937 2.30959C8.1522 2.48922 7.85484 2.48167 7.67673 2.2942C7.49862 2.10703 7.50465 1.80967 7.69228 1.63005V1.6302ZM13.1866 6.05284C13.2915 5.81586 13.5685 5.70869 13.8055 5.81435C14.0425 5.91941 14.1496 6.19775 14.044 6.43473C13.9391 6.67171 13.6621 6.77888 13.4251 6.67322C13.1881 6.56816 13.081 6.28982 13.1866 6.05284Z" fill="white"/>
</svg>
