<?xml version="1.0" encoding="UTF-8"?>
<svg width="192px" height="192px" viewBox="0 0 192 192" version="1.1" xmlns="http://www.w3.org/2000/svg" xmlns:xlink="http://www.w3.org/1999/xlink">
    <g id="Rounded" stroke="none" stroke-width="1" fill="none" fill-rule="evenodd">
        <g id="Group" transform="translate(56.000000, 28.472136) scale(1.03)">
            <path d="M20,-1.95399252e-14 C20.6209804,-1.95399252e-14 21.2334326,0.144580367 21.7888544,0.422291236 L77.7888544,28.4222912 C79.1439905,29.0998593 80,30.4849118 80,32 L80,118.711739 C80,120.920878 78.209139,122.711739 76,122.711739 C75.317081,122.711739 74.6455341,122.536893 74.0493261,122.203855 L68,118.824 L68,40 C68,38.5570588 67.2235741,37.2320639 65.9790113,36.5238371 L65.7888544,36.4222912 L16,11.527 L16,4 C16,1.790861 17.790861,-1.9095836e-14 20,-1.95399252e-14 Z" id="Combined-Shape" fill="#000000"></path>
            <path d="M5.78885438,12.4222912 L61.7888544,40.4222912 C63.1439905,41.0998593 64,42.4849118 64,44 L64,131.055728 C64,133.264867 62.209139,135.055728 60,135.055728 C59.3790196,135.055728 58.7665674,134.911148 58.2111456,134.633437 L2.21114562,106.633437 C0.856009505,105.955869 -2.03490125e-15,104.570816 0,103.055728 L0,16 C-2.705415e-16,13.790861 1.790861,12 4,12 C4.62098038,12 5.23343264,12.1445804 5.78885438,12.4222912 Z" id="Line-2" fill="#42464C"></path>
        </g>
    </g>
</svg>
