<svg width="14" height="14" viewBox="0 0 14 14" fill="none" xmlns="http://www.w3.org/2000/svg">
<path d="M7.00005 0.799988C3.57505 0.799988 0.800049 3.57499 0.800049 6.99999C0.800049 10.425 3.57505 13.2 7.00005 13.2C10.425 13.2 13.2 10.425 13.2 6.99999C13.2 3.57499 10.425 0.799988 7.00005 0.799988ZM10.04 8.62749C10.1575 8.74499 10.1575 8.93499 10.04 9.05249L9.05005 10.04C8.93255 10.1575 8.74255 10.1575 8.62505 10.04L7.00005 8.39999L5.37255 10.04C5.25505 10.1575 5.06505 10.1575 4.94755 10.04L3.96005 9.04999C3.84255 8.93249 3.84255 8.74249 3.96005 8.62499L5.60005 6.99999L3.96005 5.37249C3.84255 5.25499 3.84255 5.06499 3.96005 4.94749L4.95005 3.95749C5.06755 3.83999 5.25755 3.83999 5.37505 3.95749L7.00005 5.59999L8.62755 3.95999C8.74505 3.84249 8.93505 3.84249 9.05255 3.95999L10.0425 4.94999C10.16 5.06749 10.16 5.25749 10.0425 5.37499L8.40005 6.99999L10.04 8.62749Z" fill="white"/>
</svg>
