<?xml version="1.0" encoding="utf-8"?><!DOCTYPE svg PUBLIC "-//W3C//DTD SVG 1.1//EN" "http://www.w3.org/Graphics/SVG/1.1/DTD/svg11.dtd"><svg width="361" height="354" viewBox="0 0 361 354" xmlns="http://www.w3.org/2000/svg" xmlns:xlink="http://www.w3.org/1999/xlink"><svg width="16" height="16" fill="none" viewBox="0 0 16 16" id="add-circle" x="340.54" y="20" xmlns="http://www.w3.org/2000/svg"><path d="M12 7.5v1a.376.376 0 01-.375.375h-2.75v2.75A.376.376 0 018.5 12h-1a.376.376 0 01-.375-.375v-2.75h-2.75A.376.376 0 014 8.5v-1c0-.206.169-.375.375-.375h2.75v-2.75c0-.206.169-.375.375-.375h1c.206 0 .375.169.375.375v2.75h2.75c.206 0 .375.169.375.375zm3.75.5A7.749 7.749 0 018 15.75 7.749 7.749 0 01.25 8 7.749 7.749 0 018 .25 7.749 7.749 0 0115.75 8zm-1.5 0A6.248 6.248 0 008 1.75 6.248 6.248 0 001.75 8 6.248 6.248 0 008 14.25 6.248 6.248 0 0014.25 8z" fill="#fff"/></svg><svg width="16" height="16" fill="none" viewBox="0 0 16 16" id="arrow-around" x="340.54" y="36" xmlns="http://www.w3.org/2000/svg"><path d="M15.037 5.135c.608.803.968 1.803.963 2.887-.012 2.623-2.176 4.728-4.799 4.728h-5.7v2c0 .334-.405.5-.64.265l-2.75-2.75a.375.375 0 010-.53l2.75-2.75a.375.375 0 01.64.265v2h5.708c1.79 0 3.293-1.464 3.291-3.254 0-.699-.223-1.347-.6-1.877a.377.377 0 01.037-.487l.536-.534a.375.375 0 01.563.037zM1.5 8.003C1.498 6.213 3.002 4.75 4.792 4.75H10.5v2c0 .332.403.502.64.265l2.75-2.75a.375.375 0 000-.53L11.14.985a.375.375 0 00-.64.265v2H4.8C2.175 3.25.011 5.355 0 7.978a4.725 4.725 0 00.964 2.887.375.375 0 00.564.037l.535-.535a.377.377 0 00.038-.486 3.232 3.232 0 01-.6-1.878z" fill="#fff"/></svg><svg width="10" height="12" fill="none" viewBox="0 0 10 12" id="arrow-bottom" x="350.54" y="268" xmlns="http://www.w3.org/2000/svg"><path d="M8.912 5.402l-3.7 3.71a.3.3 0 01-.425 0l-3.7-3.71a.3.3 0 010-.425l.49-.49a.297.297 0 01.428.005L4.347 6.92V.7a.3.3 0 01.3-.3h.7a.3.3 0 01.3.3v6.22L7.99 4.492a.301.301 0 01.427-.005l.49.49a.296.296 0 01.005.425zM9.5 10.3h-9a.3.3 0 00-.3.3v.7a.3.3 0 00.3.3h9a.3.3 0 00.3-.3v-.7a.3.3 0 00-.3-.3z" fill="#fff"/></svg><svg width="16" height="16" fill="none" viewBox="0 0 16 16" id="arrow-circle-right" x="340.54" y="52" xmlns="http://www.w3.org/2000/svg"><path d="M.25 8A7.749 7.749 0 008 15.75 7.749 7.749 0 0015.75 8 7.749 7.749 0 008 .25 7.749 7.749 0 00.25 8zm14 0A6.248 6.248 0 018 14.25 6.248 6.248 0 011.75 8 6.248 6.248 0 018 1.75 6.248 6.248 0 0114.25 8zM8.34 3.94l3.794 3.794a.375.375 0 010 .532l-3.793 3.793a.375.375 0 01-.532 0l-.612-.612a.375.375 0 01.006-.538L9.4 8.812H4.375A.376.376 0 014 8.438v-.876c0-.206.169-.375.375-.375H9.4L7.203 5.091a.375.375 0 01-.006-.538l.612-.612a.375.375 0 01.532 0z" fill="#fff"/></svg><svg width="16" height="16" fill="none" viewBox="0 0 16 16" id="arrow-down" x="340.54" y="68" xmlns="http://www.w3.org/2000/svg"><g clip-path="url(#aeclip0_4613_68481)"><path d="M13.357 7.862l-.464-.464a.282.282 0 00-.398 0L8.86 11.033V3.03a.282.282 0 00-.282-.281h-.656a.282.282 0 00-.281.281v8.002L4.006 7.398a.281.281 0 00-.399 0l-.464.464a.282.282 0 000 .398l4.908 4.908c.11.11.288.11.398 0l4.908-4.908a.281.281 0 000-.398z" fill="#fff"/></g><defs><clipPath id="aeclip0_4613_68481"><path fill="#fff" transform="translate(3 2)" d="M0 0h10.5v12H0z"/></clipPath></defs></svg><svg width="14" height="14" fill="none" viewBox="0 0 14 14" id="arrow-expanded" x="340.54" y="316" xmlns="http://www.w3.org/2000/svg"><path d="M6.646 8.854L3.75 11.75l1.029.97a.75.75 0 01-.53 1.28h-3.5A.749.749 0 010 13.25v-3.5a.749.749 0 011.279-.53l.971 1.03 2.896-2.896a.5.5 0 01.708 0l.792.792a.5.5 0 010 .708zm.708-3.708L10.25 2.25l-1.029-.97A.75.75 0 019.751 0h3.5c.415 0 .749.336.749.75v3.5a.749.749 0 01-1.279.53l-.971-1.03-2.896 2.896a.5.5 0 01-.708 0l-.792-.792a.5.5 0 010-.708z" fill="#fff"/></svg><svg width="16" height="16" fill="none" viewBox="0 0 16 16" id="arrow-left" x="340.54" y="84" xmlns="http://www.w3.org/2000/svg"><g clip-path="url(#agclip0)"><path d="M8.388 13.107l.464-.464a.281.281 0 000-.398L5.216 8.61h8.002a.281.281 0 00.281-.28v-.657a.281.281 0 00-.28-.281H5.215l3.636-3.636a.281.281 0 000-.398l-.464-.464a.281.281 0 00-.398 0L3.082 7.801a.281.281 0 000 .398l4.908 4.908c.11.11.288.11.398 0z" fill="gray"/></g><defs><clipPath id="agclip0"><path fill="#fff" transform="translate(3 2)" d="M0 0h10.5v12H0z"/></clipPath></defs></svg><svg width="12" height="10" fill="none" viewBox="0 0 12 10" id="arrow-left-stop" y="331.54" xmlns="http://www.w3.org/2000/svg"><path d="M6.597 8.912l-3.71-3.7a.3.3 0 010-.425l3.71-3.7a.3.3 0 01.425 0l.49.49c.12.12.118.313-.005.428L5.08 4.35h6.22a.3.3 0 01.3.3v.7a.3.3 0 01-.3.3H5.08l2.427 2.342c.12.118.123.31.005.428l-.49.49a.298.298 0 01-.425.002zM1.7 9.5v-9a.3.3 0 00-.3-.3H.7a.3.3 0 00-.3.3v9a.3.3 0 00.3.3h.7a.3.3 0 00.3-.3z" fill="#fff"/></svg><svg width="16" height="16" fill="none" viewBox="0 0 16 16" id="arrow-right" x="340.54" y="100" xmlns="http://www.w3.org/2000/svg"><g clip-path="url(#aiclip0)"><path d="M8.112 2.893l-.464.464a.281.281 0 000 .398l3.636 3.636H3.28A.281.281 0 003 7.67v.657c0 .156.126.281.281.281h8.003l-3.636 3.636a.281.281 0 000 .398l.464.464c.11.11.288.11.397 0L13.418 8.2a.281.281 0 000-.398L8.509 2.893a.281.281 0 00-.397 0z" fill="gray"/></g><defs><clipPath id="aiclip0"><path fill="#fff" transform="translate(3 2)" d="M0 0h10.5v12H0z"/></clipPath></defs></svg><svg width="12" height="10" fill="none" viewBox="0 0 12 10" id="arrow-right-stop" x="12" y="331.54" xmlns="http://www.w3.org/2000/svg"><path d="M5.402 1.087l3.71 3.7a.3.3 0 010 .425l-3.71 3.7a.3.3 0 01-.425 0l-.49-.49a.297.297 0 01.005-.427L6.92 5.652H.7a.3.3 0 01-.3-.3v-.7a.3.3 0 01.3-.3h6.22L4.492 2.01a.301.301 0 01-.005-.428l.49-.49a.296.296 0 01.425-.005zM10.3.5v9a.3.3 0 00.3.3h.7a.3.3 0 00.3-.3v-9a.3.3 0 00-.3-.3h-.7a.3.3 0 00-.3.3z" fill="#fff"/></svg><svg width="14" height="12" fill="none" viewBox="0 0 14 12" id="arrow-toggle" x="311.54" y="298" xmlns="http://www.w3.org/2000/svg"><path d="M6.253 1.11l4.638 4.624a.375.375 0 010 .532L6.253 10.89a.375.375 0 01-.531 0l-.613-.613a.37.37 0 01.007-.534L8.15 6.816H.375A.376.376 0 010 6.44v-.875c0-.207.169-.375.375-.375H8.15L5.116 2.263a.376.376 0 01-.007-.535l.613-.612a.37.37 0 01.531-.007zm6.122-.735v11.25c0 .206.169.375.375.375h.875a.376.376 0 00.375-.375V.375A.376.376 0 0013.625 0h-.875a.376.376 0 00-.375.375z" fill="#fff" fill-opacity=".6"/></svg><svg width="16" height="16" fill="none" viewBox="0 0 16 16" id="arrow-up" x="340.54" y="116" xmlns="http://www.w3.org/2000/svg"><g clip-path="url(#alclip0_4613_68480)"><path d="M3.143 8.138l.464.464c.11.11.288.11.398 0L7.64 4.966v8.003c0 .155.125.281.28.281h.657a.281.281 0 00.281-.281V4.966l3.636 3.636c.11.11.288.11.398 0l.464-.464a.281.281 0 000-.397L8.449 2.832a.281.281 0 00-.398 0L3.143 7.741a.281.281 0 000 .397z" fill="#fff"/></g><defs><clipPath id="alclip0_4613_68480"><path fill="#fff" transform="translate(3 2)" d="M0 0h10.5v12H0z"/></clipPath></defs></svg><svg width="8" height="5" fill="none" viewBox="0 0 8 5" id="caret-down" x="352.54" y="252" xmlns="http://www.w3.org/2000/svg"><path d="M.783.4h6.432a.5.5 0 01.353.853L4.353 4.47a.501.501 0 01-.708 0L.43 1.253A.5.5 0 01.783.4z" fill="#fff" fill-opacity=".4"/></svg><svg width="20" height="20" fill="none" viewBox="0 0 20 20" id="chain-settings" x="311.54" y="229" xmlns="http://www.w3.org/2000/svg"><path opacity=".4" d="M19.95 14.094a.385.385 0 00-.38-.322h-.516a2.698 2.698 0 00-.497-.856l.256-.447a.389.389 0 00-.088-.49 3.453 3.453 0 00-1.003-.582.386.386 0 00-.472.169l-.256.447a2.776 2.776 0 00-.99 0l-.257-.447a.387.387 0 00-.472-.169 3.493 3.493 0 00-1.003.582.385.385 0 00-.087.49l.256.447a2.7 2.7 0 00-.497.856h-.516a.388.388 0 00-.38.325 3.52 3.52 0 000 1.16.386.386 0 00.38.322h.516c.111.313.28.604.497.856l-.256.447a.388.388 0 00.087.49c.3.25.639.446 1.003.581a.386.386 0 00.472-.168l.256-.447c.328.06.664.06.991 0l.256.447a.387.387 0 00.472.168 3.494 3.494 0 001.003-.58.384.384 0 00.088-.491l-.256-.447c.217-.252.385-.543.497-.856h.515a.388.388 0 00.381-.325 3.524 3.524 0 000-1.16zm-4.274 1.403c-.925-1.203.447-2.575 1.65-1.65.924 1.203-.447 2.575-1.65 1.65zM19.95 4.754a.385.385 0 00-.382-.322h-.515a2.697 2.697 0 00-.497-.857l.256-.446a.388.388 0 00-.087-.491 3.453 3.453 0 00-1.003-.581.386.386 0 00-.473.168l-.256.447a2.777 2.777 0 00-.99 0l-.257-.447a.386.386 0 00-.472-.169 3.493 3.493 0 00-1.003.582.385.385 0 00-.087.49l.256.447a2.698 2.698 0 00-.497.856h-.516a.388.388 0 00-.38.325 3.519 3.519 0 000 1.16.386.386 0 00.38.322h.516c.111.313.28.604.497.856l-.256.447a.388.388 0 00.087.49c.3.25.639.446 1.003.582a.386.386 0 00.472-.17l.256-.446c.328.06.664.06.991 0l.256.447a.386.386 0 00.472.169 3.494 3.494 0 001.003-.582.384.384 0 00.088-.49l-.256-.447c.217-.252.385-.543.497-.856h.515a.388.388 0 00.381-.325 3.524 3.524 0 000-1.16zM15.676 6.16c-.925-1.203.447-2.578 1.65-1.65.924 1.203-.447 2.574-1.65 1.65z" fill="#fff"/><path d="M13.125 11.493l-1.053-.525a5.43 5.43 0 000-1.984l1.054-.525a.747.747 0 00.312-.91c-.278-.756-.81-1.45-1.316-2.056a.747.747 0 00-.947-.165l-.909.525a5.427 5.427 0 00-1.716-.99v-1.05a.75.75 0 00-.625-.738 7.127 7.127 0 00-2.375.003.744.744 0 00-.612.734v1.053c-.629.221-1.21.557-1.716.99l-.91-.524a.747.747 0 00-.946.165C.86 6.102.326 6.796.047 7.552a.745.745 0 00.328.907l1.04.528a5.414 5.414 0 000 1.981l-1.04.525a.754.754 0 00-.328.91c.278.753.813 1.446 1.319 2.053a.748.748 0 00.947.165l.909-.522a5.426 5.426 0 001.716.99v1.05a.75.75 0 00.625.738 7.027 7.027 0 002.372 0 .747.747 0 00.615-.737v-1.05a5.368 5.368 0 001.716-.99l.91.524a.747.747 0 00.946-.165c.506-.607 1.053-1.3 1.331-2.057a.75.75 0 00-.328-.909zm-4.728.134c-2.406 1.85-5.153-.896-3.303-3.303 2.406-1.85 5.153.897 3.303 3.303z" fill="#fff"/></svg><svg width="16" height="16" fill="none" viewBox="0 0 16 16" id="chain-wallets" x="340.54" y="132" xmlns="http://www.w3.org/2000/svg"><g clip-path="url(#aoclip0)" fill="#fff"><path d="M13 8.5a1 1 0 100 2 1 1 0 000-2zm.5-7.5H2a2 2 0 00-2 2 1 1 0 001 1h1.5a.5.5 0 110-1h12a.5.5 0 00.5-.5A1.5 1.5 0 0013.5 1z"/><path opacity=".4" d="M14.412 4H1a1 1 0 01-1-1v10a2 2 0 002 2h12.412c.875 0 1.588-.673 1.588-1.5v-8c0-.827-.712-1.5-1.588-1.5zM13 10.5a1 1 0 110-2 1 1 0 010 2z"/></g><defs><clipPath id="aoclip0"><path fill="#fff" d="M0 0h16v16H0z"/></clipPath></defs></svg><svg width="20" height="20" fill="none" viewBox="0 0 20 20" id="check" x="311.54" y="249" xmlns="http://www.w3.org/2000/svg"><path d="M15.62 4.608l-8.22 8.22-3.02-3.02a.375.375 0 00-.53 0l-.885.884a.375.375 0 000 .53l4.17 4.17a.375.375 0 00.53 0l9.37-9.37a.375.375 0 000-.53l-.885-.884a.375.375 0 00-.53 0z" fill="#fff"/></svg><svg width="10" height="6" fill="none" viewBox="0 0 10 6" id="chevron-down" x="196" y="311.54" xmlns="http://www.w3.org/2000/svg"><path d="M4.734 5.869L.11 1.28a.375.375 0 010-.531L.73.13a.375.375 0 01.53 0L5 3.834 8.74.131a.375.375 0 01.532 0L9.89.75a.375.375 0 010 .531L5.266 5.87a.375.375 0 01-.532 0z" fill="#fff" fill-opacity=".7"/></svg><svg width="6" height="12" fill="none" viewBox="0 0 6 12" id="chevron-right" x="352.54" y="206" xmlns="http://www.w3.org/2000/svg"><path d="M.58.893l-.465.464a.281.281 0 000 .398L4.35 6 .115 10.245a.281.281 0 000 .398l.464.464c.11.11.288.11.398 0l4.908-4.908a.281.281 0 000-.398L.977.893a.281.281 0 00-.398 0z" fill="#fff"/></svg><svg width="10" height="6" fill="none" viewBox="0 0 10 6" id="chevron-up" x="206" y="311.54" xmlns="http://www.w3.org/2000/svg"><path d="M5.266.131L9.89 4.72a.375.375 0 010 .53l-.62.62a.375.375 0 01-.53 0L5 2.165 1.258 5.87a.375.375 0 01-.53 0l-.62-.62a.375.375 0 010-.53L4.734.13a.375.375 0 01.532 0z" fill="#fff" fill-opacity=".7"/></svg><svg viewBox="0 0 311.539 311.539" fill="inherit" width="311.54" height="311.54" id="circle-minus" xmlns="http://www.w3.org/2000/svg"><path d="M214.603 135.77H96.937c-11.046 0-20 8.954-20 20s8.954 20 20 20h117.666c11.046 0 20-8.954 20-20s-8.954-20-20-20z"/><path d="M155.77 0C69.74 0 0 69.74 0 155.77s69.74 155.77 155.77 155.77 155.77-69.74 155.77-155.77S241.799 0 155.77 0zm0 271.539C91.784 271.539 40 219.761 40 155.77 40 91.784 91.778 40 155.77 40c63.986 0 115.77 51.778 115.77 115.77-.001 63.985-51.779 115.769-115.77 115.769z"/></svg><svg width="16" height="16" fill="inherit" viewBox="0 0 16 16" id="close" x="340.54" y="148" xmlns="http://www.w3.org/2000/svg"><path d="M7 .8A6.199 6.199 0 00.8 7c0 3.425 2.775 6.2 6.2 6.2 3.425 0 6.2-2.775 6.2-6.2C13.2 3.575 10.425.8 7 .8zM7 12c-2.763 0-5-2.237-5-5 0-2.762 2.237-5 5-5 2.762 0 5 2.238 5 5 0 2.763-2.238 5-5 5zm2.545-6.555L7.99 7l1.555 1.555a.3.3 0 010 .425l-.565.565a.3.3 0 01-.425 0L7 7.99 5.445 9.545a.3.3 0 01-.425 0l-.565-.565a.3.3 0 010-.425L6.01 7 4.455 5.445a.3.3 0 010-.425l.565-.565a.3.3 0 01.425 0L7 6.01l1.555-1.555a.3.3 0 01.425 0l.565.565a.3.3 0 010 .425z" fill="#fff"/></svg><svg width="10" height="10" fill="none" viewBox="0 0 10 10" id="close-blank" x="24" y="331.54" xmlns="http://www.w3.org/2000/svg"><path d="M6.06 5l3.206-3.205.66-.66a.25.25 0 000-.354L9.22.073a.25.25 0 00-.353 0L5 3.94 1.134.073a.25.25 0 00-.353 0L.073.78a.25.25 0 000 .354L3.94 5 .073 8.866a.25.25 0 000 .353l.707.708a.25.25 0 00.354 0L5 6.06l3.205 3.205.66.66a.25.25 0 00.354 0l.708-.707a.25.25 0 000-.353L6.06 5z" fill="#fff" fill-opacity=".4"/></svg><svg width="16" height="14" fill="none" viewBox="0 0 16 14" id="documentation" x="340.54" y="164" xmlns="http://www.w3.org/2000/svg"><path opacity=".4" d="M16 1.743v9.384c0 .451-.365.827-.833.852-1.374.072-4.154.336-6.075 1.304-.296.148-.647-.054-.647-.375V2.8a.427.427 0 01.202-.366C10.515 1.291 13.54.977 15.064.89c.51-.029.936.36.936.853z" fill="#C4CFDC"/><path d="M7.354 2.434C5.486 1.291 2.46.977.938.89.427.861 0 1.25 0 1.743v9.385c0 .45.365.827.833.851 1.375.073 4.156.337 6.077 1.305.295.148.645-.054.645-.374V2.795a.418.418 0 00-.201-.36z" fill="#C4CFDC"/></svg><svg width="24" height="24" fill="none" stroke="#6a7384" stroke-width="2" stroke-linecap="round" stroke-linejoin="round" class="axfeather axfeather-download" viewBox="0 0 24 24" id="download" x="311.54" y="56" xmlns="http://www.w3.org/2000/svg"><path d="M21 15v4a2 2 0 01-2 2H5a2 2 0 01-2-2v-4M7 10l5 5 5-5M12 15V3"/></svg><svg width="24" height="24" fill="none" stroke="currentColor" stroke-width="2" stroke-linecap="round" stroke-linejoin="round" class="ayfeather ayfeather-download" viewBox="0 0 24 24" id="download-black" x="311.54" y="80" xmlns="http://www.w3.org/2000/svg"><path d="M21 15v4a2 2 0 01-2 2H5a2 2 0 01-2-2v-4M7 10l5 5 5-5M12 15V3"/></svg><svg width="16" height="14" fill="none" viewBox="0 0 16 14" id="endpoints" x="340.54" y="178" xmlns="http://www.w3.org/2000/svg"><path d="M4 7.5V9h11.25a.75.75 0 01.75.75v.5a.75.75 0 01-.75.75H4v1.5c0 .67-.81 1-1.281.531l-2.5-2.5a.75.75 0 010-1.06l2.5-2.5c.473-.473 1.28-.136 1.28.529z" fill="#C4CFDC"/><path opacity=".4" d="M15.781 3.47a.75.75 0 010 1.061l-2.5 2.5C12.812 7.5 12 7.171 12 6.5V5H.75A.75.75 0 010 4.25v-.5A.75.75 0 01.75 3H12V1.5c0-.667.81-1 1.281-.531l2.5 2.501z" fill="#C4CFDC"/></svg><svg width="16" height="14" fill="none" viewBox="0 0 16 14" id="explorer" x="340.54" y="192" xmlns="http://www.w3.org/2000/svg"><path opacity=".4" d="M2.375 4h1.25A.375.375 0 004 3.625v-1.25A.375.375 0 003.625 2h-1.25A.375.375 0 002 2.375v1.25A.375.375 0 002.375 4zM0 6v6.5A1.5 1.5 0 001.5 14h13a1.5 1.5 0 001.5-1.5V6H0z" fill="#fff"/><path d="M14.5 0h-13A1.5 1.5 0 000 1.5V6h16V1.5A1.5 1.5 0 0014.5 0zM4 3.625A.375.375 0 013.625 4h-1.25A.375.375 0 012 3.625v-1.25A.375.375 0 012.375 2h1.25A.375.375 0 014 2.375v1.25zm10 0a.375.375 0 01-.375.375h-7.75a.375.375 0 01-.375-.375v-1.25A.375.375 0 015.875 2h7.75a.375.375 0 01.375.375v1.25z" fill="#C4CFDC"/></svg><svg width="12" height="16" fill="none" viewBox="0 0 12 16" id="file-download-regular" x="340.54" y="206" xmlns="http://www.w3.org/2000/svg"><path d="M6.75 7.377a.375.375 0 00-.375-.375h-.75a.375.375 0 00-.375.375v2.625H3.723a.375.375 0 00-.265.642l2.26 2.243a.4.4 0 00.564 0l2.26-2.243a.375.375 0 00-.265-.642H6.75V7.377zm4.807-4.315L8.936.44A1.5 1.5 0 007.876 0H1.5C.672.003 0 .675 0 1.503V14.5A1.5 1.5 0 001.5 16h8.998c.828 0 1.502-.672 1.502-1.5V4.124c0-.396-.162-.78-.443-1.062zM7.998 1.625l2.378 2.377H7.998V1.625zM10.5 14.5h-9V1.503h4.999v3.25c0 .415.334.749.75.749H10.5V14.5z" fill="#fff"/></svg><svg width="14" height="14" fill="none" viewBox="0 0 14 14" id="filter" x="88" y="311.54" xmlns="http://www.w3.org/2000/svg"><path d="M12.199.6H1.802C.736.6.198 1.893.953 2.65L5 6.697V11c0 .378.178.733.48 1l1.6 1.177c.782.546 1.92.038 1.92-.96v-5.52l4.047-4.048C13.801 1.895 13.267.6 12.2.6zM7.8 6.2v6L6.2 11V6.2L1.8 1.8h10.4L7.8 6.2z" fill="#fff"/></svg><svg width="16" height="14" fill="none" viewBox="0 0 16 14" id="folder" x="340.54" y="222" xmlns="http://www.w3.org/2000/svg"><path d="M14.5 3h-6l-2-2h-5A1.5 1.5 0 000 2.5v9A1.5 1.5 0 001.5 13h13a1.5 1.5 0 001.5-1.5v-7A1.5 1.5 0 0014.5 3z" fill="inherit" fill-opacity=".2" stroke="inherit"/></svg><svg width="21" height="20" fill="none" viewBox="0 0 21 20" id="fuzzing" x="311.54" y="172" xmlns="http://www.w3.org/2000/svg"><g clip-path="url(#beclip0)" fill="#fff"><path opacity=".4" d="M20.227 14.023l-3.125-3.125c-.586-.585-1.602-.174-1.602.665v1.562h-1.25l-2.062-2.209-2.083 2.232 2.756 2.953a.47.47 0 00.342.149H15.5v1.563c0 .838 1.016 1.25 1.602.664l3.125-3.125a.937.937 0 000-1.329zM5.297 3.75H.968a.469.469 0 00-.469.469v2.187a.469.469 0 00.469.469H4.25l2.062 2.209 2.083-2.232-2.756-2.953a.469.469 0 00-.343-.149z"/><path d="M20.227 4.648a.937.937 0 010 1.329l-3.125 3.125c-.586.585-1.602.175-1.602-.665V6.875h-1.25l-8.61 9.226a.47.47 0 01-.344.149H.97a.469.469 0 01-.469-.469v-2.187a.469.469 0 01.469-.469H4.25l8.61-9.226a.469.469 0 01.344-.149H15.5V2.187c0-.837 1.013-1.25 1.602-.664l3.125 3.125z"/></g><defs><clipPath id="beclip0"><path fill="#fff" transform="translate(.5)" d="M0 0h20v20H0z"/></clipPath></defs></svg><svg width="11" height="12" fill="none" viewBox="0 0 11 12" id="github" y="341.54" xmlns="http://www.w3.org/2000/svg"><path d="M9.375.75h-8.25C.504.75 0 1.254 0 1.875v8.25c0 .621.504 1.125 1.125 1.125h8.25c.621 0 1.125-.504 1.125-1.125v-8.25C10.5 1.254 9.996.75 9.375.75zM6.499 9.743c-.197.035-.27-.087-.27-.188 0-.126.005-.773.005-1.296 0-.365-.122-.597-.264-.72.867-.095 1.78-.215 1.78-1.712 0-.427-.152-.64-.4-.915.04-.1.173-.515-.04-1.054-.326-.101-1.07.42-1.07.42a3.651 3.651 0 00-.976-.132c-.33 0-.666.045-.975.131 0 0-.745-.52-1.071-.42-.213.538-.082.952-.04 1.055-.248.275-.365.488-.365.915 0 1.49.874 1.617 1.74 1.713-.112.1-.212.274-.248.522-.222.101-.792.275-1.132-.325-.213-.37-.597-.401-.597-.401-.38-.005-.026.239-.026.239.253.117.431.567.431.567.228.696 1.315.462 1.315.462 0 .326.005.855.005.951 0 .101-.07.223-.27.188-1.547-.518-2.63-1.99-2.63-3.71 0-2.152 1.646-3.785 3.797-3.785 2.152 0 3.896 1.633 3.896 3.785.002 1.72-1.048 3.194-2.595 3.71zM4.2 8.311c-.045.01-.087-.01-.091-.04-.005-.035.025-.066.07-.075.044-.005.087.014.091.045.007.03-.023.06-.07.07zm-.223-.021c0 .03-.035.056-.082.056-.051.005-.086-.021-.086-.056 0-.03.035-.056.082-.056.044-.005.086.02.086.056zm-.32-.026c-.01.03-.057.045-.097.03-.044-.009-.075-.044-.065-.074.009-.03.056-.045.096-.036.046.014.077.05.065.08zm-.289-.127c-.021.026-.066.022-.1-.014-.036-.03-.045-.075-.022-.096.021-.025.066-.02.1.014.031.03.043.078.022.096zm-.213-.213c-.021.014-.061 0-.087-.035-.026-.035-.026-.075 0-.091.026-.021.066-.005.087.03.025.035.025.077 0 .096zm-.153-.227c-.02.021-.056.01-.082-.014-.025-.03-.03-.066-.01-.082.022-.021.057-.01.083.014.026.03.03.065.01.082zm-.157-.174c-.01.022-.04.026-.065.01-.03-.014-.045-.04-.035-.061.009-.014.035-.021.065-.01.03.017.045.043.035.061z" fill="#fff"/></svg><svg width="6" height="8" fill="none" viewBox="0 0 6 8" id="greater-than" x="352.54" y="257" xmlns="http://www.w3.org/2000/svg"><path d="M5.295 4.213l-3.67 3.7a.3.3 0 01-.425 0l-.495-.495a.3.3 0 010-.425L3.668 4 .705 1.008a.3.3 0 010-.425L1.2.088a.3.3 0 01.425 0l3.67 3.7a.3.3 0 010 .425z" fill="#fff"/></svg><svg width="20" height="13" fill="none" viewBox="0 0 20 13" id="handshake" x="311.54" y="269" xmlns="http://www.w3.org/2000/svg"><path opacity=".4" d="M0 10h2a1 1 0 001-1V2.006H0V10zm1.5-1.997a.5.5 0 110 1 .5.5 0 010-1zM14.29.293A.992.992 0 0013.585 0H10.9a1 1 0 00-.675.263L7.153 3.075c-.003.003-.006.01-.01.012a1.243 1.243 0 00-.065 1.75c.397.435 1.231.55 1.753.085.003-.003.01-.003.013-.006l2.497-2.288a.5.5 0 01.675.738l-.816.746 4.55 3.694c.088.074.17.154.247.24V2L14.29.294z" fill="#fff"/><path d="M17 2.006v6.997a1 1 0 001 1h2V2.006h-3zm1.5 6.997a.5.5 0 110-1 .5.5 0 010 1zm-3.378-.419l-4.666-3.787-.937.86a2.25 2.25 0 01-3.04-3.316L9.033 0H6.416a.998.998 0 00-.707.294L4 2v6.997h.572l2.828 2.56a2 2 0 002.813-.291l.006-.007.56.485a1.16 1.16 0 001.633-.169l.982-1.206.168.137a1 1 0 001.407-.147l.297-.365a1.002 1.002 0 00-.144-1.41z" fill="#fff"/></svg><svg width="16" height="16" fill="none" viewBox="0 0 16 16" id="history" x="340.54" y="236" xmlns="http://www.w3.org/2000/svg"><path fill="#5e6369" d="M4.312 12.653a5.936 5.936 0 10-.379-8.978l1.638 1.638a.516.516 0 01-.366.88H.516A.516.516 0 010 5.678V.988c0-.46.556-.69.881-.365l1.593 1.593A8 8 0 0116 7.985c.008 4.411-3.586 8.012-7.994 8.015a7.968 7.968 0 01-5.027-1.771.774.774 0 01-.059-1.149l.364-.364a.775.775 0 011.028-.063z"/><path fill="#C4CFDC" d="M9.032 4.645v3.366l1.313 1.021a.776.776 0 01.136 1.087l-.317.407a.772.772 0 01-1.086.136l-2.11-1.64V4.644a.774.774 0 01.774-.774h.516a.774.774 0 01.774.774z"/></svg><svg width="12" height="16" fill="none" viewBox="0 0 12 16" id="hourglass" x="340.54" y="252" xmlns="http://www.w3.org/2000/svg"><path d="M11.5 1.5h.125A.375.375 0 0012 1.125v-.75A.375.375 0 0011.625 0H.375A.375.375 0 000 .375v.75c0 .207.168.375.375.375H.5C.5 4.018 1.506 6.681 3.537 8 1.497 9.324.5 11.997.5 14.5H.375a.375.375 0 00-.375.375v.75c0 .207.168.375.375.375h11.25a.375.375 0 00.375-.375v-.75a.375.375 0 00-.375-.375H11.5c0-2.518-1.006-5.181-3.037-6.5 2.04-1.324 3.037-3.997 3.037-6.5zM2 1.5h8c0 3.176-1.79 5.75-4 5.75S2 4.676 2 1.5zm8 13H2c0-3.176 1.79-5.75 4-5.75s4 2.574 4 5.75z" fill="#fff"/></svg><svg width="6" height="8" fill="none" viewBox="0 0 6 8" id="less-than" x="354.54" y="300" xmlns="http://www.w3.org/2000/svg"><path d="M.705 3.788l3.67-3.7a.3.3 0 01.425 0l.495.495a.3.3 0 010 .425L2.333 4l2.962 2.993a.3.3 0 010 .425l-.495.495a.3.3 0 01-.425 0l-3.67-3.7a.3.3 0 010-.425z" fill="#fff"/></svg><svg width="10" height="16" fill="none" viewBox="0 0 10 16" id="level-up" x="340.54" y="268" xmlns="http://www.w3.org/2000/svg"><path d="M9.89 3.75L6.265.11a.375.375 0 00-.53 0L2.11 3.75a.375.375 0 000 .53l.697.698c.15.15.395.146.54-.01l1.778-1.936V14.25h-3.75a.376.376 0 00-.264.11l-1 1a.375.375 0 00.265.64h5.749a.75.75 0 00.75-.75V3.03l1.778 1.937c.145.156.39.16.54.01l.697-.697a.375.375 0 000-.53z" fill="#fff"/></svg><svg width="16" height="16" fill="none" viewBox="0 0 16 16" id="local" x="340.54" y="284" xmlns="http://www.w3.org/2000/svg"><g clip-path="url(#bmclip0)"><path d="M14.365 7.799L8.59 3.055a1.314 1.314 0 00-1.682 0L1.135 7.799a.375.375 0 00-.047.528l.24.288a.375.375 0 00.528.047l.644-.529V12.5a.752.752 0 00.75.75h3A.752.752 0 007 12.5v-2.438h1.5V12.5a.752.752 0 00.75.75h3a.752.752 0 00.75-.744V8.133l.645.53a.375.375 0 00.528-.047l.24-.288a.376.376 0 00-.048-.53zm-2.494 4.326H9.625V9.687a.752.752 0 00-.75-.75h-2.25a.752.752 0 00-.75.75v2.438h-2.25V7.209L7.75 3.82l4.125 3.389-.004 4.917z" fill="gray"/></g><defs><clipPath id="bmclip0"><path fill="#fff" transform="translate(1 2)" d="M0 0h13.5v12H0z"/></clipPath></defs></svg><svg width="29" height="28" fill="none" viewBox="0 0 29 28" id="logo" x="311.54" xmlns="http://www.w3.org/2000/svg"><path d="M23.04 22.91h5.547v-.85H25.6v-5.09h2.56v-5.94H25.6V5.94h2.56V0h-5.973v2.545h-5.12V0h-5.974v2.545h-5.12V0H0v5.94h2.56v5.09H0v5.94h2.56v5.09H0V28h5.973v-2.546h5.12V28h5.974v-2.546h5.12V28h4.266v-.849H23.04V22.91zm1.707-.85h-1.959l-5.721-5.688v-1.948h5.12v2.546h2.56v5.09zm2.56-5.939H23.04V11.88h4.267v4.242zm-2.56-5.09h-2.56v2.545h-5.12v-1.947l5.721-5.69h1.959v5.091zM23.04.847h4.267v4.243H23.04V.848zm-.853 2.546V5.34l-5.722 5.69h-1.958V5.938h2.56V3.394h5.12zM11.947 16.12V11.88h4.266v4.242h-4.266zm0-15.273h4.266v4.243h-4.266V.848zm-.854 2.546v2.545h2.56v5.091h-1.958L5.973 5.341V3.394h5.12zM.853.848H5.12v4.243H.853V.848zm2.56 5.091h1.959l5.721 5.69v1.947h-5.12V11.03h-2.56V5.94zm-2.56 5.94H5.12v4.242H.853V11.88zm2.56 5.09h2.56v-2.545h5.12v1.948L5.372 22.06H3.413V16.97zM5.12 27.152H.853V22.91H5.12v4.242zm.853-2.545V22.66l5.722-5.69h1.958v5.092h-2.56v2.545h-5.12zm10.24 2.545h-4.266V22.91h4.266v4.242zm.854-2.545v-2.545h-2.56V16.97h1.958l5.722 5.689v1.947h-5.12z" fill="#C4CFDC"/></svg><svg width="20" height="16" fill="none" viewBox="0 0 20 16" id="logs" x="311.54" y="282" xmlns="http://www.w3.org/2000/svg"><g clip-path="url(#boclip0)" fill="#C4CFDC"><path d="M20 13.167v1a.75.75 0 01-.75.75h-9.5a.75.75 0 01-.75-.75v-1a.75.75 0 01.75-.75h9.5a.75.75 0 01.75.75z"/><path opacity=".4" d="M.928 14.52l-.709-.707a.75.75 0 010-1.06l4.813-4.836L.219 3.08a.75.75 0 010-1.06l.71-.708a.75.75 0 011.06 0l6.074 6.074a.75.75 0 010 1.06l-6.074 6.074a.75.75 0 01-1.06 0z"/></g><defs><clipPath id="boclip0"><path fill="#fff" d="M0 0h20v16H0z"/></clipPath></defs></svg><svg width="14" height="14" fill="inherit" viewBox="0 0 14 14" id="magnifying-glass" x="102" y="311.54" xmlns="http://www.w3.org/2000/svg"><path d="M13.312 12.323l-3.035-3.035a.297.297 0 00-.212-.088h-.33A5.2 5.2 0 005.8.6 5.2 5.2 0 00.6 5.8a5.2 5.2 0 008.6 3.935v.33c0 .08.032.155.087.213l3.035 3.035a.3.3 0 00.425 0l.565-.565a.3.3 0 000-.425zM5.8 9.8c-2.21 0-4-1.79-4-4s1.79-4 4-4 4 1.79 4 4-1.79 4-4 4z"/></svg><svg width="20" height="20" fill="none" viewBox="0 0 20 20" id="mempool" y="311.54" xmlns="http://www.w3.org/2000/svg"><path opacity=".4" d="M15.51 15.115c-1.351 0-2.43 1.563-2.43 3.382h4.86c0-1.82-1.08-3.382-2.43-3.382zm0-2.254c1.35 0 2.43-1.562 2.43-3.38h-4.86c0 1.818 1.08 3.38 2.43 3.38z" fill="#fff"/><path d="M19.44 9.48a.56.56 0 00.56-.563v-.375a.565.565 0 00-.56-.564h-7.854a.56.56 0 00-.561.564v.375a.565.565 0 00.56.564c0 2.137 1.193 3.938 2.825 4.508-1.632.57-2.824 2.372-2.824 4.508a.56.56 0 00-.561.564v.375a.565.565 0 00.56.564h7.854a.56.56 0 00.561-.564v-.375a.565.565 0 00-.56-.564c0-2.136-1.193-3.938-2.825-4.508 1.632-.57 2.824-2.371 2.824-4.508zm-1.497 9.017h-4.861c0-1.819 1.08-3.38 2.43-3.38 1.351 0 2.431 1.561 2.431 3.38zm-2.43-5.635c-1.351 0-2.431-1.562-2.431-3.381h4.861c0 1.819-1.08 3.381-2.43 3.381zM1.496 10.018a1.491 1.491 0 00-1.382.928 1.509 1.509 0 00.324 1.638 1.494 1.494 0 002.554-1.063c0-.399-.158-.78-.438-1.063a1.492 1.492 0 00-1.058-.44zm0-5.009a1.491 1.491 0 00-1.382.928 1.51 1.51 0 00.324 1.637 1.494 1.494 0 002.554-1.062c0-.399-.158-.78-.438-1.063a1.492 1.492 0 00-1.058-.44zm0-5.009A1.491 1.491 0 00.114.928a1.51 1.51 0 00.324 1.637 1.494 1.494 0 002.554-1.062c0-.399-.158-.781-.438-1.063A1.492 1.492 0 001.496 0z" fill="#fff"/><g opacity=".4" fill="#fff"><path d="M4.361.515h9.586a.498.498 0 01.498.5v.501a.502.502 0 01-.498.501H4.36a.497.497 0 01-.498-.5v-.501A.502.502 0 014.36.515zM4.324 5.76h9.623a.498.498 0 01.498.5v.501a.502.502 0 01-.498.501H4.324a.497.497 0 01-.499-.5V6.26a.502.502 0 01.499-.5zM4.361 11.032H10.4a.498.498 0 01.499.5v.501a.502.502 0 01-.499.501H4.361a.498.498 0 01-.498-.5v-.502a.502.502 0 01.498-.5z"/></g></svg><svg width="14" height="16" fill="none" viewBox="0 0 14 16" id="menu" x="340.54" y="300" xmlns="http://www.w3.org/2000/svg"><path d="M13.625 3.875H.375A.375.375 0 010 3.5v-1c0-.207.168-.375.375-.375h13.25c.207 0 .375.168.375.375v1a.375.375 0 01-.375.375zm0 5H.375A.375.375 0 010 8.5v-1c0-.207.168-.375.375-.375h13.25c.207 0 .375.168.375.375v1a.375.375 0 01-.375.375zm0 5H.375A.375.375 0 010 13.5v-1c0-.207.168-.375.375-.375h13.25c.207 0 .375.168.375.375v1a.375.375 0 01-.375.375z" fill="#fff"/></svg><svg width="16" height="16" fill="none" viewBox="0 0 16 16" id="night" x="40" y="311.54" xmlns="http://www.w3.org/2000/svg"><path fill="gray" d="M10 1l-.5-1L9 1l-1 .5L9 2l.5 1 .5-1 1-.5-1-.5zm4.334 4.666L13.5 4l-.834 1.666L11 6.5l1.666.834L13.5 9l.834-1.666L16 6.5l-1.666-.834z"/><path d="M10.381 13.325c.253-.05.435.25.269.453A5.974 5.974 0 015.994 16 5.996 5.996 0 010 10c0-3.75 3.397-6.581 7.094-5.9.256.05.315.394.087.522a4.697 4.697 0 00-2.378 4.087c0 2.938 2.669 5.17 5.578 4.616z" fill="#000"/></svg><svg width="12" height="12" fill="none" viewBox="0 0 12 12" id="pause" x="11" y="341.54" xmlns="http://www.w3.org/2000/svg"><path d="M4 11.575H1.6a1.2 1.2 0 01-1.2-1.2v-8.8a1.2 1.2 0 011.2-1.2H4a1.2 1.2 0 011.2 1.2v8.8a1.2 1.2 0 01-1.2 1.2zm7.6-1.2v-8.8a1.2 1.2 0 00-1.2-1.2H8a1.2 1.2 0 00-1.2 1.2v8.8a1.2 1.2 0 001.2 1.2h2.4a1.2 1.2 0 001.2-1.2z" fill="#fff"/></svg><svg width="13" height="14" fill="none" viewBox="0 0 13 14" id="pause-circle" x="116" y="311.54" xmlns="http://www.w3.org/2000/svg"><path d="M6.302.8A6.199 6.199 0 00.102 7c0 3.425 2.775 6.2 6.2 6.2 3.425 0 6.2-2.775 6.2-6.2 0-3.425-2.775-6.2-6.2-6.2zm0 11.2c-2.763 0-5-2.237-5-5 0-2.762 2.237-5 5-5 2.762 0 5 2.238 5 5 0 2.763-2.238 5-5 5zm2.4-7v4c0 .22-.18.4-.4.4h-1.2c-.22 0-.4-.18-.4-.4V5c0-.22.18-.4.4-.4h1.2c.22 0 .4.18.4.4zm-2.8 0v4c0 .22-.18.4-.4.4h-1.2c-.22 0-.4-.18-.4-.4V5c0-.22.18-.4.4-.4h1.2c.22 0 .4.18.4.4z" fill="#fff"/></svg><svg width="21" height="16" fill="none" viewBox="0 0 21 16" id="peer" x="311.54" y="192" xmlns="http://www.w3.org/2000/svg"><path opacity=".4" d="M2.002 7.498a2.002 2.002 0 100 4.005 2.002 2.002 0 000-4.005zm2.753 2.503h1.502v-1H4.755v1zm9.21-3.341l.601.8 1.502-1.125-.6-.801-1.502 1.126zm4.055-4.668a2.002 2.002 0 100 4.005 2.002 2.002 0 000-4.005z" fill="#C4CFDC"/><path d="M18.02 12.004a1.998 1.998 0 00-1.198.406l-3.003-1.802c.126-.357.193-.732.197-1.11a3.503 3.503 0 00-3.504-3.504 3.4 3.4 0 00-.764.09L8.472 3.35a1.997 1.997 0 10-1.464.645c.034 0 .066-.01.1-.01l1.283 2.747a3.478 3.478 0 00-1.383 2.769 3.495 3.495 0 006.044 2.4l2.997 1.798a1.998 1.998 0 101.971-1.695zm-7.508-1.002a1.502 1.502 0 110-3.003 1.502 1.502 0 010 3.003z" fill="#C4CFDC"/></svg><svg width="12" height="14" fill="none" viewBox="0 0 12 14" id="play" x="129" y="311.54" xmlns="http://www.w3.org/2000/svg"><path d="M11.01 5.968L2.21.765C1.495.343.4.753.4 1.798V12.2a1.199 1.199 0 001.81 1.033l8.8-5.2a1.199 1.199 0 000-2.065z" fill="#fff"/></svg><svg width="14" height="14" fill="none" viewBox="0 0 14 14" id="play-circle" x="141" y="311.54" xmlns="http://www.w3.org/2000/svg"><path d="M9.893 6.55l-4.4-2.675A.601.601 0 004.6 4.4v5.2c0 .46.495.745.893.525l4.4-2.525a.602.602 0 000-1.05zM13.2 7C13.2 3.575 10.425.8 7 .8A6.199 6.199 0 00.8 7c0 3.425 2.775 6.2 6.2 6.2 3.425 0 6.2-2.775 6.2-6.2zM2 7c0-2.763 2.238-5 5-5 2.763 0 5 2.237 5 5 0 2.762-2.237 5-5 5-2.762 0-5-2.238-5-5z" fill="#fff"/></svg><svg width="12" height="12" fill="inherit" viewBox="0 0 12 12" id="plus" x="23" y="341.54" xmlns="http://www.w3.org/2000/svg"><path d="M11.5 5H7V.5a.5.5 0 00-.5-.5h-1a.5.5 0 00-.5.5V5H.5a.5.5 0 00-.5.5v1a.5.5 0 00.5.5H5v4.5a.5.5 0 00.5.5h1a.5.5 0 00.5-.5V7h4.5a.5.5 0 00.5-.5v-1a.5.5 0 00-.5-.5z"/></svg><svg width="14" height="14" fill="none" viewBox="0 0 14 14" id="question-circle" x="155" y="311.54" xmlns="http://www.w3.org/2000/svg"><g clip-path="url(#bzclip0)"><path d="M7 .8a6.2 6.2 0 10.002 12.402A6.2 6.2 0 007 .8zM7 12c-2.763 0-5-2.236-5-5 0-2.762 2.237-5 5-5 2.762 0 5 2.237 5 5s-2.236 5-5 5zm2.681-6.38c0 1.676-1.81 1.702-1.81 2.322V8.1a.3.3 0 01-.3.3H6.429a.3.3 0 01-.3-.3v-.216c0-.894.678-1.251 1.19-1.538.439-.247.708-.414.708-.74 0-.431-.55-.717-.995-.717-.58 0-.847.274-1.223.749a.3.3 0 01-.417.053l-.695-.527a.3.3 0 01-.066-.41C5.22 3.888 5.974 3.4 7.145 3.4c1.227 0 2.536.958 2.536 2.22zM8.051 9.8a1.051 1.051 0 01-2.101 0 1.051 1.051 0 012.1 0z" fill="#fff"/></g><defs><clipPath id="bzclip0"><path fill="#fff" transform="translate(.6 .6)" d="M0 0h12.8v12.8H0z"/></clipPath></defs></svg><svg width="16" height="16" fill="none" viewBox="0 0 16 16" id="remote" x="56" y="311.54" xmlns="http://www.w3.org/2000/svg"><g clip-path="url(#caclip0)"><path d="M7.813 2.188A5.811 5.811 0 002 8a5.812 5.812 0 005.813 5.813A5.812 5.812 0 0013.625 8a5.812 5.812 0 00-5.813-5.813zm4.202 3.75H10.44c-.157-.856-.41-1.613-.731-2.22a4.698 4.698 0 012.306 2.22zM7.812 3.313c.436 0 1.14.965 1.482 2.624H6.33c.342-1.659 1.046-2.625 1.481-2.625zM3.125 8c0-.321.033-.635.094-.938h1.82C5.017 7.37 5 7.68 5 8c0 .321.016.63.04.938H3.219A4.745 4.745 0 013.125 8zm.485 2.063h1.575c.157.855.41 1.612.731 2.219a4.698 4.698 0 01-2.306-2.22zm1.575-4.126H3.61a4.699 4.699 0 012.306-2.219c-.32.607-.574 1.364-.73 2.22zm2.628 6.75c-.436 0-1.14-.965-1.482-2.624h2.965c-.344 1.659-1.048 2.624-1.483 2.624zm1.642-3.75H6.17c-.026-.3-.045-.609-.045-.937 0-.328.019-.638.045-.938h3.288c.026.3.044.61.044.938 0 .328-.02.637-.047.938zm.254 3.345c.32-.607.572-1.364.73-2.22h1.576a4.698 4.698 0 01-2.306 2.22zm.876-3.345c.024-.307.04-.616.04-.937 0-.321-.016-.63-.04-.938h1.821a4.74 4.74 0 010 1.875h-1.82z" fill="gray"/></g><defs><clipPath id="caclip0"><path fill="#fff" transform="translate(2 2)" d="M0 0h11.625v12H0z"/></clipPath></defs></svg><svg width="20" height="21" fill="none" viewBox="0 0 20 21" id="resources" x="311.54" y="208" xmlns="http://www.w3.org/2000/svg"><g clip-path="url(#cbclip0)" fill="#fff" fill-opacity=".6"><path opacity=".4" d="M19.531 15.719a.469.469 0 01.469.469v1.562a.47.47 0 01-.469.469H.47A.469.469 0 010 17.75V3.687a.469.469 0 01.469-.468H2.03a.469.469 0 01.469.469v12.03h17.031z"/><path d="M15.238 7.133l3.512 7.336h-15v-4.063l3.39-5.652a.469.469 0 01.778-.04l3.332 4.442 3.309-2.207a.468.468 0 01.68.184z"/></g><defs><clipPath id="cbclip0"><path fill="#fff" transform="translate(0 .719)" d="M0 0h20v20H0z"/></clipPath></defs></svg><svg width="13" height="8" fill="inherit" viewBox="0 0 13 8" id="rounded-triangle" x="183" y="311.54" xmlns="http://www.w3.org/2000/svg"><path d="M.367 5.367l4.965-5C5.61.121 5.93 0 6.25 0c.32 0 .64.122.884.366l4.965 5c.358.358.465.895.271 1.363a1.216 1.216 0 01-1.155.771H1.251a1.25 1.25 0 01-.884-2.133z"/></svg><svg style="margin:auto;background:0 0" width="28" height="28" viewBox="0 0 100 100" preserveAspectRatio="xMidYMid" display="block" id="spinner" x="311.54" y="28" xmlns="http://www.w3.org/2000/svg"><circle cx="50" cy="50" fill="none" stroke="#8c6141" stroke-width="10" r="35" stroke-dasharray="164.93361431346415 56.97787143782138"><animateTransform attributeName="transform" type="rotate" repeatCount="indefinite" dur="1s" values="0 50 50;360 50 50" keyTimes="0;1"/></circle></svg><svg width="20" height="16" fill="none" viewBox="0 0 20 16" id="state-machine" x="20" y="311.54" xmlns="http://www.w3.org/2000/svg"><path opacity=".4" d="M13 4H5.145L8.01 9H8a1.993 1.993 0 00-1.722 1L1.712 2H13v2z" fill="#fff"/><path d="M12 10H8a1 1 0 00-1 1v4a1 1 0 001 1h4a1 1 0 001-1v-4a1 1 0 00-1-1zM5 0H1a1 1 0 00-1 1v4a1 1 0 001 1h4a1 1 0 001-1V1a1 1 0 00-1-1zm14 0h-4a1 1 0 00-1 1v4a1 1 0 001 1h4a1 1 0 001-1V1a1 1 0 00-1-1z" fill="#fff"/></svg><svg width="12" height="12" fill="none" viewBox="0 0 12 12" id="stop" x="35" y="341.54" xmlns="http://www.w3.org/2000/svg"><path d="M10.4.4H1.6A1.2 1.2 0 00.4 1.6v8.8a1.2 1.2 0 001.2 1.2h8.8a1.2 1.2 0 001.2-1.2V1.6A1.2 1.2 0 0010.4.4z" fill="#fff"/></svg><svg width="20" height="20" fill="none" viewBox="0 0 20 20" id="storage" x="340.54" xmlns="http://www.w3.org/2000/svg"><g clip-path="url(#cgclip0)" fill="#fff"><path opacity=".4" d="M13 12a1 1 0 100 2 1 1 0 000-2zm5.496-2.756l-3.05-4.576A1.5 1.5 0 0014.196 4H5.803a1.5 1.5 0 00-1.248.668L1.504 9.244A3 3 0 001 10.908v.592A1.5 1.5 0 012.5 10h15a1.5 1.5 0 011.5 1.5v-.592a3 3 0 00-.504-1.664z"/><path d="M17.5 10h-15A1.5 1.5 0 001 11.5v3A1.5 1.5 0 002.5 16h15a1.5 1.5 0 001.5-1.5v-3a1.5 1.5 0 00-1.5-1.5zM13 14a1 1 0 110-2 1 1 0 010 2zm3 0a1 1 0 110-2 1 1 0 010 2z"/></g><defs><clipPath id="cgclip0"><path fill="#fff" transform="translate(1 2)" d="M0 0h18v16H0z"/></clipPath></defs></svg><svg width="16" height="16" fill="none" viewBox="0 0 16 16" id="sunny" x="72" y="311.54" xmlns="http://www.w3.org/2000/svg"><path opacity=".4" d="M15.7 7.516l-2.959-1.479L13.788 2.9a.54.54 0 00-.684-.684L9.966 3.262 8.485.3a.541.541 0 00-.969 0L6.038 3.26 2.897 2.212a.54.54 0 00-.684.684l1.046 3.137L.3 7.516a.541.541 0 000 .968l2.96 1.479-1.047 3.14a.54.54 0 00.684.684l3.138-1.046L7.513 15.7a.54.54 0 00.969 0l1.478-2.96 3.138 1.047a.54.54 0 00.684-.684l-1.047-3.137 2.96-1.478a.541.541 0 00.006-.972zm-4.871 3.312a4.004 4.004 0 01-5.656 0 4.004 4.004 0 010-5.656 4.004 4.004 0 015.656 0 4.004 4.004 0 010 5.656z" fill="#fff"/><path d="M11 8a3 3 0 11-6 0 3 3 0 016 0z" fill="#fff"/></svg><svg width="23" height="20" fill="none" viewBox="0 0 23 20" id="swagger" x="311.54" y="152" xmlns="http://www.w3.org/2000/svg"><g clip-path="url(#ciclip0)" fill="#fff"><path opacity=".4" d="M22.134 9.116a1.25 1.25 0 010 1.768l-1.768 1.767a1.25 1.25 0 00-.367.885V15a3.75 3.75 0 01-3.75 3.75h-1.875a.625.625 0 01-.625-.625v-1.25a.625.625 0 01.625-.625h1.875a1.25 1.25 0 001.25-1.25v-1.464a3.75 3.75 0 011.099-2.652l.884-.884-.884-.884A3.75 3.75 0 0117.5 6.464V5a1.25 1.25 0 00-1.25-1.25h-1.875a.625.625 0 01-.625-.625v-1.25a.625.625 0 01.625-.625h1.875A3.75 3.75 0 0119.999 5v1.464a1.249 1.249 0 00.367.885l1.767 1.767z"/><path d="M8.125 1.25H6.25A3.75 3.75 0 002.5 5v1.464c0 .332-.132.65-.367.885L.366 9.116a1.25 1.25 0 000 1.768l1.768 1.767c.234.235.366.553.366.885V15a3.75 3.75 0 003.75 3.75h1.875a.625.625 0 00.625-.625v-1.25a.625.625 0 00-.625-.625H6.25A1.25 1.25 0 015 15v-1.464a3.75 3.75 0 00-1.1-2.652L3.019 10l.884-.884A3.75 3.75 0 005 6.464V5a1.25 1.25 0 011.25-1.25h1.875a.625.625 0 00.625-.625v-1.25a.625.625 0 00-.625-.625z"/></g><defs><clipPath id="ciclip0"><path fill="#fff" d="M0 0h22.5v20H0z"/></clipPath></defs></svg><svg width="8" height="8" fill="none" viewBox="0 0 8 8" id="times" x="332.54" y="172" xmlns="http://www.w3.org/2000/svg"><path d="M4.848 4l2.564-2.564.53-.529a.2.2 0 000-.282L7.374.059a.2.2 0 00-.282 0L4 3.152.907.058a.2.2 0 00-.282 0L.058.624a.2.2 0 000 .283L3.152 4 .058 7.093a.2.2 0 000 .282l.566.566a.2.2 0 00.283 0L4 4.848l2.564 2.564.529.53a.2.2 0 00.282 0l.566-.567a.2.2 0 000-.282L4.848 4z" fill="#fff"/></svg><svg width="14" height="14" fill="none" viewBox="0 0 14 14" id="times-circle-solid" x="169" y="311.54" xmlns="http://www.w3.org/2000/svg"><path d="M7 .8A6.199 6.199 0 00.8 7c0 3.425 2.775 6.2 6.2 6.2 3.425 0 6.2-2.775 6.2-6.2C13.2 3.575 10.425.8 7 .8zm3.04 7.827a.3.3 0 010 .425l-.99.988a.3.3 0 01-.425 0L7 8.4l-1.627 1.64a.3.3 0 01-.425 0l-.988-.99a.3.3 0 010-.425L5.6 7 3.96 5.372a.3.3 0 010-.425l.99-.99a.3.3 0 01.425 0L7 5.6l1.628-1.64a.3.3 0 01.425 0l.99.99a.3.3 0 010 .425L8.4 7l1.64 1.627z" fill="#fff"/></svg><svg width="24" height="24" fill="none" stroke="#6a7384" stroke-width="2" stroke-linecap="round" stroke-linejoin="round" class="clfeather clfeather-upload" viewBox="0 0 24 24" id="upload" x="311.54" y="104" xmlns="http://www.w3.org/2000/svg"><path d="M21 15v4a2 2 0 01-2 2H5a2 2 0 01-2-2v-4M17 8l-5-5-5 5M12 3v12"/></svg><svg width="24" height="24" fill="none" stroke="currentColor" stroke-width="2" stroke-linecap="round" stroke-linejoin="round" class="cmfeather cmfeather-upload" viewBox="0 0 24 24" id="upload-black" x="311.54" y="128" xmlns="http://www.w3.org/2000/svg"><path d="M21 15v4a2 2 0 01-2 2H5a2 2 0 01-2-2v-4M17 8l-5-5-5 5M12 3v12"/></svg><svg width="14" height="12" fill="none" viewBox="0 0 14 12" id="warning" x="325.54" y="298" xmlns="http://www.w3.org/2000/svg"><g clip-path="url(#cnclip0)"><path d="M5.83 4.798l.154 2.625a.281.281 0 00.281.264h.97a.281.281 0 00.28-.264l.155-2.625a.281.281 0 00-.28-.298H6.11a.281.281 0 00-.28.298zM7.734 9a.984.984 0 11-1.968 0 .984.984 0 011.968 0zM7.724.562a1.126 1.126 0 00-1.948 0l-5.624 9.75A1.126 1.126 0 001.126 12h11.248c.864 0 1.407-.937.974-1.687L7.724.563zM1.247 10.664l5.381-9.328a.14.14 0 01.244 0l5.381 9.328a.14.14 0 01-.121.211H1.368a.14.14 0 01-.121-.21z" fill="#fff"/></g><defs><clipPath id="cnclip0"><path fill="#fff" d="M0 0h13.5v12H0z"/></clipPath></defs></svg></svg>
